SplineFontDB: 3.2
FontName: RallyDisplay-ExtraLight
FullName: Rally Display ExtraLight
FamilyName: Rally Display
Weight: ExtraLight
Copyright: Copyright (c) 2023-2024, Zamero Type Foundry
UComments: "2023-12-31: Created with FontForge (http://fontforge.org)+AAoACgAK-Magical cartoon rabbit. :)"
Version: 001.000
ItalicAngle: 0
UnderlinePosition: -100
UnderlineWidth: 50
Ascent: 800
Descent: 200
InvalidEm: 0
LayerCount: 2
Layer: 0 0 "Back" 1
Layer: 1 0 "Fore" 0
XUID: [1021 474 1118879153 10182]
StyleMap: 0x0000
FSType: 0
OS2Version: 0
OS2_WeightWidthSlopeOnly: 0
OS2_UseTypoMetrics: 1
CreationTime: 1704051534
ModificationTime: 1732898329
PfmFamily: 81
TTFWeight: 200
TTFWidth: 5
LineGap: 90
VLineGap: 90
OS2TypoAscent: 0
OS2TypoAOffset: 1
OS2TypoDescent: 0
OS2TypoDOffset: 1
OS2TypoLinegap: 90
OS2WinAscent: 0
OS2WinAOffset: 1
OS2WinDescent: 0
OS2WinDOffset: 1
HheadAscent: 0
HheadAOffset: 1
HheadDescent: 0
HheadDOffset: 1
OS2Vendor: 'ZAM '
Lookup: 1 0 0 "'subs' Subscript lookup 0" { "'subs' Subscript lookup 0 subtable" ("inferior") } ['subs' ('DFLT' <'dflt' > ) ]
Lookup: 1 0 0 "'onum' Oldstyle Figures lookup 27" { "'onum' Oldstyle Figures lookup 27-1" ("osf") } ['onum' ('DFLT' <'dflt' > 'grek' <'dflt' > 'latn' <'AZE ' 'CAT ' 'CRT ' 'KAZ ' 'MOL ' 'NLD ' 'ROM ' 'TAT ' 'TRK ' 'dflt' > ) ]
Lookup: 1 0 0 "'ss16' Style Set 16 lookup 26" { "'ss16' Style Set 16 lookup 26-1" ("ss16") } ['ss16' ('DFLT' <'dflt' > 'grek' <'dflt' > 'latn' <'AZE ' 'CAT ' 'CRT ' 'KAZ ' 'MOL ' 'NLD ' 'ROM ' 'TAT ' 'TRK ' 'dflt' > ) ]
Lookup: 1 0 0 "'init' Initial Forms lookup 24" { "'init' Initial Forms lookup 24-1" ("init") } ['init' ('DFLT' <'dflt' > 'grek' <'dflt' > 'latn' <'AZE ' 'CAT ' 'CRT ' 'KAZ ' 'MOL ' 'NLD ' 'ROM ' 'TAT ' 'TRK ' 'dflt' > ) ]
Lookup: 1 0 0 "'fina' Terminal Forms lookup 25" { "'fina' Terminal Forms lookup 25-1" ("fina") } ['fina' ('DFLT' <'dflt' > 'grek' <'dflt' > 'latn' <'AZE ' 'CAT ' 'CRT ' 'KAZ ' 'MOL ' 'NLD ' 'ROM ' 'TAT ' 'TRK ' 'dflt' > ) ]

StartChar: dotlessi
Encoding: 239 305 1
Width: 310
Flags: W
HStem: 0 21G<160.58 225.459> 445.039 51.9718<28.3201 162.696>
VStem: 160.58 64.8791<0 445.039>
LayerCount: 2
Back
SplineSet
274.729492188 496.93359375 m 5
 280.159179688 0 l 5
 83.830078125 0 l 5
 90 496.93359375 l 5
 274.729492188 496.93359375 l 5
EndSplineSet
Fore
SplineSet
220.029492188 497.010742188 m 1
 225.459179688 0 l 1
 160.580078125 0 l 1
 162.696367188 445.038984375 l 1
 24.7 443.035078125 l 1
 28.3201171875 497.010742188 l 1
 220.029492188 497.010742188 l 1
EndSplineSet
EndChar

StartChar: period
Encoding: 14 46 2
Width: 270
Flags: W
HStem: -10 94<99.1611 180.839>
VStem: 93 94<-3.8389 77.8389>
LayerCount: 2
Fore
SplineSet
93 37 m 0
 93 65.7224076707 111.27759233 84 140 84 c 0
 168.72240767 84 187 65.7224076707 187 37 c 0
 187 8.27759232957 168.72240767 -10 140 -10 c 0
 111.27759233 -10 93 8.27759232957 93 37 c 0
EndSplineSet
EndChar

StartChar: o
Encoding: 79 111 3
Width: 565
Flags: W
HStem: -10.0664 58.4248<189.618 374.716> 448.509 58.4248<189.618 374.716>
VStem: 33.75 62.125<148.426 350.063> 468.125 63.875<148.426 350.063>
LayerCount: 2
Fore
SplineSet
95.875 249.858398438 m 0
 95.875 126.719279399 168.266329804 48.3583984375 282.025390625 48.3583984375 c 0
 395.753412778 48.3583984375 468.125 126.719279399 468.125 249.858398438 c 0
 468.125 371.256561106 395.753412778 448.508789062 282.025390625 448.508789062 c 0
 168.266329804 448.508789062 95.875 371.256561106 95.875 249.858398438 c 0
33.75 249.93359375 m 0
 33.75 406.989257812 130.291561854 506.93359375 282 506.93359375 c 0
 434.778093206 506.93359375 532 406.989257812 532 249.93359375 c 0
 532 91.0439453125 434.778093206 -10.06640625 282 -10.06640625 c 0
 130.291561854 -10.06640625 33.75 91.0439453125 33.75 249.93359375 c 0
EndSplineSet
EndChar

StartChar: slash
Encoding: 15 47 4
Width: 497
Flags: W
LayerCount: 2
Back
SplineSet
1 -123.994140625 m 1
 198.637695312 379 l 1
 317 815.001953125 l 1
 506 763.001953125 l 1
 328.983398438 331 l 1
 190 -175.994140625 l 1
 1 -123.994140625 l 1
EndSplineSet
Fore
SplineSet
63.5 -148.994140625 m 1
 379.5 805.001953125 l 1
 433.5 788.001953125 l 1
 117.5 -165.994140625 l 1
 63.5 -148.994140625 l 1
EndSplineSet
Substitution2: "'frac' Diagonal Fractions in Latin lookup 25 subtable" fraction
EndChar

StartChar: d
Encoding: 68 100 5
Width: 672
Flags: W
HStem: -10.0664 58<185.056 370.982> 0 53.4268<541.849 658.38> 450.434 56.5<187.076 369.64> 735.002 20G<480.625 539.246>
VStem: 30 60.75<146.679 348.906> 468 73.8486<125.321 371.295> 476.021 65.8281<248.934 755.002> 476.021 37.9795<110.056 406.601>
LayerCount: 2
Back
SplineSet
387.270507812 755.001953125 m 5
 381.840820312 0 l 5
 578.169921875 0 l 5
 573.848632812 604.075195312 l 5
 672 602.071289062 l 5
 668.379882812 755.001953125 l 5
 387.270507812 755.001953125 l 5
EndSplineSet
Fore
SplineSet
468 246.93359375 m 0xbc
 468 371.295146485 394.11182202 450.43359375 278 450.43359375 c 0
 163.568290018 450.43359375 90.75 371.295146485 90.75 246.93359375 c 0
 90.75 125.321369605 163.568290018 47.93359375 278 47.93359375 c 0
 394.11182202 47.93359375 468 125.321369605 468 246.93359375 c 0xbc
514 248.93359375 m 0xb9
 514 110.056268601 428.713621972 -10.06640625 268 -10.06640625 c 0
 122.554875959 -10.06640625 30 89.8779296875 30 246.93359375 c 0
 30 405.823242188 122.554875959 506.93359375 268 506.93359375 c 0
 418.333803689 506.93359375 514 406.600888102 514 248.93359375 c 0xb9
476.020507812 0 m 1x79
 480.75 755.001953125 l 1
 539.169921875 755.001953125 l 1
 541.848632812 53.4267578125 l 1x7a
 662 55.4306640625 l 1
 658.379882812 0 l 1
 476.020507812 0 l 1x79
EndSplineSet
EndChar

StartChar: p
Encoding: 80 112 6
Width: 662
Flags: W
HStem: -10.0664 58<296.682 477.444> 443.83 53.1807<28.6201 143.401> 450.434 56.5<297.35 477.444>
VStem: 143.401 56.3281<-174 445.834> 160.75 38.9795<90.2663 386.811> 571.25 60.75<148.338 350.566>
LayerCount: 2
Fore
SplineSet
206.75 249.93359375 m 0xa4
 206.75 126.48830629 276.845999823 47.93359375 387 47.93359375 c 0
 499.598738888 47.93359375 571.25 126.48830629 571.25 249.93359375 c 0
 571.25 372.462651272 499.598738888 450.43359375 387 450.43359375 c 0
 276.845999823 450.43359375 206.75 372.462651272 206.75 249.93359375 c 0xa4
160.75 247.93359375 m 0xac
 160.75 386.810650935 241.355901405 506.93359375 393.25 506.93359375 c 0
 539.153648568 506.93359375 632 406.989257812 632 249.93359375 c 0
 632 91.0439453125 539.153648568 -10.06640625 393.25 -10.06640625 c 0
 251.166027987 -10.06640625 160.75 90.2663118132 160.75 247.93359375 c 0xac
199.729492188 497.010742188 m 1xcc
 205.159179688 -174 l 1
 139.080078125 -174 l 1
 143.401367188 445.833984375 l 1xd4
 25 443.830078125 l 1
 28.6201171875 497.010742188 l 1
 199.729492188 497.010742188 l 1xcc
EndSplineSet
EndChar

StartChar: t
Encoding: 84 116 7
Width: 426
Flags: W
HStem: -16 63.6807<265.569 321.396> 443.75 53.25<28 369.75>
VStem: 142.83 64.2988<109.251 436.559>
LayerCount: 2
Fore
SplineSet
28 497 m 1
 173 495.25 l 1
 371 500 l 1
 369.75 438.5 l 1
 170 443.75 l 1
 25 443.75 l 1
 28 497 l 1
207.12890625 252 m 0
 207.12890625 119.674356913 225.815025743 62.6101607781 334.409179688 47.6806640625 c 1
 319.7890625 -16 l 1
 174.711862806 18.078125 142.830078125 72 142.830078125 262 c 0
 142.830078125 362.482421875 157.151367188 650.046875 157.151367188 650.046875 c 1
 218.729492188 648.5 l 1
 218.729492188 648.5 207.12890625 385.258625856 207.12890625 252 c 0
EndSplineSet
EndChar

StartChar: l
Encoding: 76 108 8
Width: 387
Flags: W
HStem: 0 54.6475<234.139 358.839> 700.825 54.1768<48.3201 173.141>
VStem: 168.82 65.3188<54.6475 700.825>
LayerCount: 2
Back
SplineSet
105.334960938 140.244140625 m 5
 109.862304688 751.69921875 l 5
 349.01953125 797.84375 l 5
 404.7265625 645.374023438 l 5
 295.80859375 623.6875 l 5
 300.63671875 14.7734375 l 5
 48.3994140625 -44.3125 l 5
 -7.3076171875 108.157226562 l 5
 105.334960938 140.244140625 l 5
EndSplineSet
Fore
SplineSet
234.13890625 54.6474609375 m 1
 362.459179688 56.1806640625 l 1
 358.8390625 0 l 1
 168.820078125 0 l 1
 173.141367188 700.825195312 l 1
 44.7 698.821289062 l 1
 48.3201171875 755.001953125 l 1
 229.739492188 755.001953125 l 1
 234.13890625 54.6474609375 l 1
EndSplineSet
EndChar

StartChar: e
Encoding: 69 101 9
Width: 541
Flags: W
HStem: -23.9004 57.3008<257.687 424.319> 213 51.5<79.75 450.25> 450.934 56<180.705 371.475>
VStem: 451 61.1191<242.261 370.046>
LayerCount: 2
Back
SplineSet
145 251.93359375 m 0
 145 118.399011671 234.924400059 91.0845098901 427.2890625 79.900390625 c 1
 411.819335938 -23.900390625 l 1
 195.319904327 -22.2919921875 30 49 30 259 c 0
 30 399.989257812 114.333684792 506.93359375 271 506.93359375 c 0
 466.952995619 506.93359375 517.619140625 377.117081999 517.619140625 261.659179688 c 0
 517.619140625 223.858398438 512 196 512 196 c 1
 130 193 l 1
 115 279 l 1
 404 283 l 1
 404 283 404.043226139 284.065301324 404.043226139 285.999999724 c 0
 404.043226139 306 397.916066056 408.93359375 277 408.93359375 c 0
 172.754005142 408.93359375 145 332.861387567 145 251.93359375 c 0
EndSplineSet
Fore
SplineSet
97.25 251.93359375 m 0
 97.25 87.0808758275 231.840944957 38.3292183475 429.0390625 33.400390625 c 1
 424.319335938 -23.900390625 l 1
 193.138450587 -22.2919921875 33.75 49 33.75 259 c 0
 33.75 399.989257812 116.77143866 506.93359375 271 506.93359375 c 0
 462.582931425 506.93359375 512.119140625 382.542104622 512.119140625 271.909179688 c 0
 512.119140625 239.721590971 506.5 216 506.5 216 c 1
 79.75 213 l 1
 65.5 264.5 l 1
 450.25 268.5 l 1
 450.25 268.5 451 275.900272396 451 287.25 c 0
 451 356.854045208 407.591821748 450.93359375 278.75 450.93359375 c 0
 135.41175707 450.93359375 97.25 354.510861073 97.25 251.93359375 c 0
EndSplineSet
Substitution2: "'ss17' Style Set 17 lookup 29-1" e.ss17
Substitution2: "'ss15' Style Set 15 lookup 23-1" e.ss15
Substitution2: "'ss04' Style Set 4 lookup 12-1" e.ss04
EndChar

StartChar: s
Encoding: 83 115 10
Width: 388
Flags: W
HStem: 495.9 20G<280.303 283.121>
VStem: 47.5 60.6816<319.778 411.207> 278.688 62.1016<93.492 188.159>
LayerCount: 2
Fore
SplineSet
280.302734375 515.900390625 m 1
 287.482421875 464.950195312 l 1
 287.482421875 464.950195312 108.181640625 452.520275873 108.181640625 365.25 c 0
 108.181640625 334.78708092 119.393946793 314.237527277 202.298828125 281.611328125 c 0
 298.741048442 243.662905779 340.7890625 207.393065132 340.7890625 142 c 0
 340.7890625 -20.5129468308 71.5390625 -23.900390625 71.5390625 -23.900390625 c 1
 64.3193359375 34.150390625 l 1
 64.3193359375 34.150390625 278.6875 37.3966013986 278.6875 141.25 c 0
 278.6875 176.837666958 257.082536427 199.965670692 178.036132812 230.700195312 c 0
 80.7132554934 268.536523696 47.5 301.473313283 47.5 359.5 c 0
 47.5 511.922878829 280.302734375 515.900390625 280.302734375 515.900390625 c 1
EndSplineSet
EndChar

StartChar: b
Encoding: 66 98 11
Width: 662
Flags: W
HStem: -10.0664 58.75<297.572 477.69> 0 21G<136.83 202.159> 450.434 56.5<298.846 475.702> 701.575 53.4268<28.6201 141.151>
VStem: 141.151 55.5781<256.434 701.575> 160.75 41.4092<113.534 409.518> 571.25 60.75<146.867 348.906>
LayerCount: 2
Fore
SplineSet
206.75 246.93359375 m 0xb2
 206.75 125.77955059 276.845999823 48.68359375 387 48.68359375 c 0
 499.598738888 48.68359375 571.25 125.77955059 571.25 246.93359375 c 0
 571.25 371.295554137 499.598738888 450.43359375 387 450.43359375 c 0
 276.845999823 450.43359375 206.75 371.295554137 206.75 246.93359375 c 0xb2
160.75 256.43359375 m 0xb6
 160.75 409.517933786 251.457692593 506.93359375 394 506.93359375 c 0
 539.4453125 506.93359375 632 405.823242188 632 246.93359375 c 0
 632 89.8779296875 539.4453125 -10.06640625 394 -10.06640625 c 0
 241.615920441 -10.06640625 160.75 113.534252751 160.75 256.43359375 c 0xb6
196.729492188 755.001953125 m 1x7a
 202.159179688 0 l 1x76
 136.830078125 0 l 1
 141.151367188 701.575195312 l 1
 25 699.571289062 l 1
 28.6201171875 755.001953125 l 1
 196.729492188 755.001953125 l 1x7a
EndSplineSet
EndChar

StartChar: grave
Encoding: 64 96 12
Width: 230
Flags: W
HStem: 526.72 213.784
VStem: 11 208.518
LayerCount: 2
Fore
SplineSet
54.1767578125 740.50390625 m 1
 219.517578125 557.465820312 l 1
 191.080078125 526.719726562 l 1
 11 696.68359375 l 1
 54.1767578125 740.50390625 l 1
EndSplineSet
EndChar

StartChar: q
Encoding: 81 113 13
Width: 682
Flags: W
HStem: -173.994 53.4268<541.849 658.38> -10.0664 58<185.056 370.982> 450.434 56.5<187.076 369.64> 476.934 20G<480.609 539.257>
VStem: 30 60.75<146.679 348.906> 468 71.1699<125.321 371.295> 476.021 65.8281<-120.567 496.934> 480.75 33.25<103.306 406.601>
LayerCount: 2
Fore
SplineSet
468 246.93359375 m 0xec
 468 371.295146484 394.11182202 450.43359375 278 450.43359375 c 0
 163.568290018 450.43359375 90.75 371.295146484 90.75 246.93359375 c 0
 90.75 125.321369605 163.568290018 47.93359375 278 47.93359375 c 0
 394.11182202 47.93359375 468 125.321369605 468 246.93359375 c 0xec
514 248.93359375 m 0xe9
 514 103.306268601 428.713621972 -10.06640625 268 -10.06640625 c 0
 122.554875959 -10.06640625 30 89.8779296875 30 246.93359375 c 0
 30 405.823242188 122.554875959 506.93359375 268 506.93359375 c 0
 418.333803689 506.93359375 514 406.600888102 514 248.93359375 c 0xe9
476.020507812 -173.994140625 m 1xda
 480.75 496.93359375 l 1xd9
 539.169921875 496.93359375 l 1xdc
 541.848632812 -120.567382812 l 1
 662 -118.563476562 l 1
 658.379882812 -173.994140625 l 1
 476.020507812 -173.994140625 l 1xda
EndSplineSet
EndChar

StartChar: a
Encoding: 65 97 14
Width: 672
Flags: W
HStem: -10.0664 58<185.056 370.982> 0 53.4268<541.849 658.38> 450.434 56.5<187.076 369.64> 477.002 20G<480.56 539.291>
VStem: 30 60.75<146.679 348.906> 468 73.8486<125.321 371.295> 476.021 65.8281<248.934 497.002> 480.75 33.25<110.056 406.601>
LayerCount: 2
Back
SplineSet
434 246.93359375 m 0xac
 434 342.267265625 377.222768499 402.93359375 288 402.93359375 c 0
 200.610229493 402.93359375 145 342.267265625 145 246.93359375 c 0
 145 153.432738 200.610229493 93.93359375 288 93.93359375 c 0
 377.222768499 93.93359375 434 153.432738 434 246.93359375 c 0xac
505 263.93359375 m 0xa9
 505 117.013180272 422.833855314 -10.06640625 268 -10.06640625 c 0
 122.554875959 -10.06640625 30 89.8779296875 30 246.93359375 c 0
 30 405.823242188 122.554875959 506.93359375 268 506.93359375 c 0
 412.833786481 506.93359375 505 412.434184942 505 263.93359375 c 0xa9
442.270507812 0 m 1x5c
 447 497.001953125 l 1
 554.169921875 497.001953125 l 1x5a
 556.848632812 90.9267578125 l 1
 662 92.9306640625 l 1
 658.379882812 0 l 1
 442.270507812 0 l 1x5c
EndSplineSet
Fore
SplineSet
468 246.93359375 m 0xac
 468 371.295146484 394.11182202 450.43359375 278 450.43359375 c 0
 163.568290018 450.43359375 90.75 371.295146484 90.75 246.93359375 c 0
 90.75 125.321369605 163.568290018 47.93359375 278 47.93359375 c 0
 394.11182202 47.93359375 468 125.321369605 468 246.93359375 c 0xac
514 248.93359375 m 0xa9
 514 110.056268601 428.713621972 -10.06640625 268 -10.06640625 c 0
 122.554875959 -10.06640625 30 89.8779296875 30 246.93359375 c 0
 30 405.823242188 122.554875959 506.93359375 268 506.93359375 c 0
 418.333803689 506.93359375 514 406.600888102 514 248.93359375 c 0xa9
476.020507812 0 m 1x5a
 480.75 497.001953125 l 1x59
 539.169921875 497.001953125 l 1
 541.848632812 53.4267578125 l 1
 662 55.4306640625 l 1
 658.379882812 0 l 1
 476.020507812 0 l 1x5a
EndSplineSet
Substitution2: "'ss03' Style Set 3 lookup 11-1" a.ss03
EndChar

StartChar: h
Encoding: 72 104 15
Width: 635
Flags: W
HStem: 0 21G<154.08 217.159> 449.934 57<296.407 456.684> 701.575 53.4268<28.6201 158.401>
VStem: 154.08 63.0791<0 701.575> 514.5 61<47.9023 384.754>
LayerCount: 2
Fore
SplineSet
170.5 291.43359375 m 1
 190.862304687 408.062034878 255.083333333 506.93359375 388 506.93359375 c 0
 511.539851262 506.93359375 575.5 429.158203125 575.5 278.93359375 c 0
 575.5 134.376953125 557.659179688 -15 557.659179688 -15 c 1
 494.330078125 -7.5 l 1
 494.330078125 -7.5 514.5 143.127853221 514.5 266.93359375 c 0
 514.5 383.091120794 479.046373281 449.93359375 378.5 449.93359375 c 0
 276.691021858 449.93359375 222.278206033 376.956215745 206 254.43359375 c 1
 170.5 291.43359375 l 1
211.729492188 755.001953125 m 1
 217.159179688 0 l 1
 154.080078125 0 l 1
 158.401367188 701.575195312 l 1
 25 699.571289062 l 1
 28.6201171875 755.001953125 l 1
 211.729492188 755.001953125 l 1
EndSplineSet
EndChar

StartChar: n
Encoding: 78 110 16
Width: 633
Flags: W
HStem: 0 21G<159.08 225.159> 443.821 53.1807<28.6201 163.401> 449.934 57<301.407 461.684>
VStem: 159.08 66.0791<0 445.825> 519.5 61<47.9023 384.754>
LayerCount: 2
Fore
SplineSet
175.5 291.43359375 m 1xb8
 195.862304687 408.008675194 260.083333333 506.93359375 393 506.93359375 c 0
 516.539851262 506.93359375 580.5 429.158203125 580.5 278.93359375 c 0
 580.5 134.376953125 562.659179688 -15 562.659179688 -15 c 1
 499.330078125 -7.5 l 1
 499.330078125 -7.5 519.5 143.127853221 519.5 266.93359375 c 0
 519.5 383.091120794 484.046373281 449.93359375 383.5 449.93359375 c 0
 281.691021858 449.93359375 227.278206033 377.010871614 211 254.43359375 c 1
 175.5 291.43359375 l 1xb8
219.729492188 497.001953125 m 1xd8
 225.159179688 0 l 1
 159.080078125 0 l 1
 163.401367188 445.825195312 l 1
 25 443.821289062 l 1
 28.6201171875 497.001953125 l 1
 219.729492188 497.001953125 l 1xd8
EndSplineSet
EndChar

StartChar: I
Encoding: 41 73 17
Width: 468
Flags: W
HStem: 0 59<48.958 193.084 267.21 420.287> 663.08 67.9307<53.748 196.279 264.135 410.857>
VStem: 193.084 74.126<59 664>
LayerCount: 2
Back
SplineSet
339.857421875 731.010742188 m 5
 345.287109375 0 l 5
 128.958007812 0 l 5
 133.279296875 560.083984375 l 5
 15.1279296875 558.080078125 l 5
 18.748046875 731.010742188 l 5
 339.857421875 731.010742188 l 5
EndSplineSet
Fore
SplineSet
410.857421875 731.010742188 m 1
 417.127929688 661 l 1
 264.134765625 664 l 1
 267.209960938 59 l 1
 423.26953125 63 l 1
 420.287109375 0 l 1
 48.9580078125 0 l 1
 45 61 l 1
 193.083984375 59 l 1
 196.279296875 665.083984375 l 1
 50.1279296875 663.080078125 l 1
 53.748046875 731.010742188 l 1
 410.857421875 731.010742188 l 1
EndSplineSet
EndChar

StartChar: c
Encoding: 67 99 18
Width: 471
Flags: W
HStem: -10.0664 59.5<193.484 413.718> 449.434 57.5<195.114 388.64>
VStem: 33.75 65<146.236 349.941>
LayerCount: 2
Back
SplineSet
20 249.93359375 m 0
 20 406.989257812 127.722105271 506.93359375 297 506.93359375 c 0
 415.535915516 506.93359375 465.916992188 450.782226562 465.916992188 450.782226562 c 1
 409.647460938 308.369140625 l 1
 409.647460938 308.369140625 373.776884975 346.93359375 318 346.93359375 c 4
 252.610710758 346.93359375 211 309.211914062 211 249.93359375 c 0
 211 180.822265625 247.426625003 154.52486356 323.040039062 139.244140625 c 0
 407.435563152 122.917258333 455.553710938 87 455.553710938 1.279296875 c 0
 455.553710938 -81.1748046875 404 -147 404 -147 c 1
 280 -97 l 1
 280 -97 295.76171875 -74 295.76171875 -54 c 0
 295.76171875 -29.5654296875 282.579369985 -17.3599949932 223.834960938 -5.6943359375 c 0
 112.853515625 16.3447265625 20 91.0439453125 20 249.93359375 c 0
EndSplineSet
Fore
SplineSet
33.75 249.93359375 m 0
 33.75 406.989257812 134.180446521 506.93359375 292 506.93359375 c 0
 400.009806154 506.93359375 445.916992188 460.782226562 445.916992188 460.782226562 c 1
 420.897460938 409.869140625 l 1
 420.897460938 409.869140625 369.077441798 449.43359375 288.5 449.43359375 c 0
 172.540956695 449.43359375 98.75 371.268051304 98.75 248.43359375 c 0
 98.75 126.822050781 165.908520506 49.43359375 297.25 49.43359375 c 0
 391.440384903 49.43359375 439.1484375 84.8642578124 439.1484375 84.8642578124 c 1
 455.146484375 29.31640625 l 1
 455.146484375 29.31640625 414.159810979 -10.06640625 287 -10.06640625 c 0
 132.236004188 -10.06640625 33.75 91.0439453125 33.75 249.93359375 c 0
EndSplineSet
EndChar

StartChar: equal
Encoding: 29 61 19
Width: 450
Flags: W
HStem: 215.75 59.5<149.2 404> 225.75 52.5<41 294.8> 391.75 52.5<43 408>
LayerCount: 2
Fore
SplineSet
41 278.25 m 1x60
 405 275.25 l 1
 404 215.75 l 1xa0
 40 225.75 l 1
 41 278.25 l 1x60
43 444.25 m 1
 409 449.25 l 1
 408 385.75 l 1
 42 391.75 l 1
 43 444.25 l 1
EndSplineSet
EndChar

StartChar: k
Encoding: 75 107 20
Width: 578
Flags: W
HStem: 0 21G<151.83 217.159> 494 20G<467.812 509.917> 701.575 53.4268<28.6201 156.151>
VStem: 151.83 65.3291<0 701.575>
LayerCount: 2
Fore
SplineSet
492.25 514 m 1
 532 469 l 1
 264.25 254.25 l 1
 548 34.75 l 1
 508.5 -17 l 1
 177 256 l 1
 492.25 514 l 1
211.729492188 755.001953125 m 1
 217.159179688 0 l 1
 151.830078125 0 l 1
 156.151367188 701.575195312 l 1
 25 699.571289062 l 1
 28.6201171875 755.001953125 l 1
 211.729492188 755.001953125 l 1
EndSplineSet
Substitution2: "'ss06' Style Set 6 lookup 14-1" k.ss06
EndChar

StartChar: m
Encoding: 77 109 21
Width: 938
Flags: W
HStem: 0 21G<159.08 225.159> 443.821 53.1807<28.6201 163.401> 449.934 57<302.915 449.697 635.014 778.404>
VStem: 159.08 66.0791<0 445.825> 498 62.5<69.6833 392.195> 823 62.5<74.8147 400.839>
LayerCount: 2
Fore
SplineSet
512.5 268.93359375 m 1xbc
 530.168183593 417.618368638 602.668476563 506.93359375 718 506.93359375 c 0
 828.362123327 506.93359375 885.5 439.391601562 885.5 308.93359375 c 0
 885.5 149.623046875 867.659179688 -15 867.659179688 -15 c 1
 802.080078125 -6 l 1
 802.080078125 -6 823 160.270354688 823 296.93359375 c 0
 823 394.047991072 792.10789536 449.93359375 704.5 449.93359375 c 0
 628.295525704 449.93359375 564.840805402 390.738002598 543.5 239.43359375 c 1
 512.5 268.93359375 l 1xbc
183 283.93359375 m 1
 200.195675872 423.247479465 270.755268895 506.93359375 383 506.93359375 c 0
 492.45098712 506.93359375 560.5 439.391601562 560.5 308.93359375 c 0
 560.5 154.541015625 547.659179688 -5 547.659179688 -5 c 1
 483.330078125 0 l 1
 483.330078125 0 498 156.115926926 498 284.43359375 c 0
 498 389.481731546 467.10789536 449.93359375 379.5 449.93359375 c 0
 299.745627834 449.93359375 233.3349423 392.847109171 211 246.93359375 c 1
 183 283.93359375 l 1
219.729492188 497.001953125 m 1xdc
 225.159179688 0 l 1
 159.080078125 0 l 1
 163.401367188 445.825195312 l 1
 25 443.821289062 l 1
 28.6201171875 497.001953125 l 1
 219.729492188 497.001953125 l 1xdc
EndSplineSet
EndChar

StartChar: hyphen
Encoding: 13 45 23
Width: 380
Flags: W
HStem: 227.5 67<70.5 347> 235.5 58<33 307.5>
VStem: 33 316
LayerCount: 2
Fore
SplineSet
33 293.5 m 1x60
 349 294.5 l 1
 347 227.5 l 1xa0
 31 235.5 l 1
 33 293.5 l 1x60
EndSplineSet
EndChar

StartChar: three
Encoding: 19 51 24
Width: 581
Flags: W
HStem: -10.0664 63<105.77 369.057> 361.742 55.0077<251.97 388.374> 665.008 66<65 403.348>
VStem: 458.167 66.75<132.035 294.496>
LayerCount: 2
Fore
SplineSet
251.75 409 m 1
 256.180815255 409 277.961962309 417.598129191 320.749999334 416.749867341 c 0
 442.629800633 412.609547358 524.916992188 339.655610469 524.916992188 214.9921875 c 0
 524.916992188 67.54410938 424.583754399 -10.06640625 266.916992188 -10.06640625 c 0
 109.785564159 -10.06640625 43 34.0849609375 43 34.0849609375 c 1
 65.25 90 l 1
 65.25 90 140.751191801 52.93359375 245.916992188 52.93359375 c 0
 395.478379192 52.93359375 458.166992188 114.201525014 458.166992188 217.9921875 c 0
 458.166992188 303.136418269 397.879231133 361.7421875 294.166992188 361.7421875 c 0
 203.489220771 361.7421875 155.2578125 323.43359375 155.2578125 323.43359375 c 1
 129 364.5 l 1
 403.34765625 665.0078125 l 1
 58 663.0078125 l 1
 65 731.0078125 l 1
 494.016601562 731.0078125 l 1
 504.016601562 685.0078125 l 1
 251.75 409 l 1
EndSplineSet
Substitution2: "'onum' Oldstyle Figures lookup 27-1" three.osf
Substitution2: "'ss01' Style Set 1 lookup 9-1" three.ss01
Substitution2: "'frac' Diagonal Fractions in Latin lookup 26 subtable" three.numr
Substitution2: "'dnom' Denominators lookup 0 subtable" three.dnom
Substitution2: "'numr' Numerators lookup 0 subtable" three.numr
Substitution2: "'sinf' Scientific Inferiors lookup 0 subtable" three.inferior
Substitution2: "'sups' Superscript lookup 0 subtable" three.superior
EndChar

StartChar: eight
Encoding: 24 56 25
Width: 608
Flags: W
HStem: -10.0078 65.2393<201.085 411.542> 678.656 60.3359<216.441 399.043>
VStem: 55 65.0605<126.469 273.367> 89.1787 65.8711<489.215 624.57> 463.473 61.6846<474.766 618.619> 485.693 68.2354<119.484 262.573>
LayerCount: 2
Fore
SplineSet
301.000976562 55.2314453124 m 0xe4
 415.531625457 55.2314453124 485.693359375 105.511208019 485.693359375 187.586914062 c 0xe4
 485.693359375 260.932801965 442.1411435 315.474203395 296.251953125 357.353515625 c 0
 157.399153639 397.30273343 89.1787109375 457.872466987 89.1787109375 551 c 0
 89.1787109375 665.916474462 174.452310187 738.9921875 308.55078125 738.9921875 c 0
 441.289932084 738.9921875 525.157226562 671.184951818 525.157226562 548.861328125 c 0
 525.157226562 396.644544388 351.119384766 351.211425781 351.119384766 351.211425781 c 1
 313.894775391 383.846191406 l 1
 313.894775391 383.846191406 463.47265625 431.747082163 463.47265625 543.932617188 c 0
 463.47265625 627.71169836 404.693172318 678.65625 308.02734375 678.65625 c 0
 213.682071543 678.65625 155.049804688 630.784638005 155.049804688 553.754882812 c 0xd8
 155.049804688 494.147737845 185.469176599 455.751156838 318.245117188 412.71484375 c 0
 483.129365474 359.484357489 553.928710938 305.935134337 553.928710938 191.379882812 c 0
 553.928710938 65.8443178038 460.40247997 -10.0078125 305.616210938 -10.0078125 c 0
 155.102964216 -10.0078125 55 72.9892081911 55 197.782226562 c 0
 55 362.561904289 246.744873047 416.521240234 246.744873047 416.521240234 c 1
 284.405029297 381.821044922 l 1
 284.405029297 381.821044922 120.060546875 324.980594322 120.060546875 202.444335938 c 0
 120.060546875 113.298837443 191.431598949 55.2314453124 301.000976562 55.2314453124 c 0xe4
EndSplineSet
Substitution2: "'onum' Oldstyle Figures lookup 27-1" eight.osf
Substitution2: "'frac' Diagonal Fractions in Latin lookup 26 subtable" eight.numr
Substitution2: "'dnom' Denominators lookup 0 subtable" eight.dnom
Substitution2: "'numr' Numerators lookup 0 subtable" eight.numr
Substitution2: "'sinf' Scientific Inferiors lookup 0 subtable" eight.inferior
Substitution2: "'sups' Superscript lookup 0 subtable" eight.superior
EndChar

StartChar: g
Encoding: 71 103 26
Width: 603
Flags: W
HStem: -196.994 59.6807<170.673 299.32> 19.9336 56.25<180.69 357.829> 451.184 55.75<176.076 355.197>
VStem: 30 60.75<166.689 362.944> 460.922 63.0781<-20.4775 497.764>
LayerCount: 2
Back
SplineSet
382.270507812 -173.994140625 m 5
 387 496.93359375 l 5
 574.169921875 496.93359375 l 5xf8
 576.848632812 -23.0673828125 l 5
 672 -21.0634765625 l 5
 668.379882812 -173.994140625 l 5
 382.270507812 -173.994140625 l 5
EndSplineSet
Fore
SplineSet
445 262.93359375 m 0
 445 377.975668947 374.41734577 451.18359375 263.5 451.18359375 c 0
 157.929490523 451.18359375 90.75 378.753442384 90.75 264.93359375 c 0
 90.75 149.585315823 160.846110951 76.18359375 271 76.18359375 c 0
 377.333984375 76.18359375 445 148.807549231 445 262.93359375 c 0
491 272.93359375 m 0
 491 137.273503932 431.914010875 19.93359375 260 19.93359375 c 0
 119.443787692 19.93359375 30 114.044602687 30 261.93359375 c 0
 30 411.6565317 119.443787692 506.93359375 260 506.93359375 c 0
 401.167108342 506.93359375 491 415.934163046 491 272.93359375 c 0
524 83 m 0
 524 -35.5 485.416436759 -180.994140625 171.390625 -196.994140625 c 1
 165.270507812 -137.313476562 l 1
 429.211683303 -121.363982267 460.921875 -22.6777111793 460.921875 96.9326171875 c 0
 460.921875 282.38743918 455.600585938 497.93359375 455.600585938 497.93359375 c 1
 455.600585938 497.93359375 517.270507812 498.68359375 517.270507812 497.93359375 c 1
 517.270507812 497.93359375 524 247 524 83 c 0
EndSplineSet
Substitution2: "'ss05' Style Set 5 lookup 13-1" g.ss05
EndChar

StartChar: u
Encoding: 85 117 27
Width: 633
Flags: W
HStem: -9.93164 57<179.411 347.76> 0 51.1768<492.849 604.38> 477.002 20G<80.8408 141.17 435.31 490.29>
VStem: 60 61<111.81 453.008> 430.771 62.0781<183.068 497.002>
LayerCount: 2
Fore
SplineSet
430.770507812 0 m 1x78
 435.5 497.001953125 l 1
 490.169921875 497.001953125 l 1
 492.848632812 51.1767578125 l 1
 608 53.1806640625 l 1
 604.379882812 0 l 1
 430.770507812 0 l 1x78
472.5 183.068359375 m 1
 446.977941176 81.4789272702 386.097225414 -9.931640625 246.75 -9.931640625 c 0
 128.017547607 -9.931640625 60 63.1000972331 60 221 c 0
 60 353.02586642 80.8408203125 509.001953125 80.8408203125 509.001953125 c 1
 141.169921875 503.751953125 l 1
 141.169921875 503.751953125 121 353.536168988 121 230.068359375 c 0
 121 113.910406069 156.453238226 47.068359375 257 47.068359375 c 0xb8
 363.878541379 47.068359375 415.076923075 110.214599719 444.5 220.068359375 c 1
 472.5 183.068359375 l 1
EndSplineSet
EndChar

StartChar: exclam
Encoding: 1 33 28
Width: 256
Flags: W
HStem: -10 94<87.1611 168.839> 711 20G<91 165>
VStem: 81 94<-3.8389 77.8389> 91 74<389.522 731>
LayerCount: 2
Fore
SplineSet
91 731 m 1xd0
 165 731 l 1
 153.5 170 l 1
 153.5 170 146.417808219 173.384765625 130 173.384765625 c 0
 111.365384615 173.384765625 101.5 169.5 101.5 169.5 c 1
 91 731 l 1xd0
81 37 m 0xe0
 81 65.7224076707 99.2775923296 84 128 84 c 0
 156.72240767 84 175 65.7224076707 175 37 c 0
 175 8.27759232957 156.72240767 -10 128 -10 c 0
 99.2775923296 -10 81 8.27759232957 81 37 c 0xe0
EndSplineSet
Substitution2: "'ss16' Style Set 16 lookup 26-1" exclam.ss16
EndChar

StartChar: r
Encoding: 82 114 29
Width: 478
Flags: W
HStem: 0 21G<159.08 225.159> 445.825 51.1768<28.6201 163.401> 496.934 20G<396.631 440.873>
VStem: 159.08 66.0791<0 327.107 377.697 445.825>
LayerCount: 2
Fore
SplineSet
429.5 516.93359375 m 1xb0
 460.068359375 463.176757812 l 1
 208.962890625 327.107421875 l 1
 200.669921875 377.697265625 l 1
 429.5 516.93359375 l 1xb0
219.729492188 497.001953125 m 1xd0
 225.159179688 0 l 1
 159.080078125 0 l 1
 163.401367188 445.825195312 l 1
 25 443.821289062 l 1
 28.6201171875 497.001953125 l 1
 219.729492188 497.001953125 l 1xd0
EndSplineSet
Substitution2: "'ss07' Style Set 7 lookup 15-1" r.ss07
EndChar

StartChar: f
Encoding: 70 102 30
Width: 433
Flags: W
HStem: 0 21G<160.335 226.137> 443.75 53.25<45 378> 740.624 57.2197<272.136 328.391>
VStem: 129.869 63.2832<502.615 677.022> 162.994 59.1436<0 536.515>
LayerCount: 2
Fore
SplineSet
45 497 m 1xe0
 190 495.25 l 1
 380 500 l 1
 378 439 l 1
 187 445 l 1
 42 443.75 l 1
 45 497 l 1xe0
162.984375 412.096679688 m 2
 162.990869549 413.10685859 162.994140625 414.107770821 162.994140625 415.099609375 c 0xe8
 162.994140625 510.231961496 129.869140625 534.735355724 129.869140625 610 c 0
 129.869140625 723.315651031 201.317184303 771.990528928 327.01953125 797.84375 c 1
 338.2265625 740.624023438 l 1
 232.671257172 717.625484126 193.15234375 678.258794912 193.15234375 604.25 c 0xf0
 193.15234375 550.225534784 221.216435005 499.389769498 222.137695312 399.96484375 c 2xe8
 226.13671875 0 l 1
 160.334960938 0 l 1
 162.984375 412.096679688 l 2
EndSplineSet
EndChar

StartChar: one
Encoding: 17 49 32
Width: 356
Flags: W
HStem: 0 21G<205.33 275.409> 671.084 59.9268<55.3701 209.651>
VStem: 205.33 70.0791<0 671.084>
LayerCount: 2
Fore
SplineSet
269.979492188 731.010742188 m 1
 275.409179688 0 l 1
 205.330078125 0 l 1
 209.651367188 671.083984375 l 1
 51.75 669.080078125 l 1
 55.3701171875 731.010742188 l 1
 269.979492188 731.010742188 l 1
EndSplineSet
Substitution2: "'onum' Oldstyle Figures lookup 27-1" one.osf
Substitution2: "'frac' Diagonal Fractions in Latin lookup 26 subtable" one.numr
Substitution2: "'dnom' Denominators lookup 0 subtable" one.dnom
Substitution2: "'numr' Numerators lookup 0 subtable" one.numr
Substitution2: "'sinf' Scientific Inferiors lookup 0 subtable" one.inferior
Substitution2: "'sups' Superscript lookup 0 subtable" one.superior
EndChar

StartChar: zero
Encoding: 16 48 33
Width: 675
Flags: W
HStem: -10.0664 64.1006<238.908 435.282> 674.833 64.1006<241.67 432.501>
VStem: 33 64.9873<222.845 502.965> 577.013 64.9873<222.845 502.965>
LayerCount: 2
Fore
SplineSet
97.9873046876 361.704101562 m 0
 97.9873046876 173.683242335 190.818329386 54.0341796876 336.697265625 54.0341796876 c 0
 483.557318707 54.0341796876 577.012695312 173.683242335 577.012695312 361.704101562 c 0
 577.012695312 553.06176151 483.557318707 674.833007812 336.697265625 674.833007812 c 0
 190.818329386 674.833007812 97.9873046876 553.06176151 97.9873046876 361.704101562 c 0
33 361.93359375 m 0
 33 592.322641811 151.222093871 738.93359375 337 738.93359375 c 0
 523.389273711 738.93359375 642 592.322641811 642 361.93359375 c 0
 642 134.599173678 523.389273711 -10.06640625 337 -10.06640625 c 0
 151.222093871 -10.06640625 33 134.599173678 33 361.93359375 c 0
EndSplineSet
Substitution2: "'onum' Oldstyle Figures lookup 27-1" zero.osf
Substitution2: "'frac' Diagonal Fractions in Latin lookup 26 subtable" zero.numr
Substitution2: "'dnom' Denominators lookup 0 subtable" zero.dnom
Substitution2: "'numr' Numerators lookup 0 subtable" zero.numr
Substitution2: "'sinf' Scientific Inferiors lookup 0 subtable" zero.inferior
Substitution2: "'sups' Superscript lookup 0 subtable" zero.superior
EndChar

StartChar: uni0237
Encoding: 424 567 35
Width: 310
Flags: W
HStem: 445.039 51.9718<28.3201 162.696>
VStem: 160.58 64.8791<12.65 445.039>
LayerCount: 2
Fore
SplineSet
220.029492188 497.010742188 m 1
 225.459179688 0 l 1
 94.3 -184 l 1
 40.4 -147.4 l 1
 160.580078125 12.65 l 1
 162.696367188 445.038984375 l 1
 24.7 443.035078125 l 1
 28.3201171875 497.010742188 l 1
 220.029492188 497.010742188 l 1
EndSplineSet
EndChar

StartChar: y
Encoding: 89 121 36
Width: 593
Flags: W
HStem: 491 20G<23.8298 182.506 488.832 558.095>
LayerCount: 2
Fore
SplineSet
332.373369438 48.8137725 m 1
 320.45744 6.17024 l 1
 284.834324688 6.17024 l 1
 129.832199188 451.180768 l 1
 28.1097064375 440.797792 l 1
 23.82976 497 l 1
 175.727771 511 l 1
 332.373369438 48.8137725 l 1
319.400730938 39.04728375 m 2
 496.329768875 511 l 1
 558.620435312 490.82976 l 1
 376.909353875 26.3239640937 l 2
 323.09933316 -112.037198348 238.25536 -211.17024 238.25536 -211.17024 c 1
 189.74464 -176.440924625 l 1
 189.74464 -176.440924625 271.367498555 -88.8552486444 319.400730938 39.04728375 c 2
EndSplineSet
Substitution2: "'ss08' Style Set 8 lookup 16-1" y.ss08
EndChar

StartChar: x
Encoding: 88 120 37
Width: 562
Flags: W
HStem: 494 20G<93.451 179.632 458.42 502.4>
LayerCount: 2
Fore
SplineSet
472.651466688 514 m 1
 526.704746688 477.65952 l 1
 354.800522688 251 l 1
 541.704746688 23.106432 l 1
 490.577002688 -17 l 1
 285.513194688 251 l 1
 472.651466688 514 l 1
135.070716812 448.436463875 m 1
 38.63005075 420.12152025 l 1
 23.82976 474.8359375 l 1
 166.109034688 514 l 1
 343.938794688 251 l 1
 134.034570688 -17 l 1
 80.8323626875 22.414944 l 1
 274.651466688 251 l 1
 135.070716812 448.436463875 l 1
EndSplineSet
EndChar

StartChar: S
Encoding: 51 83 38
Width: 487
Flags: W
HStem: 718.393 20G<364.69 366.916>
VStem: 47.5 70.0186<476.124 587.717> 368.621 71.2148<143.992 267.217>
LayerCount: 2
Fore
SplineSet
364.690429688 738.392578125 m 1
 371.541015625 676.842773438 l 1
 371.541015625 676.842773438 117.518554688 663.97645984 117.518554688 532.18359375 c 0
 117.518554688 480.667267984 148.426428695 448.533819661 286.284179688 385.900390625 c 0
 398.182089131 335.050055598 439.8359375 291.501451567 439.8359375 208.544921875 c 0
 439.8359375 -14.930083705 86.4423828125 -19.8779296875 86.4423828125 -19.8779296875 c 1
 79.720703125 44.1826171875 l 1
 79.720703125 44.1826171875 368.62109375 60.13181308 368.62109375 203.5 c 0
 368.62109375 255.359074364 348.0202778 291.379859808 221.401367188 343.905273438 c 0
 88.0879894983 399.193533078 47.5 453.164799649 47.5 523.68359375 c 0
 47.5 732.959005444 364.690429688 738.392578125 364.690429688 738.392578125 c 1
EndSplineSet
EndChar

StartChar: v
Encoding: 86 118 39
Width: 593
Flags: W
HStem: 0 21G<277.963 374.758> 491 20G<23.8298 175.728 496.33 558.095>
LayerCount: 2
Fore
SplineSet
366.947901875 0 m 1
 284.834324688 0 l 1
 129.832199188 451.180768 l 1
 28.1097064375 440.797792 l 1
 23.82976 497 l 1
 175.727771 511 l 1
 175.727771 511 326.522297438 60.1967485 326.522297438 60.1967485 c 1
 326.522297438 60.1967485 496.329768875 511 496.329768875 511 c 1
 558.620435312 490.82976 l 1
 366.947901875 0 l 1
EndSplineSet
EndChar

StartChar: w
Encoding: 87 119 40
Width: 862
Flags: W
HStem: 0 21G<280.027 371.813 573.553 665.087> 491 20G<23.8298 182.501 483.851 550.402 769.536 831.474>
LayerCount: 2
Fore
SplineSet
364.171293875 0 m 1
 286.993908688 0 l 1
 129.832199188 451.180768 l 1
 28.1097064375 440.797792 l 1
 23.82976 497 l 1
 175.727771 511 l 1
 327.139321438 63.8988925 l 1
 491.021256875 521 l 1
 555.014067312 499.446784 l 1
 364.171293875 0 l 1
657.564925875 0 m 1
 581.621588688 0 l 1
 447.981127188 331.25536 l 1
 487.34048 407.361792 l 1
 620.532953438 65.7499645 l 1
 776.712744875 501 l 1
 837.620435312 478.755296 l 1
 657.564925875 0 l 1
EndSplineSet
EndChar

StartChar: six
Encoding: 22 54 41
Width: 619
Flags: W
HStem: -10 62.3584<222.456 410.704> 424.009 59.7178<222.803 407.284> 681.533 67.459<362.349 488.953>
VStem: 55 76.625<158.203 397.042> 498.375 64.9414<140.611 335.222>
LayerCount: 2
Back
SplineSet
498.310546875 748.9921875 m 1
 512 637.533203125 l 1
 175.065365254 610.146952891 170.458007812 416.932617188 170.458007812 416.932617188 c 1
 170.458007812 416.932617188 215.209080523 483.7265625 336.600585938 483.7265625 c 0
 472.674581172 483.7265625 572.31640625 388.819152798 572.31640625 245.249023438 c 0
 572.31640625 100.798835154 490.925518401 -10 316.310546875 -10 c 0
 170.896357089 -10 45 80.6409024463 45 300.348632812 c 4
 45 516.020480109 153.586977651 728.185507446 498.310546875 748.9921875 c 1
176.375 242.858398438 m 0
 176.375 154.857510653 229.905346038 98.8583984375 314.025390625 98.8583984375 c 0
 398.725511696 98.8583984375 452.625 154.857510653 452.625 242.858398438 c 0
 452.625 329.728081597 398.725511696 385.008789062 314.025390625 385.008789062 c 0
 229.905346038 385.008789062 176.375 329.728081597 176.375 242.858398438 c 0
EndSplineSet
Fore
SplineSet
488.310546875 748.9921875 m 1
 494.5 681.533203125 l 1
 130.99548031 664.158735609 125.458007812 386.932617188 125.458007812 386.932617188 c 1
 125.458007812 386.932617188 173.694510731 483.7265625 329.600585938 483.7265625 c 0
 464.647840254 483.7265625 563.31640625 387.028278297 563.31640625 240.749023438 c 0
 563.31640625 108.669170754 494.549702653 -10 316.310546875 -10 c 0
 159.82381046 -10 55 92.3932717408 55 306.348632812 c 0
 55 519.13616121 158.796134888 728.463768616 488.310546875 748.9921875 c 1
131.625 238.358398438 m 0
 131.625 124.690585049 203.335778842 52.3583984375 316.025390625 52.3583984375 c 0
 431.961736376 52.3583984375 498.375 124.690585049 498.375 238.358398438 c 0
 498.375 351.811414931 427.461736376 424.008789062 316.025390625 424.008789062 c 0
 203.335778842 424.008789062 131.625 351.811414931 131.625 238.358398438 c 0
EndSplineSet
Substitution2: "'onum' Oldstyle Figures lookup 27-1" six.osf
Substitution2: "'frac' Diagonal Fractions in Latin lookup 26 subtable" six.numr
Substitution2: "'dnom' Denominators lookup 0 subtable" six.dnom
Substitution2: "'numr' Numerators lookup 0 subtable" six.numr
Substitution2: "'sinf' Scientific Inferiors lookup 0 subtable" six.inferior
Substitution2: "'sups' Superscript lookup 0 subtable" six.superior
EndChar

StartChar: z
Encoding: 90 122 42
Width: 461
Flags: W
HStem: 0 58.25<121.419 415.017> 439 58<46 324.848>
LayerCount: 2
Fore
SplineSet
40 439 m 1
 46 497 l 1
 401.766601562 497 l 1
 411.016601562 457.25 l 1
 121.418945312 58.25 l 1
 421.016601562 60.5 l 1
 415.016601562 0 l 1
 43.5 0 l 1
 32 40.25 l 1
 324.84765625 440.5 l 1
 40 439 l 1
EndSplineSet
EndChar

StartChar: O
Encoding: 47 79 43
Width: 785
Flags: W
HStem: -10.0664 66.8506<276.366 501.535> 672.083 66.8506<276.366 501.535>
VStem: 44.5 66.4873<234.563 491.06> 674.013 66.4873<234.563 491.06>
LayerCount: 2
Back
SplineSet
295.487304688 361.704101562 m 0
 295.487304688 247.780273438 320.957605563 175.284179688 376.697265625 175.284179688 c 0
 439.529183996 175.284179688 469.512695312 247.780273438 469.512695312 361.704101562 c 0
 469.512695312 478.963867188 439.529183996 553.583007812 376.697265625 553.583007812 c 0
 320.957605563 553.583007812 295.487304688 478.963867188 295.487304688 361.704101562 c 0
90 361.93359375 m 0
 90 592.322265625 195.499874605 738.93359375 377 738.93359375 c 0
 565.222610829 738.93359375 675 592.322265625 675 361.93359375 c 0
 675 134.599609375 565.222610829 -10.06640625 377 -10.06640625 c 0
 195.499874605 -10.06640625 90 134.599609375 90 361.93359375 c 0
EndSplineSet
Fore
SplineSet
110.987304688 361.704101562 m 0
 110.987304688 174.237483085 224.197089394 56.7841796876 386.697265625 56.7841796876 c 0
 556.506446068 56.7841796876 674.012695312 174.237483085 674.012695312 361.704101562 c 0
 674.012695312 552.491876037 556.506446068 672.083007812 386.697265625 672.083007812 c 0
 224.197089394 672.083007812 110.987304688 552.491876037 110.987304688 361.704101562 c 0
44.5 361.93359375 m 0
 44.5 592.322641811 177.694299839 738.93359375 387 738.93359375 c 0
 603.028223792 738.93359375 740.5 592.322641811 740.5 361.93359375 c 0
 740.5 134.599173678 603.028223792 -10.06640625 387 -10.06640625 c 0
 177.694299839 -10.06640625 44.5 134.599173678 44.5 361.93359375 c 0
EndSplineSet
EndChar

StartChar: L
Encoding: 44 76 44
Width: 620
Flags: W
HStem: 0 66.293<234.064 581.539> 665.084 65.9258<46.1201 163.151>
VStem: 158.43 75.6348<66.293 665.084>
LayerCount: 2
Fore
SplineSet
234.064453125 66.29296875 m 1
 585.159179688 67.9306640624 l 1
 581.5390625 0 l 1
 158.4296875 0 l 1
 163.151367188 665.083984375 l 1
 42.5 663.080078125 l 1
 46.1201171875 731.010742188 l 1
 229.729492188 731.009765625 l 1
 234.064453125 66.29296875 l 1
EndSplineSet
EndChar

StartChar: K
Encoding: 43 75 45
Width: 712
Flags: W
HStem: 0 21G<158.83 235.159> 665.084 65.9268<43.6201 163.151>
VStem: 158.83 76.3291<0 665.084>
LayerCount: 2
Fore
SplineSet
229.729492188 731.010742188 m 1
 235.159179688 0 l 1
 158.830078125 0 l 1
 163.151367188 665.083984375 l 1
 40 663.080078125 l 1
 43.6201171875 731.010742188 l 1
 229.729492188 731.010742188 l 1
592.5 745.0078125 m 1
 647 693.2578125 l 1
 288.5 360.5 l 1
 672 30.5 l 1
 623 -27 l 1
 191.5 359 l 1
 592.5 745.0078125 l 1
EndSplineSet
EndChar

StartChar: J
Encoding: 42 74 46
Width: 370
Flags: W
HStem: 665.084 65.9268<48.6201 213.151>
VStem: 208.83 76.3291<45 665.084>
LayerCount: 2
Fore
SplineSet
279.729492188 731.010742188 m 1
 285.159179688 30 l 1
 107 -187 l 1
 48.5 -142.25 l 1
 208.830078125 45 l 1
 213.151367188 665.083984375 l 1
 45 663.080078125 l 1
 48.6201171875 731.010742188 l 1
 279.729492188 731.010742188 l 1
EndSplineSet
Substitution2: "'ss12' Style Set 12 lookup 20-1" J.ss12
EndChar

StartChar: H
Encoding: 40 72 47
Width: 780
Flags: W
HStem: 0 21G<158.83 235.159 603.83 680.159> 307.5 67<220.017 626.5> 314.75 58<209.5 611.983> 665.084 65.9268<48.6201 163.151 493.62 608.151>
VStem: 158.83 76.3291<0 314.75 372.75 665.084> 603.83 76.3291<0 307.5 374.5 665.084>
LayerCount: 2
Back
SplineSet
252 393 m 1xb6
 608 397 l 1
 604 285 l 1xd6
 248 296 l 1
 252 393 l 1xb6
704.729492188 731.010742188 m 1
 710.159179688 0 l 1
 573.830078125 0 l 1
 578.151367188 620.083984375 l 1
 440 618.080078125 l 5
 443.620117188 731.010742188 l 5
 704.729492188 731.010742188 l 1
294.729492188 731.010742188 m 1
 300.159179688 0 l 1
 163.830078125 0 l 1x9a
 168.151367188 620.083984375 l 1
 30 618.080078125 l 5
 33.6201171875 731.010742188 l 5
 294.729492188 731.010742188 l 1
EndSplineSet
Fore
SplineSet
209.5 372.75 m 1xbc
 630.5 374.5 l 1
 626.5 307.5 l 1xdc
 205.5 314.75 l 1
 209.5 372.75 l 1xbc
674.729492188 731.010742188 m 1
 680.159179688 0 l 1
 603.830078125 0 l 1
 608.151367188 665.083984375 l 1
 490 663.080078125 l 1
 493.620117188 731.010742188 l 1
 674.729492188 731.010742188 l 1
229.729492188 731.010742188 m 1
 235.159179688 0 l 1
 158.830078125 0 l 1
 163.151367188 665.083984375 l 1
 45 663.080078125 l 1
 48.6201171875 731.010742188 l 1
 229.729492188 731.010742188 l 1
EndSplineSet
EndChar

StartChar: backslash
Encoding: 60 92 48
Width: 497
Flags: W
LayerCount: 2
Back
SplineSet
506 -123.994140625 m 1
 317 -175.994140625 l 1
 178.016601562 331 l 1
 1 763.001953125 l 1
 190 815.001953125 l 1
 308.362304688 379 l 1
 506 -123.994140625 l 1
EndSplineSet
Fore
SplineSet
433.5 -148.994140625 m 1
 379.5 -165.994140625 l 1
 63.5 788.001953125 l 1
 117.5 805.001953125 l 1
 433.5 -148.994140625 l 1
EndSplineSet
EndChar

StartChar: F
Encoding: 38 70 49
Width: 620
Flags: W
HStem: 0 21G<158.83 235.159> 294 60.25<182 536.25> 663.08 67.9307<48.6201 163.151 231.104 578.729>
VStem: 158.83 76.3291<0 294 354.25 663>
LayerCount: 2
Fore
SplineSet
182 354.25 m 1
 538 354.5 l 1
 536.25 287.5 l 1
 178 294 l 1
 182 354.25 l 1
578.729492188 731.010742188 m 1
 584.61328125 659 l 1
 231.103515625 663 l 1
 235.159179688 0 l 1
 158.830078125 0 l 1
 163.151367188 665.083984375 l 1
 45 663.080078125 l 1
 48.6201171875 731.010742188 l 1
 578.729492188 731.010742188 l 1
EndSplineSet
EndChar

StartChar: E
Encoding: 37 69 50
Width: 620
Flags: W
HStem: 0 66.4805<234.018 586.539> 337 60.25<182 535.5> 663.08 67.9307<48.6201 163.151 231.104 578.729>
VStem: 158.43 75.5879<66.4805 337 397.25 663>
LayerCount: 2
Fore
SplineSet
182 397.25 m 1
 538 397.5 l 1
 535.5 330.5 l 1
 178 337 l 1
 182 397.25 l 1
578.729492188 731.010742188 m 1
 584.61328125 659 l 1
 231.103515625 663 l 1
 234.017578125 66.48046875 l 1
 319.064453125 66.29296875 l 1
 590.159179688 67.9306640624 l 1
 586.5390625 0 l 1
 158.4296875 0 l 1
 163.151367188 665.083984375 l 1
 45 663.080078125 l 1
 48.6201171875 731.010742188 l 1
 578.729492188 731.010742188 l 1
EndSplineSet
Substitution2: "'ss15' Style Set 15 lookup 23-1" E.ss15
EndChar

StartChar: N
Encoding: 46 78 51
Width: 790
Flags: W
HStem: -10 21G<614.303 705.539> 0 21G<170.21 238.789> 663.08 67.9307<48.9286 155.519>
VStem: 170.21 68.5791<0 619.543> 633.401 72.1377<105.139 731.011>
LayerCount: 2
Fore
SplineSet
700.109375 731.010742188 m 1x78
 705.5390625 0 l 1x78
 626.709960938 -10 l 1xb8
 236.17578125 619.54296875 l 1
 238.7890625 0 l 1
 170.209960938 0 l 1
 174.53125 671.333984375 l 1
 49.3798828125 663.080078125 l 1
 45 731.010742188 l 1
 243.609375 741.010742188 l 1
 633.401367188 105.138671875 l 1
 637.25 731.010742188 l 1
 700.109375 731.010742188 l 1x78
EndSplineSet
EndChar

StartChar: bar
Encoding: 92 124 52
Width: 246
Flags: W
VStem: 92.5 61.3291<-170 788.992>
LayerCount: 2
Back
SplineSet
220.899414062 788.9921875 m 1
 193.418945312 334 l 1
 226.329101562 -170 l 1
 30 -170 l 1
 63.3330078125 338 l 1
 36.169921875 788.9921875 l 1
 220.899414062 788.9921875 l 1
EndSplineSet
Fore
SplineSet
149.899414062 788.9921875 m 1
 153.829101562 -170 l 1
 92.5 -170 l 1
 97.169921875 788.9921875 l 1
 149.899414062 788.9921875 l 1
EndSplineSet
EndChar

StartChar: U
Encoding: 53 85 53
Width: 767
Flags: W
HStem: -10 69.5<325.854 528.903> 665.084 65.9268<48.6201 170.151 491.12 614.901>
VStem: 158.517 70.8926<164.609 525.461> 623.58 69.0615<161.735 514.607>
LayerCount: 2
Fore
SplineSet
692.641601562 270.946289062 m 0
 692.641601562 85.0810974478 593.968934621 -10 428.830078125 -10 c 0
 252.660619046 -10 158.516601562 84.5172625506 158.516601562 290.099609375 c 0
 158.516601562 436.479697245 170.151367188 665.083984375 170.151367188 665.083984375 c 1
 45 663.080078125 l 1
 48.6201171875 731.010742188 l 1
 237.979492188 731.010742188 l 1
 237.979492188 731.010742188 229.409179688 403.488572129 229.409179688 289 c 0
 229.409179688 152.305527907 281.479687816 59.5 430 59.5 c 0
 564.971954445 59.5 623.580078125 142.939852203 623.580078125 289 c 0
 623.580078125 434.378083362 614.901367188 665.083984375 614.901367188 665.083984375 c 1
 487.5 663.080078125 l 1
 491.120117188 731.010742188 l 1
 679.729492188 731.010742188 l 1
 679.729492188 731.010742188 692.641601562 450.456085293 692.641601562 270.946289062 c 0
EndSplineSet
EndChar

StartChar: A
Encoding: 33 65 54
Width: 670
Flags: W
HStem: 194.25 66.25<187.812 515.5> 202.25 64.25<144.5 471.688> 655.319 65.6807<92.8193 267.449> 662.612 68.3877<173.822 274.758>
LayerCount: 2
Fore
SplineSet
144.5 266.5 m 1x40
 515.5 260.5 l 1
 519 194.25 l 1x80
 140.5 202.25 l 1
 144.5 266.5 l 1x40
274.7578125 662.612304688 m 1x10
 92.8193359379 655.319335938 l 1
 91.439453125 721 l 1x20
 366.048828125 731 l 1
 643.450195312 3.6611328125 l 1
 576.926757812 -15 l 1
 333.818359375 644.3671875 l 1
 90.0693359376 -15 l 1
 25.2734375 6.25 l 1
 274.7578125 662.612304688 l 1x10
EndSplineSet
Substitution2: "'fina' Terminal Forms lookup 25-1" A.fina
Substitution2: "'init' Initial Forms lookup 24-1" A.init
Substitution2: "'ss14' Style Set 14 lookup 22-1" A.ss14
EndChar

StartChar: B
Encoding: 34 66 55
Width: 739
Flags: W
HStem: -10.0664 65<237.813 537.965> 335.742 58.9414<209.296 507.863> 675.242 63.75<190.151 498.854>
VStem: 164 72.7139<75.7461 333.184 399.627 684.25> 584.167 70.75<457.756 604.817> 622.167 72.75<122.666 264.478>
LayerCount: 2
Fore
SplineSet
209.196289062 399.626953125 m 1xf4
 209.196289062 399.626953125 258.078818249 394.68359375 380.416992188 394.68359375 c 0
 523.728454587 394.68359375 584.166992188 447.358387157 584.166992188 524.483398438 c 0
 584.166992188 620.309108597 517.433298633 675.2421875 375.666992188 675.2421875 c 0
 192.254741291 675.2421875 58.51953125 597.427734375 58.51953125 597.427734375 c 1
 33 664.840820312 l 1
 33 664.840820312 138.558977041 738.9921875 386.916992188 738.9921875 c 0
 550.694869213 738.9921875 654.916992188 656.33104344 654.916992188 526.43359375 c 0xf8
 654.916992188 403.308301782 535.525390625 370.96875 535.525390625 370.96875 c 1
 535.525390625 370.96875 694.916992188 341.914545809 694.916992188 191.7421875 c 0
 694.916992188 68.4143962744 590.694869213 -10.06640625 426.916992188 -10.06640625 c 0
 242.417718452 -10.06640625 164 24.0849609375 164 24.0849609375 c 1
 169.940429688 684.25 l 1
 234.669921875 684.25 l 1
 236.713867188 75.74609375 l 1
 236.713867188 75.74609375 277.769947511 54.93359375 412.916992188 54.93359375 c 0
 546.989653639 54.93359375 622.166992188 105.627762769 622.166992188 194.9921875 c 0
 622.166992188 272.4046875 565.521417773 335.7421875 400.5 335.7421875 c 0
 261.254941761 335.7421875 209.2578125 333.18359375 209.2578125 333.18359375 c 1
 209.196289062 399.626953125 l 1xf4
EndSplineSet
EndChar

StartChar: C
Encoding: 35 67 56
Width: 651
Flags: W
HStem: -10.0664 67.5<276.878 549.251> 676.242 62.75<286.483 528.184>
VStem: 44.5 70.25<227.092 491.764>
LayerCount: 2
Fore
SplineSet
44.5 361.93359375 m 0
 44.5 592.358449127 181.583184506 738.9921875 397 738.9921875 c 0
 571.675165443 738.9921875 645.916992188 662.840820312 645.916992188 662.840820312 c 1
 614.897460938 611.677734375 l 1
 614.897460938 611.677734375 530.787158066 676.2421875 400 676.2421875 c 0
 225.67948826 676.2421875 114.75 554.012825682 114.75 361.93359375 c 0
 114.75 175.849599607 211.427819823 57.43359375 400.5 57.43359375 c 0
 554.265297735 57.43359375 632.1484375 117.864257812 632.1484375 117.864257812 c 1
 661.146484375 62.31640625 l 1
 661.146484375 62.31640625 594.321700857 -10.06640625 387 -10.06640625 c 0
 177.694299839 -10.06640625 44.5 134.599173678 44.5 361.93359375 c 0
EndSplineSet
EndChar

StartChar: D
Encoding: 36 68 57
Width: 783
Flags: W
HStem: -10.0664 69.75<239.654 507.893> 672.742 66.25<187.619 501.445>
VStem: 169.94 64.7295<78.3467 673> 668.917 70<227.583 499.082>
LayerCount: 2
Fore
SplineSet
738.916992188 361.93359375 m 0
 738.916992188 134.599609375 605.917304031 -10.06640625 396.916992188 -10.06640625 c 0
 220.60162524 -10.06640625 163.770507812 33.56640625 163.770507812 33.56640625 c 1
 169.940429688 673 l 1
 234.669921875 673 l 1
 238.002929688 78.3466796876 l 1
 238.002929688 78.3466796876 302.669617661 59.68359375 386.916992188 59.68359375 c 0
 573.508084452 59.68359375 668.916992188 177.223761161 668.916992188 361.93359375 c 0
 668.916992188 551.873694046 572.074721825 672.7421875 373.916992188 672.7421875 c 0
 181.965581491 672.7421875 58.51953125 597.427734375 58.51953125 597.427734375 c 1
 33 664.840820312 l 1
 33 664.840820312 138.558977041 738.9921875 386.916992188 738.9921875 c 0
 602.028623659 738.9921875 738.916992188 592.358398438 738.916992188 361.93359375 c 0
EndSplineSet
EndChar

StartChar: P
Encoding: 48 80 58
Width: 721
Flags: W
HStem: 0 21G<165.271 236.503> 222.434 66.25<267.726 515.272> 674.992 64<189.161 505.933>
VStem: 165.271 71.2324<0 273.684 336.877 684.25> 617.167 67.25<378.807 572.606>
LayerCount: 2
Fore
SplineSet
236.502929688 0 m 1
 165.270507812 0 l 1
 171.440429688 684.25 l 1
 233.169921875 684.25 l 1
 236.502929688 0 l 1
219.196289062 336.876953125 m 1
 219.196289062 336.876953125 269.430072978 288.68359375 399.416992188 288.68359375 c 0
 542.136886882 288.68359375 617.166992188 358.373542949 617.166992188 470.93359375 c 0
 617.166992188 607.568699321 540.111413474 674.9921875 369.916992188 674.9921875 c 0
 205.315764524 674.9921875 58.76953125 600.427734375 58.76953125 600.427734375 c 1
 33.25 664.840820312 l 1
 33.25 664.840820312 138.734412257 738.9921875 386.916992188 738.9921875 c 0
 570.453721787 738.9921875 684.416992188 640.681885429 684.416992188 468.93359375 c 0
 684.416992188 319.434794108 580.261221589 222.43359375 411.916992188 222.43359375 c 0
 278.242794035 222.43359375 197.7578125 273.68359375 197.7578125 273.68359375 c 1
 219.196289062 336.876953125 l 1
EndSplineSet
EndChar

StartChar: M
Encoding: 45 77 59
Width: 877
VWidth: 1111
Flags: W
HStem: 667.83 63.1807<45.75 183.817> 673.963 67.0479<108.603 183.817> 719.25 20G<678.876 759>
LayerCount: 2
Back
SplineSet
198.817382812 545.212890625 m 1
 93 539.080078125 l 1
 88.6201171875 731.010742188 l 1
 430.729492188 741.010742188 l 1
 483 547 l 1
 552 740 l 1
 766 731 l 1
 825 5 l 1
 613 -9 l 1
 584 361 l 5
 486 160 l 5
 390 352 l 5
 356 -6 l 1
 155 9 l 1
 198.817382812 545.212890625 l 1
EndSplineSet
Fore
SplineSet
183.817382812 673.962890625 m 1x40
 45.75 667.830078125 l 1
 43.6201171875 731.010742188 l 1x80
 260.229492188 741.010742188 l 1x40
 472.5 330.75 l 1
 689.5 739.25 l 1x20
 759 732.5 l 1
 818 -2.5 l 1
 744.5 -9 l 1
 701.25 619.75 l 1
 470 183.75 l 1
 247.75 610.75 l 1
 200.75 -6 l 1
 130 1.5 l 1
 183.817382812 673.962890625 l 1x40
EndSplineSet
Substitution2: "'fina' Terminal Forms lookup 25-1" M.fina
Substitution2: "'init' Initial Forms lookup 24-1" M.init
EndChar

StartChar: G
Encoding: 39 71 60
Width: 794
Flags: W
HStem: -10.0664 68.25<270.541 510.166> 301.319 64.1807<654.065 760.097> 674.992 64<288.875 536.966>
VStem: 44.5 70.25<227.467 491.725> 586.058 72.3291<-87.7607 303.323>
LayerCount: 2
Fore
SplineSet
591.487304688 365.5 m 1
 760.096679688 365.5 l 1
 763.716796875 301.319335938 l 1
 654.065429688 303.323242188 l 1
 658.38671875 -87.7607421875 l 1
 586.057617188 -87.7607421875 l 1
 591.487304688 365.5 l 1
44.5 361.93359375 m 0
 44.5 592.358449127 181.583184506 738.9921875 397 738.9921875 c 0
 571.675165443 738.9921875 645.916992188 662.840820312 645.916992188 662.840820312 c 1
 619.647460938 611.927734375 l 1
 619.647460938 611.927734375 537.591994306 674.9921875 410 674.9921875 c 0
 222.068339732 674.9921875 114.75 553.540592273 114.75 362.68359375 c 0
 114.75 176.599599607 212.273645019 58.18359375 385.75 58.18359375 c 0
 544.294020535 58.18359375 614.1484375 146.364257812 614.1484375 146.364257812 c 1
 646.146484375 107.31640625 l 1
 646.146484375 107.31640625 580.540479636 -10.06640625 377 -10.06640625 c 0
 173.805415172 -10.06640625 44.5 134.599173678 44.5 361.93359375 c 0
EndSplineSet
Substitution2: "'ss11' Style Set 11 lookup 19-1" G.ss11
EndChar

StartChar: T
Encoding: 52 84 61
Width: 590
Flags: W
HStem: 0 21G<251.83 328.159> 663 30<256.151 324.104> 663.08 67.9307<38.6201 256.151 324.104 543.729>
VStem: 251.83 76.3291<0 693>
LayerCount: 2
Fore
SplineSet
324.103515625 693 m 1xd0
 328.159179688 0 l 1
 251.830078125 0 l 1
 256.151367188 695.083984375 l 1
 324.103515625 693 l 1xd0
292.103515625 663 m 1
 35 663.080078125 l 1
 38.6201171875 731.010742188 l 1
 543.729492188 731.010742188 l 1xb0
 549.61328125 659 l 1
 292.103515625 663 l 1
EndSplineSet
EndChar

StartChar: V
Encoding: 54 86 62
Width: 774
Flags: W
HStem: 0 21G<382.586 478.58>
LayerCount: 2
Fore
SplineSet
471.107421875 0 m 1
 389.174804688 0 l 1
 165.401367188 679.25 l 1
 35.5458984375 666.75 l 1
 30 732 l 1
 215.796875 746 l 1
 433.405273438 74.3828125 l 1
 672.904296875 746 l 1
 742.450195312 726.25 l 1
 471.107421875 0 l 1
EndSplineSet
Substitution2: "'fina' Terminal Forms lookup 25-1" V.fina
Substitution2: "'init' Initial Forms lookup 24-1" V.init
EndChar

StartChar: W
Encoding: 55 87 63
Width: 1134
Flags: W
HStem: 0 21G<382.586 478.51 752.107 849.428> 716 20G<1029.83 1097.4>
LayerCount: 2
Fore
SplineSet
471.107421875 0 m 1
 389.174804688 0 l 1
 165.401367188 679.25 l 1
 35.5458984375 666.75 l 1
 30 732 l 1
 213.546875 746 l 1
 434.155273438 74.3828125 l 1
 673.904296875 759 l 1
 744.450195312 738.5 l 1
 471.107421875 0 l 1
842.107421875 0 m 1
 760.174804688 0 l 1
 585.5 433 l 1
 623.395507812 525.5 l 1
 802.905273438 74.3828125 l 1
 1036.90429688 736 l 1
 1103.45019531 714 l 1
 842.107421875 0 l 1
EndSplineSet
Substitution2: "'fina' Terminal Forms lookup 25-1" W.fina
Substitution2: "'init' Initial Forms lookup 24-1" W.init
EndChar

StartChar: Q
Encoding: 49 81 64
Width: 785
Flags: W
HStem: -10.0664 66.8506<276.366 501.535> 672.083 66.8506<276.366 501.535>
VStem: 44.5 66.4873<234.563 491.06> 674.013 66.4873<234.563 491.06>
LayerCount: 2
Fore
SplineSet
143.5 88 m 1
 792.5 -60 l 1
 776.75 -127 l 1
 129 35.25 l 1
 143.5 88 l 1
EndSplineSet
Refer: 43 79 N 1 0 0 1 0 0 2
Substitution2: "'ss10' Style Set 10 lookup 18-1" Q.ss10
EndChar

StartChar: underscore
Encoding: 63 95 65
Width: 580
Flags: W
HStem: -52 52<33 547>
LayerCount: 2
Fore
SplineSet
33 0 m 1
 549 4 l 1
 547 -57 l 1
 31 -52 l 1
 33 0 l 1
EndSplineSet
EndChar

StartChar: R
Encoding: 50 82 66
Width: 706
Flags: W
HStem: 0 21G<162.771 234.003> 260.955 52.9787<326.667 491.543> 674.992 64<182.828 482.739>
VStem: 162.771 71.2324<0 285.434 340.127 691.75> 596.917 67<406.486 577.351>
LayerCount: 2
Back
SplineSet
289.002929688 0 m 5xb8
 157.770507812 0 l 5
 163.940429688 669.25 l 1
 285.669921875 669.25 l 1
 289.002929688 0 l 5xb8
274.196289062 355.876953125 m 1
 274.196289062 355.876953125 298.311785784 334.93359375 373.916992188 334.93359375 c 0
 487.119605202 334.93359375 551.916992188 395.921142577 551.916992188 475.93359375 c 0
 551.916992188 563.722489841 489.063645233 617.9921875 353 617.9921875 c 0
 219.214256452 617.9921875 49.26953125 556.427734375 49.26953125 556.427734375 c 1
 18 674.840820312 l 1
 18 674.840820312 122.067681352 738.9921875 366.916992188 738.9921875 c 0xd8
 557.583984375 738.9921875 678.916992188 638.247073955 678.916992188 479.93359375 c 0
 678.916992188 277.943443494 474.740234375 245.040039062 474.740234375 245.040039062 c 1
 701.770507812 69 l 1
 625.770507812 -37 l 1
 235.2578125 285.43359375 l 1
 274.196289062 355.876953125 l 1
EndSplineSet
Fore
SplineSet
234.002929688 0 m 1
 162.770507812 0 l 1
 168.940429688 691.75 l 1
 230.669921875 691.75 l 1
 234.002929688 0 l 1
219.196289062 340.126953125 m 1
 219.196289062 340.126953125 258.970303664 313.93359375 383.666992188 313.93359375 c 0
 519.287538395 313.93359375 596.916992188 389.519226073 596.916992188 488.68359375 c 0
 596.916992188 603.817957294 519.133695755 674.9921875 350.75 674.9921875 c 0
 192.853273059 674.9921875 56.01953125 602.927734375 56.01953125 602.927734375 c 1
 33 667.340820312 l 1
 33 667.340820312 132.59379428 738.9921875 366.916992188 738.9921875 c 0
 548.417302058 738.9921875 663.916992188 642.330411539 663.916992188 490.43359375 c 0
 663.916992188 358.380853371 573.828111444 268.18883971 427.000000368 260.954915825 c 0
 369.870779066 256.075444857 323.740234375 263.040039062 323.740234375 263.040039062 c 1
 679.270507812 31.5 l 1
 637.770507812 -29.5 l 1
 187.7578125 285.43359375 l 1
 219.196289062 340.126953125 l 1
EndSplineSet
EndChar

StartChar: five
Encoding: 21 53 67
Width: 581
Flags: W
HStem: -10.0664 64.5<114.344 364.952> 401.242 63.2578<182.679 382.752> 664 67.0078<166.5 484.017>
VStem: 458.417 66.5<142.542 326.411>
LayerCount: 2
Back
SplineSet
529.016601562 549.0078125 m 5
 239 550 l 29
 224 471 l 21
 224 471 248.642857143 479 316 479 c 4
 492.46964774 479 559.916992188 386.635747331 559.916992188 246.9921875 c 4
 559.916992188 68.1744133844 445.97265625 -10.06640625 266.916992188 -10.06640625 c 4
 85.2246769868 -10.06640625 8 44.0849609375 8 44.0849609375 c 5
 50 207 l 5
 50 207 126.85984585 163.93359375 233.916992188 163.93359375 c 4
 305.791015625 163.93359375 340.916992188 195.456256431 340.916992188 244.9921875 c 4
 340.916992188 289.603298611 303.700683594 317.9921875 230.916992188 317.9921875 c 4
 164.966339317 317.9921875 125.2578125 288.43359375 125.2578125 288.43359375 c 5
 19 392 l 5
 80 731.0078125 l 5
 365 731.0078125 l 5
 362 798.0078125 l 5
 515.016601562 800.0078125 l 5
 529.016601562 549.0078125 l 5
EndSplineSet
Fore
SplineSet
484.016601562 663.0078125 m 1
 166.5 664 l 1
 126 410.5 l 1
 126 410.5 171.937500001 464.5 297.5 464.5 c 0
 452.351450062 464.5 524.916992188 366.746373334 524.916992188 236.9921875 c 0
 524.916992188 72.6307174514 422.542089677 -10.06640625 261.666992188 -10.06640625 c 0
 97.6936027322 -10.06640625 28 44.0849609375 28 44.0849609375 c 1
 49.25 102.25 l 1
 49.25 102.25 133.63213734 54.43359375 251.166992188 54.43359375 c 0
 390.380930106 54.43359375 458.416992188 124.650548938 458.416992188 234.9921875 c 0
 458.416992188 336.589409723 400.055053709 401.2421875 285.916992188 401.2421875 c 0
 170.251421559 401.2421875 112.7578125 330.93359375 112.7578125 330.93359375 c 1
 54 364.5 l 1
 115 731.0078125 l 1
 484.016601562 731.0078125 l 1
 484.016601562 663.0078125 l 1
EndSplineSet
Substitution2: "'onum' Oldstyle Figures lookup 27-1" five.osf
Substitution2: "'ss02' Style Set 2 lookup 10-1" five.ss02
Substitution2: "'frac' Diagonal Fractions in Latin lookup 26 subtable" five.numr
Substitution2: "'dnom' Denominators lookup 0 subtable" five.dnom
Substitution2: "'numr' Numerators lookup 0 subtable" five.numr
Substitution2: "'sinf' Scientific Inferiors lookup 0 subtable" five.inferior
Substitution2: "'sups' Superscript lookup 0 subtable" five.superior
EndChar

StartChar: Z
Encoding: 58 90 68
Width: 601
Flags: W
HStem: 0 64.5<139.919 538.017> 662.008 69<63 468.098>
LayerCount: 2
Fore
SplineSet
57 662.0078125 m 1
 63 731.0078125 l 1
 540.766601562 731.0078125 l 1
 554.016601562 679.0078125 l 1
 139.918945312 64.5 l 1
 544.016601562 70 l 1
 538.016601562 0 l 1
 62.5 0 l 1
 47 49 l 1
 468.09765625 667.5078125 l 1
 57 662.0078125 l 1
EndSplineSet
EndChar

StartChar: Y
Encoding: 57 89 69
Width: 714
Flags: W
HStem: 0 21G<360.58 435.409>
VStem: 364.373 67.6113<0 282.905>
LayerCount: 2
Fore
SplineSet
364.373046875 282.905273438 m 1
 146.401367188 676.5 l 1
 39.5458984375 658.5 l 1
 30 722 l 1
 188.296875 746 l 1
 398.905273438 358.8828125 l 1
 625.904296875 746 l 1
 689.950195312 712.75 l 1
 431.984375 289.400390625 l 1
 435.409179688 0 l 1
 360.580078125 0 l 1
 364.373046875 282.905273438 l 1
EndSplineSet
Substitution2: "'ss13' Style Set 13 lookup 21-1" Y.ss13
EndChar

StartChar: X
Encoding: 56 88 70
Width: 761
Flags: W
LayerCount: 2
Fore
SplineSet
217 745.0078125 m 1
 453.5 364 l 1
 163 -27 l 1
 103 19 l 1
 374.25 364 l 1
 182.5 667.7578125 l 1
 52.5 625.68359375 l 1
 33 691 l 1
 217 745.0078125 l 1
650.5 745.0078125 m 1
 716 703.0078125 l 1
 459.75 364 l 1
 731 19 l 1
 672.5 -27 l 1
 380.5 364 l 1
 650.5 745.0078125 l 1
EndSplineSet
EndChar

StartChar: comma
Encoding: 12 44 71
Width: 270
Flags: W
HStem: -96 213.5
VStem: 53.75 145.25
LayerCount: 2
Fore
SplineSet
135.5 117.5 m 25
 199 85 l 25
 90.75 -96 l 25
 53.75 -74 l 25
 135.5 117.5 l 25
EndSplineSet
EndChar

StartChar: nine
Encoding: 25 57 73
Width: 619
Flags: W
HStem: -20 67.459<144.364 266.476> 245.266 59.7178<211.111 395.576> 676.634 62.3584<212.203 396.242>
VStem: 55 64.9414<393.77 585.612> 486.691 76.625<331.95 570.79>
LayerCount: 2
Fore
SplineSet
145.005859375 -20 m 1
 138.81640625 47.458984375 l 1
 487.457779599 64.7484725055 492.858398438 342.059570312 492.858398438 342.059570312 c 1
 492.858398438 342.059570312 444.621779569 245.265625 288.715820312 245.265625 c 0
 153.752676021 245.265625 55 341.963909203 55 488.243164062 c 0
 55 620.323016746 124.045033902 738.9921875 303.005859375 738.9921875 c 0
 458.893461197 738.9921875 563.31640625 636.598632812 563.31640625 422.643554688 c 0
 563.31640625 209.85546875 463.112843045 0.52832031246 145.005859375 -20 c 1
486.69140625 490.633789062 m 0
 486.69140625 604.301602451 415.077848973 676.633789062 302.541015625 676.633789062 c 0
 190.951891447 676.633789062 119.94140625 604.301602451 119.94140625 490.633789062 c 0
 119.94140625 377.180772569 190.951891447 304.983398438 302.541015625 304.983398438 c 0
 415.077848973 304.983398438 486.69140625 377.180772569 486.69140625 490.633789062 c 0
EndSplineSet
Substitution2: "'onum' Oldstyle Figures lookup 27-1" nine.osf
Substitution2: "'frac' Diagonal Fractions in Latin lookup 26 subtable" nine.numr
Substitution2: "'dnom' Denominators lookup 0 subtable" nine.dnom
Substitution2: "'numr' Numerators lookup 0 subtable" nine.numr
Substitution2: "'sinf' Scientific Inferiors lookup 0 subtable" nine.inferior
Substitution2: "'sups' Superscript lookup 0 subtable" nine.superior
EndChar

StartChar: at
Encoding: 32 64 74
Width: 925
Flags: W
HStem: -159.727 57.877<340.317 668.156> 48.4209 59.1357<362.409 522.938 678.216 787.346> 435.61 57.8955<363.092 523.621> 652.433 55.2939<328.485 607.537>
VStem: 45 60.5<127.671 415.667> 232.529 61.0947<179.425 364.25> 591.356 64.1611<171.678 372.155> 597.985 41.0586<130.132 366.605> 826.904 53.3828<155.549 431.648>
LayerCount: 2
Back
SplineSet
365.124023438 363.1875 m 4
 365.124023438 312.997070312 392.912109375 281.056640625 436.578125 281.056640625 c 4
 480.749023438 281.056640625 508.856445312 312.997070312 508.856445312 363.1875 c 4
 508.856445312 411.876953125 480.749023438 442.860351562 436.578125 442.860351562 c 4
 392.912109375 442.860351562 365.124023438 411.876953125 365.124023438 363.1875 c 4
207.529296875 362.254882812 m 4
 207.529296875 497.463867188 289.260742188 583.505859375 417.694335938 583.505859375 c 4
 542.1171875 583.505859375 621.293945312 489.212890625 621.293945312 341.037109375 c 4
 621.293945312 217.215820312 542.1171875 138.420898438 417.694335938 138.420898438 c 4
 289.260742188 138.420898438 207.529296875 225.466796875 207.529296875 362.254882812 c 4
482.713867188 -69.7265625 m 4
 196.205078125 -69.7265625 20 94.120869497 20 358.08984375 c 4
 20 614.04161915 179.602962903 797.7265625 458.420898438 797.7265625 c 4
 719.309753403 797.7265625 905.287109375 654.481445312 905.287109375 383.712890625 c 4
 905.287109375 234.838867187 845.620117188 138.420898438 718.064453125 138.420898438 c 4
 609.642578125 138.420898438 536.985351562 205.224609375 536.985351562 370.025390625 c 4xbec0
 536.985351562 473.729492188 566.369140625 581.030273438 566.369140625 581.030273438 c 5
 721.677734375 569.944335938 l 5
 721.677734375 569.944335938 689.767578125 428.384765625 689.767578125 333.604492188 c 4
 689.767578125 282.138671875 704.185546875 254.978515625 740.811523438 254.978515625 c 4xbf40
 782.825195312 254.978515625 804.404296875 305.185546875 804.404296875 383.712890625 c 4
 804.404296875 614.064453125 662.40625 699.432617188 459.420898438 699.432617188 c 4
 248.553710938 699.432617188 128 560.595703125 128 361.93359375 c 4
 128 157.513671875 252.708984375 31.150390625 483.713867188 31.150390625 c 4
 665.813476562 31.150390625 793 94 793 94 c 5
 818.250976562 5.7744140625 l 5
 818.250976562 5.7744140625 708.095703125 -69.7265625 482.713867188 -69.7265625 c 4
EndSplineSet
Fore
SplineSet
293.624023438 272.4375 m 0xfe80
 293.624023438 171.678281816 351.065292417 107.556640625 441.328125 107.556640625 c 0
 533.013787739 107.556640625 591.356445312 171.678281816 591.356445312 272.4375 c 0
 591.356445312 372.15524264 534.180420627 435.610351562 444.328125 435.610351562 c 0
 352.231975028 435.610351562 293.624023438 372.15524264 293.624023438 272.4375 c 0xfe80
232.529296875 272.254882812 m 0
 232.529296875 407.463867188 310.371824903 493.505859375 432.694335938 493.505859375 c 0
 558.79775478 493.505859375 639.043945312 402.129543867 639.043945312 258.537109375 c 0xfd80
 639.043945312 130.132476938 558.79775478 48.4208984375 432.694335938 48.4208984375 c 0
 310.371824903 48.4208984375 232.529296875 135.466796875 232.529296875 272.254882812 c 0
482.713867188 -159.7265625 m 0
 211.684881594 -159.7265625 45 4.12109375 45 268.08984375 c 0
 45 524.041992188 195.50155074 707.7265625 458.420898438 707.7265625 c 0
 704.714112797 707.7265625 880.287109375 564.481445312 880.287109375 293.712890625 c 0
 880.287109375 144.838867188 829.304565799 48.4208984375 720.314453125 48.4208984375 c 0
 647.069388157 48.4208984375 597.985351562 106.138788653 597.985351562 248.525390625 c 0xfd80
 597.985351562 366.60520203 623.869140625 488.780273438 623.869140625 488.780273438 c 1
 683.927734375 482.694335938 l 1
 683.927734375 482.694335938 655.517578125 333.677715023 655.517578125 234.604492188 c 0xfe80
 655.517578125 150.013510904 673.211294235 103.728515625 730.811523438 103.728515625 c 0
 794.296885601 103.728515625 826.904296875 170.023247142 826.904296875 273.712890625 c 0
 826.904296875 550.029742007 674.410237114 652.432617188 456.420898438 652.432617188 c 0
 233.146798231 652.432617188 105.5 495.906800668 105.5 271.93359375 c 0
 105.5 40.9402045479 238.097212547 -101.849609375 483.713867188 -101.849609375 c 0
 677.287700534 -101.849609375 799.75 -33.75 799.75 -33.75 c 1
 818.250976562 -84.2255859375 l 1
 818.250976562 -84.2255859375 708.095703125 -159.7265625 482.713867188 -159.7265625 c 0
EndSplineSet
EndChar

StartChar: percent
Encoding: 5 37 75
Width: 889
Flags: W
HStem: -10 58.0576<603.693 744.623> 302.725 58.1543<603.693 744.623> 368.113 58.0576<143.693 284.623> 680.838 58.1543<143.693 284.623>
VStem: 37.0205 58.8037<475.879 632.067> 332.784 58.8359<475.879 632.067> 497.021 58.8037<97.7657 253.953> 792.784 58.8359<97.7657 253.953>
LayerCount: 2
Fore
SplineSet
555.82421875 176.256835938 m 0
 555.82421875 97.913051954 601.786670586 48.0576171875 674.015625 48.0576171875 c 0
 746.596504766 48.0576171875 792.784179688 97.913051954 792.784179688 176.256835938 c 0
 792.784179688 253.543069768 746.596504766 302.724609375 674.015625 302.724609375 c 0
 601.786670586 302.724609375 555.82421875 253.543069768 555.82421875 176.256835938 c 0
497.020507812 176.399414062 m 0
 497.020507812 289.137173592 565.845585678 360.87890625 674 360.87890625 c 0
 782.545813922 360.87890625 851.620117188 289.137173592 851.620117188 176.399414062 c 0
 851.620117188 62.4884665476 782.545813922 -10 674 -10 c 0
 565.845585678 -10 497.020507812 62.4884665476 497.020507812 176.399414062 c 0
95.82421875 554.370117188 m 0
 95.82421875 476.026333204 141.786670586 426.170898438 214.015625 426.170898438 c 0
 286.596504767 426.170898438 332.784179688 476.026333204 332.784179688 554.370117188 c 0
 332.784179688 631.656351018 286.596504767 680.837890625 214.015625 680.837890625 c 0
 141.786670586 680.837890625 95.82421875 631.656351018 95.82421875 554.370117188 c 0
37.0205078125 554.512695312 m 0
 37.0205078125 667.250454842 105.845585678 738.9921875 214 738.9921875 c 0
 322.545813922 738.9921875 391.620117188 667.250454842 391.620117188 554.512695312 c 0
 391.620117188 440.601747797 322.545813922 368.11328125 214 368.11328125 c 0
 105.845585678 368.11328125 37.0205078125 440.601747797 37.0205078125 554.512695312 c 0
EndSplineSet
Refer: 168 8260 N 1 0 0 1 304 0 2
EndChar

StartChar: ampersand
Encoding: 6 38 76
Width: 715
Flags: W
HStem: -9.99805 62.748<200.078 463.569> 311.5 63<511.5 659> 335.5 60<246.389 355> 684.25 60.75<264.643 375.634>
VStem: 55 70<115.37 263.203> 73 68.25<470.902 600.049> 477.5 73<80.5 311.5 374.5 552> 481.5 62<80.5 552>
LayerCount: 2
Fore
SplineSet
660 374.5 m 1xd0
 659 307.5 l 1
 506.5 311.5 l 1
 511.5 374.5 l 1
 660 374.5 l 1xd0
375 745 m 1
 380.5 684.25 l 1
 266.835667553 672.93060072 141.25 638.591265109 141.25 534.68359375 c 0xb4
 141.25 461.827594627 203.886487587 407.327594809 357 395.5 c 1
 355 335.5 l 1
 207.564102564 325.147887325 125 292.232394367 125 188.5 c 0
 125 106.159836066 183.725 52.75 320.75 52.75 c 0
 431.707865169 52.75 477.5 80.5 477.5 80.5 c 1xba
 481.5 555 l 1
 543.5 552 l 1xb1
 550.5 37 l 1
 550.5 37 467.569337169 -9.998046875 320 -9.998046875 c 0
 165.491525424 -9.998046875 55 47.2893772649 55 195 c 0xba
 55 348.634698885 237.5 369 237.5 369 c 1
 237.5 369 73 395.821752095 73 533.75 c 0xb4
 73 638.533653846 152.425076453 728.750000001 375 745 c 1
EndSplineSet
Substitution2: "'ss18' Style Set 18 lookup 30-1" ampersand.ss18
Substitution2: "'ss09' Style Set 9 lookup 17-1" ampersand.ss09
EndChar

StartChar: two
Encoding: 18 50 77
Width: 595
Flags: W
HStem: 0 63.5<189.652 536> 670.5 68.5<162.626 372.84>
VStem: 449.114 70.8496<392.433 594.04>
LayerCount: 2
Fore
SplineSet
189.65234375 63.5 m 1
 540 69.5 l 1
 536 0 l 1
 61.9833984375 0 l 1
 54.9833984375 50 l 1
 54.9833984375 50 449.114257812 230.16288812 449.114257812 496.25 c 0
 449.114257812 613.524414062 385.742133736 670.5 278.955078125 670.5 c 0
 153.765131629 670.5 78.9638671875 601.5 78.9638671875 601.5 c 1
 51.5634765625 663 l 1
 51.5634765625 663 137.627224149 739 282.03125 739 c 0
 435.808541977 739 519.963867188 649.188637696 519.963867188 506.43359375 c 0
 519.963867188 226.852909343 189.65234375 63.5 189.65234375 63.5 c 1
EndSplineSet
Substitution2: "'onum' Oldstyle Figures lookup 27-1" two.osf
Substitution2: "'frac' Diagonal Fractions in Latin lookup 26 subtable" two.numr
Substitution2: "'dnom' Denominators lookup 0 subtable" two.dnom
Substitution2: "'numr' Numerators lookup 0 subtable" two.numr
Substitution2: "'sinf' Scientific Inferiors lookup 0 subtable" two.inferior
Substitution2: "'sups' Superscript lookup 0 subtable" two.superior
EndChar

StartChar: three.ss01
Encoding: 736 -1 78
Width: 579
Flags: W
HStem: -10.0664 62<109.741 373.406> 347.492 58.4414<175.273 369.484> 673.992 65<128.654 368.278>
VStem: 439.167 65.25<466.065 611.124> 457.667 65.75<124.206 278.596>
LayerCount: 2
Fore
SplineSet
65.25 90.25 m 1xe8
 65.25 90.25 143.259084828 51.93359375 251.916992188 51.93359375 c 0
 390.123350339 51.93359375 457.666992188 109.608931516 457.666992188 200.2421875 c 0xe8
 457.666992188 290.228298612 393.665367713 347.4921875 274.416992188 347.4921875 c 0
 196.3174774 347.4921875 175.2578125 340.93359375 175.2578125 340.93359375 c 1
 175.196289062 409.876953125 l 1
 175.196289062 409.876953125 195.164570819 405.93359375 260.416992188 405.93359375 c 0
 379.905196338 405.93359375 439.166992188 457.907296317 439.166992188 535.93359375 c 0
 439.166992188 621.662966318 382.241210936 673.9921875 253.916992188 673.9921875 c 0
 147.070889976 673.9921875 76.76953125 627.927734375 76.76953125 627.927734375 c 1
 56.75 688.840820312 l 1
 56.75 688.840820312 117.346082799 738.9921875 259.916992188 738.9921875 c 0
 411.460869731 738.9921875 504.416992188 663.358398438 504.416992188 542.93359375 c 0xf0
 504.416992188 412.914590035 380.275390625 377.71875 380.275390625 377.71875 c 1
 380.275390625 377.71875 523.416992188 348.421382599 523.416992188 196.9921875 c 0
 523.416992188 70.4560546875 423.667087177 -10.06640625 266.916992188 -10.06640625 c 0
 109.785564159 -10.06640625 43 34.0849609375 43 34.0849609375 c 1
 65.25 90.25 l 1xe8
EndSplineSet
Substitution2: "'dnom' Denominators lookup 0 subtable" three.ss01.dnom
Substitution2: "'numr' Numerators lookup 0 subtable" three.ss01.numr
Substitution2: "'subs' Subscript lookup 0 subtable" three.ss01.subscript
Substitution2: "'sinf' Scientific Inferiors lookup 0 subtable" three.ss01.inferior
Substitution2: "'sups' Superscript lookup 0 subtable" three.ss01.superior
EndChar

StartChar: four
Encoding: 20 52 79
Width: 679
Flags: W
HStem: 0 21G<415.5 486.329> 214.62 60.96<136.72 618.76>
VStem: 415.5 70.8291<0 629.934>
LayerCount: 2
Fore
SplineSet
480.899414062 629.93359375 m 1
 486.329101562 0 l 1
 415.5 0 l 1
 421.669921875 629.93359375 l 1
 480.899414062 629.93359375 l 1
383.559570312 752.280273438 m 1
 435.759765625 718.400390625 l 1
 136.719726562 275.580078125 l 1
 620.639648438 275.459960938 l 1
 618.759765625 212.1796875 l 1
 62.259765625 214.620117188 l 1
 48.5595703125 252.610351562 l 1
 383.559570312 752.280273438 l 1
EndSplineSet
Substitution2: "'onum' Oldstyle Figures lookup 27-1" four.osf
Substitution2: "'frac' Diagonal Fractions in Latin lookup 26 subtable" four.numr
Substitution2: "'dnom' Denominators lookup 0 subtable" four.dnom
Substitution2: "'numr' Numerators lookup 0 subtable" four.numr
Substitution2: "'sinf' Scientific Inferiors lookup 0 subtable" four.inferior
Substitution2: "'sups' Superscript lookup 0 subtable" four.superior
EndChar

StartChar: seven
Encoding: 23 55 80
Width: 568
Flags: W
HStem: 659.713 71.2949<127.75 467.098>
LayerCount: 2
Fore
SplineSet
42 478.2578125 m 1
 67 731.0078125 l 1
 509.516601562 731.0078125 l 1
 542.016601562 678.0078125 l 1
 266 -16 l 1
 199.25 6.75 l 1
 467.09765625 661.0078125 l 1
 127.75 659.712890625 l 1
 109.25 472.5 l 1
 42 478.2578125 l 1
EndSplineSet
Substitution2: "'onum' Oldstyle Figures lookup 27-1" seven.osf
Substitution2: "'frac' Diagonal Fractions in Latin lookup 26 subtable" seven.numr
Substitution2: "'dnom' Denominators lookup 0 subtable" seven.dnom
Substitution2: "'numr' Numerators lookup 0 subtable" seven.numr
Substitution2: "'sinf' Scientific Inferiors lookup 0 subtable" seven.inferior
Substitution2: "'sups' Superscript lookup 0 subtable" seven.superior
EndChar

StartChar: dollar
Encoding: 4 36 81
Width: 408
Flags: W
HStem: 0 21G<183 250> 719 20G<148 215>
VStem: 47.5 61.9316<446.211 533.311> 157 51<596.5 707.333> 190 51<31.6667 142.5> 297.438 63.3516<209.906 301.49>
LayerCount: 2
Fore
SplineSet
250 0 m 1xec
 183 0 l 1
 190 142.5 l 1
 241 142.5 l 1
 250 0 l 1xec
148 739 m 1
 215 739 l 1
 208 596.5 l 1
 157 596.5 l 1xf4
 148 739 l 1
279.802734375 645.848632812 m 1
 288.482421875 590.580078125 l 1
 288.482421875 590.580078125 109.431640625 575.735083165 109.431640625 486.842773438 c 0
 109.431640625 451.406115339 147.841158691 427.525051949 240.232421875 386.459960938 c 0
 324.797274704 348.882956024 360.7890625 318.592326348 360.7890625 258.793945312 c 0
 360.7890625 103.479763657 100.5390625 87.0791015625 100.5390625 87.0791015625 c 1
 92.8193359375 149.421875 l 1
 92.8193359375 149.421875 297.4375 159.999448806 297.4375 255.423828125 c 0
 297.4375 299.849702457 269.36233542 311.628395401 164.536132812 359.397460938 c 0
 79.8197770344 397.496168059 47.5 426.295241203 47.5 481.14453125 c 0
 47.5 631.722320577 279.802734375 645.848632812 279.802734375 645.848632812 c 1
EndSplineSet
EndChar

StartChar: quotesingle
Encoding: 7 39 82
Width: 256
Flags: W
HStem: 465 300<102 148>
VStem: 102 46<465 562.674>
LayerCount: 2
Fore
SplineSet
86.5 765 m 25
 169.5 765 l 25
 148 465 l 25
 102 465 l 25
 86.5 765 l 25
EndSplineSet
EndChar

StartChar: quotedbl
Encoding: 2 34 83
Width: 462
VWidth: 1111
Flags: W
HStem: 456.5 309.5
VStem: 106 45<460 504.006> 296.5 44.5<459.5 496.36>
LayerCount: 2
Fore
SplineSet
61.5 758.5 m 1
 148.5 766 l 1
 151 460 l 1
 106 456.5 l 1
 61.5 758.5 l 1
311 765 m 1
 394.5 754.5 l 1
 341 457.5 l 1
 296.5 459.5 l 1
 311 765 l 1
EndSplineSet
EndChar

StartChar: plus
Encoding: 11 43 84
Width: 450
Flags: W
HStem: 344 52<21 282.429>
VStem: 204.5 45<272.741 569.5>
LayerCount: 2
Fore
SplineSet
255 569.5 m 1
 249.5 376.5 l 1
 254 158.5 l 1
 190 160.5 l 1
 204.5 377.5 l 1
 199 572.5 l 1
 255 569.5 l 1
21 396 m 1
 223 393 l 1
 432 397.5 l 1
 431 333.5 l 1
 223 348 l 1
 19 344 l 1
 21 396 l 1
EndSplineSet
EndChar

StartChar: minus
Encoding: 719 8722 85
Width: 450
Flags: W
HStem: 338.75 57<86.75 407> 346.75 48<43 361.25>
LayerCount: 2
Fore
SplineSet
43 394.75 m 1x40
 409 395.75 l 1
 407 338.75 l 1x80
 41 346.75 l 1
 43 394.75 l 1x40
EndSplineSet
EndChar

StartChar: question
Encoding: 31 63 86
Width: 437
Flags: W
HStem: -10 94<105.161 186.839> 314 52.9736<174.836 258.027> 682 63.3838<66.4728 167.616>
VStem: 99 94<-3.8389 77.8389> 115.405 59.4219<173.635 313.5> 317.75 64.25<423.247 578.842>
LayerCount: 2
Fore
SplineSet
54.25 682 m 1xec
 67.990234375 745.383789062 l 1
 283.330723036 712.912048962 382 640.413846126 382 500.760742188 c 0
 382 386.320711012 302.729282248 318.654225765 205.75 314 c 0
 186.728946562 312.848149788 174.827148438 313.5 174.827148438 313.5 c 1
 171.5 170.25 l 1
 171.5 170.25 164.417808219 173.634765625 148 173.634765625 c 0
 129.365384615 173.634765625 119.5 169.75 119.5 169.75 c 1
 115.405273438 369 l 1
 115.405273438 369 134.407828637 366.973632812 172.25 366.973632812 c 0
 250.991758242 366.973632812 317.75 405.684832768 317.75 502.75 c 0
 317.75 607.90509033 225.375922153 663.003661849 54.25 682 c 1xec
99 37 m 0xf4
 99 65.7224076707 117.277592329 84 146 84 c 0
 174.72240767 84 193 65.7224076707 193 37 c 0
 193 8.27759232957 174.72240767 -10 146 -10 c 0
 117.277592329 -10 99 8.27759232957 99 37 c 0xf4
EndSplineSet
EndChar

StartChar: parenleft
Encoding: 8 40 87
Width: 361
Flags: W
VStem: 55 66.1367<125.987 469.743>
LayerCount: 2
Fore
SplineSet
121.13671875 300.836914062 m 0
 121.13671875 -1.78637591499 300 -163.994140625 300 -163.994140625 c 1
 257.5 -198.994140625 l 1
 257.5 -198.994140625 55 -37 55 301.005859375 c 0
 55 613 257.5 791.001953125 257.5 791.001953125 c 1
 300 756.001953125 l 1
 300 756.001953125 121.13671875 600.004550854 121.13671875 300.836914062 c 0
EndSplineSet
EndChar

StartChar: parenright
Encoding: 9 41 88
Width: 361
Flags: W
VStem: 239.863 66.1367<122.265 466.02>
LayerCount: 2
Fore
SplineSet
239.86328125 291.170898438 m 0
 239.86328125 593.794188415 61 756.001953125 61 756.001953125 c 1
 103.5 791.001953125 l 1
 103.5 791.001953125 306 629.0078125 306 291.001953125 c 0
 306 -20.9921875 103.5 -198.994140625 103.5 -198.994140625 c 1
 61 -163.994140625 l 1
 61 -163.994140625 239.86328125 -7.99673835346 239.86328125 291.170898438 c 0
EndSplineSet
EndChar

StartChar: bracketleft
Encoding: 59 91 89
Width: 394
Flags: W
HStem: -190 56<133.747 346.824> 733 58.0107<130.672 337.395>
VStem: 65 68.7471<-134 733>
LayerCount: 2
Fore
SplineSet
337.39453125 791.010742188 m 1
 343.665039062 732 l 1
 130.671875 733 l 1
 133.747070312 -134 l 1
 349.806640625 -132 l 1
 346.82421875 -190 l 1
 65 -190 l 1
 67.69140625 791.010742188 l 1
 337.39453125 791.010742188 l 1
EndSplineSet
EndChar

StartChar: bracketright
Encoding: 61 93 90
Width: 394
Flags: W
HStem: -190 58<47.9824 261.06> 732 59.0107<57.4121 264.135>
VStem: 261.06 68.7471<-136 735>
LayerCount: 2
Fore
SplineSet
57.412109375 791.010742188 m 1
 327.115234375 791.010742188 l 1
 329.806640625 -190 l 1
 47.982421875 -190 l 1
 45 -132 l 1
 261.059570312 -136 l 1
 264.134765625 735 l 1
 51.1416015625 732 l 1
 57.412109375 791.010742188 l 1
EndSplineSet
EndChar

StartChar: less
Encoding: 28 60 91
Width: 450
Flags: W
LayerCount: 2
Fore
SplineSet
149.37109375 334 m 1
 415.349609375 176 l 1
 387.849609375 122 l 1
 49.650390625 332 l 1
 387.849609375 561 l 1
 415.349609375 507 l 1
 149.37109375 334 l 1
EndSplineSet
EndChar

StartChar: greater
Encoding: 30 62 92
Width: 450
Flags: W
LayerCount: 2
Fore
SplineSet
308.12890625 349.25 m 1
 34.650390625 507 l 1
 62.150390625 561 l 1
 400.349609375 351 l 1
 62.150390625 122 l 1
 34.650390625 176 l 1
 308.12890625 349.25 l 1
EndSplineSet
EndChar

StartChar: asciicircum
Encoding: 62 94 93
Width: 392
Flags: W
HStem: 431 317
LayerCount: 2
Fore
SplineSet
194 748 m 25
 372 461.5 l 25
 327.75 431 l 25
 195 657 l 25
 66.5 437 l 25
 20 463 l 25
 194 748 l 25
EndSplineSet
EndChar

StartChar: asterisk
Encoding: 10 42 94
Width: 401
Flags: W
VStem: 170.357 59<633.958 765>
LayerCount: 2
Fore
SplineSet
170.357421875 765 m 1
 229.357421875 765 l 1
 225.416992188 615.037109375 l 1
 353.830078125 668.389648438 l 1
 370.1640625 613.3046875 l 1
 236.24609375 571.330078125 l 1
 322.337890625 449.5 l 1
 278.510742188 419.329101562 l 1
 201.842773438 539.431640625 l 1
 124.2734375 419.329101562 l 1
 81.4462890625 449.5 l 1
 167.538085938 571.330078125 l 1
 31 621.754882812 l 1
 50.3681640625 670.639648438 l 1
 178.368164062 615.037109375 l 1
 170.357421875 765 l 1
EndSplineSet
EndChar

StartChar: sterling
Encoding: 97 163 95
Width: 576
Flags: W
HStem: 0 66.293<144.064 521.539> 297.5 67<136.013 416.75> 307 54.25<38.25 316.487>
VStem: 68.4297 75.6348<66.293 227.921>
LayerCount: 2
Fore
SplineSet
38.25 361.25 m 1xb0
 419.25 364.5 l 1
 416.75 297.5 l 1xd0
 35.75 307 l 1
 38.25 361.25 l 1xb0
144.064453125 66.29296875 m 1
 525.159179688 67.9306640624 l 1
 521.5390625 0 l 1
 68.4296875 0 l 1
 89.4187518606 452.125433501 180.496678415 643.005046291 466.930664062 747.6640625 c 1
 488.798828125 684.354492188 l 1
 248.082965677 596.508486227 157.727922204 423.345067094 144.064453125 66.29296875 c 1
EndSplineSet
EndChar

StartChar: braceleft
Encoding: 91 123 96
Width: 474
Flags: W
HStem: -199.681 61.6201<219.221 415.134> 270.852 59.9004<45.0264 163.184> 739.427 61.6201<221.007 415.168>
VStem: 108.34 69.9766<-101.31 60.8936 521.679 698.324> 177.296 60.2012<116.774 256.851 341.148 461.054> 177.296 1.02051<-31.5 198.766>
LayerCount: 2
Fore
SplineSet
296.986328125 801.046875 m 0xf0
 388.712128346 801.046875 442.4609375 765.7265625 442.4609375 765.7265625 c 1
 423.530273438 714.016601562 l 1
 423.530273438 714.016601562 377.958259375 739.426757812 312.657226562 739.426757812 c 0
 221.607202823 739.426757812 174.56640625 703.113615673 174.56640625 612 c 0
 174.56640625 528.566916065 240.100585938 485.515625187 240.100585938 388.243164062 c 0
 240.100585938 320.29354416 186.655273438 296.681640625 186.655273438 296.681640625 c 1
 186.655273438 296.681640625 237.497070312 274.310162193 237.497070312 204.143554688 c 0xe8
 237.497070312 105.855269145 178.31640625 72.4773137759 178.31640625 -31.5 c 0
 178.31640625 -108.53940714 227.37857036 -138.060546875 310.289306641 -138.060546875 c 0
 390.174018954 -138.060546875 423.530273438 -112.650390625 423.530273438 -112.650390625 c 1
 442.4609375 -164.360351562 l 1
 442.4609375 -164.360351562 388.712128346 -199.680664062 296.986328125 -199.680664062 c 0
 175.941997679 -199.680664062 108.33984375 -145.895507812 108.33984375 -39 c 0xf0
 108.33984375 68.4997648532 177.295898438 118.28413915 177.295898438 198.765625 c 0
 177.295898438 249.654864213 152.112462029 270.8515625 111.243164062 270.8515625 c 0
 77.7062080141 270.8515625 45 268.971679688 45 268.971679688 c 1
 45 334.75 l 1
 45 334.75 81.1698686021 330.751953125 116.482421875 330.751953125 c 0
 152.198684647 330.751953125 177.295898438 347.314193144 177.295898438 393.12109375 c 0xe8
 177.295898438 463.240850967 108.33984375 493.804591507 108.33984375 622 c 0
 108.33984375 733.947265625 175.941997679 801.046875 296.986328125 801.046875 c 0xf0
EndSplineSet
EndChar

StartChar: braceright
Encoding: 93 125 97
Width: 474
Flags: W
HStem: -199.681 61.6201<59.1391 253.968> 270.614 60.4004<314.016 428.973> 739.427 61.6201<59.1328 261.19>
VStem: 233.899 68.0547<137.371 262.535 342.194 486.053> 299.434 66.2266<-92.9846 68.8395 537.493 703.11>
LayerCount: 2
Fore
SplineSet
177.013671875 -199.680664062 m 0xe8
 85.2878716539 -199.680664062 31.5390625 -164.360351562 31.5390625 -164.360351562 c 1
 50.4697265625 -112.650390625 l 1
 50.4697265625 -112.650390625 92.9590247152 -138.060546875 165.210693359 -138.060546875 c 0
 249.484351443 -138.060546875 299.43359375 -102.459836385 299.43359375 -13.1337890625 c 0xe8
 299.43359375 71.2314796214 233.899414062 113.653586425 233.899414062 213.123046875 c 0xf0
 233.899414062 281.072666779 287.344726562 304.684570312 287.344726562 304.684570312 c 1
 287.344726562 304.684570312 236.502929688 327.056048745 236.502929688 397.22265625 c 0
 236.502929688 496.553706208 299.43359375 530.285776454 299.43359375 635.366210938 c 0
 299.43359375 710.598208831 252.617669398 739.426757812 163.592773438 739.426757812 c 0
 86.9720959272 739.426757812 50.4697265625 714.016601562 50.4697265625 714.016601562 c 1
 31.5390625 765.7265625 l 1
 31.5390625 765.7265625 85.2878716539 801.046875 177.013671875 801.046875 c 0
 298.058002321 801.046875 365.66015625 747.26171875 365.66015625 640.366210938 c 0xe8
 365.66015625 531.962196238 301.954101562 481.759053464 301.954101562 400.600585938 c 0
 301.954101562 351.476227678 324.182752918 331.014648438 360.256835938 331.014648438 c 0
 395.059468095 331.014648438 429 332.89453125 429 332.89453125 c 1
 429 266.616210938 l 1
 429 266.616210938 391.565139682 270.614257812 355.017578125 270.614257812 c 0
 323.852955091 270.614257812 301.954101562 254.715897394 301.954101562 210.745117188 c 0xf0
 301.954101562 139.859455432 365.66015625 108.961873068 365.66015625 -20.6337890625 c 0
 365.66015625 -132.581054688 298.058002321 -199.680664062 177.013671875 -199.680664062 c 0xe8
EndSplineSet
EndChar

StartChar: cent
Encoding: 96 162 98
Width: 391
Flags: W
HStem: 0 21G<213 280> 158.934 40.0664<220 271> 539 37.9336<218 269> 719 20G<209 276>
VStem: 55 64<273.886 456.515> 213 67<0 85.2857 619 739> 220 51<88.4444 199 539 666.273>
LayerCount: 2
Fore
SplineSet
280 0 m 1xfc
 213 0 l 1xfc
 220 199 l 1
 271 199 l 1xfa
 280 0 l 1xfc
209 739 m 1
 276 739 l 1
 269 539 l 1
 218 539 l 1
 209 739 l 1
55 369.93359375 m 0
 55 496.433681147 128.694364436 576.93359375 244.5 576.93359375 c 0
 343.738048353 576.93359375 385.916992188 534.782226562 385.916992188 534.782226562 c 1
 363.147460938 488.369140625 l 1
 363.147460938 488.369140625 320.036033471 519.43359375 253 519.43359375 c 0
 171.110609734 519.43359375 119 461.295541037 119 369.93359375 c 0
 119 273.683251952 162.637785588 212.43359375 257.5 212.43359375 c 0
 340.483589688 212.43359375 386.6484375 241.614257812 386.6484375 241.614257812 c 1
 401.146484375 191.31640625 l 1
 401.146484375 191.31640625 343.572391561 158.93359375 247 158.93359375 c 0
 129.666585602 158.93359375 55 240.988532903 55 369.93359375 c 0
EndSplineSet
EndChar

StartChar: asciitilde
Encoding: 94 126 99
Width: 524
Flags: W
HStem: 239.96 222.04
LayerCount: 2
Fore
SplineSet
348.071289062 303.668945312 m 1
 478.98046875 408.530273438 l 1
 508.66015625 364 l 1
 342.030273438 239.959960938 l 1
 178.33984375 394.791015625 l 1
 47.1806640625 288.9296875 l 1
 16 329.959960938 l 1
 179.380859375 462 l 1
 348.071289062 303.668945312 l 1
EndSplineSet
EndChar

StartChar: numbersign
Encoding: 3 35 100
Width: 704
Flags: W
HStem: 215.75 56.5<155.35 633.75> 224.5 45.25<38.25 514.15> 467.75 56.5<196.95 665.75> 476.5 45.25<82.25 548.55> 718.008 20G<260.221 316 520.221 576>
LayerCount: 2
Fore
SplineSet
38.25 269.75 m 1x48
 636.25 272.25 l 1
 633.75 215.75 l 1x88
 35.75 224.5 l 1
 38.25 269.75 l 1x48
82.25 521.75 m 1x18
 668.25 524.25 l 1
 665.75 467.75 l 1x28
 79.75 476.5 l 1
 82.25 521.75 l 1x18
384.75 1 m 1
 524 738.0078125 l 1
 576 730.0078125 l 1
 438.5 -7 l 1
 384.75 1 l 1
124.75 1 m 1
 264 738.0078125 l 1
 316 730.0078125 l 1
 179.25 -7 l 1
 124.75 1 l 1
EndSplineSet
EndChar

StartChar: five.ss02
Encoding: 737 -1 101
Width: 581
Flags: W
HStem: -10.0664 64.5<114.344 364.952> 401.242 63.2578<182.697 382.752> 664 67.0078<166.5 421.5>
VStem: 428.5 55.5166<731.008 798.758> 458.417 66.5<142.542 326.344>
LayerCount: 2
Fore
SplineSet
484.016601562 663.0078125 m 1xf0
 166.5 664 l 1
 126 410.5 l 1
 126 410.5 171.937500001 464.5 297.5 464.5 c 0
 452.351450062 464.5 524.916992188 366.427235008 524.916992188 236.9921875 c 0
 524.916992188 72.6307174514 422.542089677 -10.06640625 261.666992188 -10.06640625 c 0
 97.6936027322 -10.06640625 28 44.0849609375 28 44.0849609375 c 1
 49.25 102.25 l 1
 49.25 102.25 133.63213734 54.43359375 251.166992188 54.43359375 c 0
 390.380930106 54.43359375 458.416992188 124.650548938 458.416992188 234.9921875 c 0xe8
 458.416992188 336.589409723 400.055053709 401.2421875 285.916992188 401.2421875 c 0
 170.33399377 401.2421875 112.7578125 330.93359375 112.7578125 330.93359375 c 1
 54 364.5 l 1
 115 731.0078125 l 1
 421.5 731.0078125 l 1
 428.5 798.7578125 l 1
 484.016601562 800.0078125 l 1
 484.016601562 663.0078125 l 1xf0
EndSplineSet
Substitution2: "'dnom' Denominators lookup 0 subtable" five.ss02.dnom
Substitution2: "'numr' Numerators lookup 0 subtable" five.ss02.numr
Substitution2: "'subs' Subscript lookup 0 subtable" five.ss02.subscript
Substitution2: "'sinf' Scientific Inferiors lookup 0 subtable" five.ss02.inferior
Substitution2: "'sups' Superscript lookup 0 subtable" five.ss02.superior
EndChar

StartChar: yen
Encoding: 99 165 102
Width: 714
Flags: W
HStem: 0 21G<360.58 435.409> 132.712 60<183 499.743> 255.712 69<405.36 608.5> 263.712 60<185 582.062>
VStem: 364.373 67.6113<0 282.905>
LayerCount: 2
Fore
SplineSet
183 192.711914062 m 1xc8
 404 191.711914062 l 1
 607.5 193.711914062 l 1
 606.5 124.711914062 l 1
 395 135.75 l 1
 182 132.711914062 l 1
 183 192.711914062 l 1xc8
185 323.711914062 m 1xd8
 406 318.961914062 l 1
 609.5 324.711914062 l 1
 608.5 255.711914062 l 1xe8
 397 263 l 1
 184 263.711914062 l 1
 185 323.711914062 l 1xd8
EndSplineSet
Refer: 69 89 N 1 0 0 1 0 0 2
EndChar

StartChar: brokenbar
Encoding: 100 166 103
Width: 246
Flags: W
VStem: 94.0664 58.4746<-170 239.44 355.92 788.992>
LayerCount: 2
Back
SplineSet
188.022460938 355.919921875 m 5
 58.7568359375 355.919921875 l 5
 31.169921875 788.9921875 l 5
 215.899414062 788.9921875 l 5
 188.022460938 355.919921875 l 5
189.291015625 239.440429688 m 5
 221.329101562 -170 l 5
 25 -170 l 5
 57.31640625 239.440429688 l 5
 189.291015625 239.440429688 l 5
EndSplineSet
Fore
SplineSet
151.272460938 355.919921875 m 1
 95.5068359379 355.919921875 l 1
 97.169921875 788.9921875 l 1
 149.899414062 788.9921875 l 1
 151.272460938 355.919921875 l 1
152.541015625 239.440429688 m 1
 153.829101562 -170 l 1
 92.5 -170 l 1
 94.06640625 239.440429688 l 1
 152.541015625 239.440429688 l 1
EndSplineSet
EndChar

StartChar: section
Encoding: 101 167 104
Width: 609
Flags: W
VStem: 47.5 22.3906<412.285 415.366> 122.753 67.8486<507.241 638.573> 418.754 67.8486<31.7863 160.566> 543.215 18.6406<251.727 253.865>
LayerCount: 2
Fore
SplineSet
69.890625 438.674804688 m 1
 89.677734375 352.695130739 202.060916271 319.721073427 326.131835938 278.893554688 c 0
 439.598628859 239.810405542 486.602539062 181.335397366 486.602539062 102.5 c 0
 486.602539062 -108.239257812 182.588867188 -114.163085938 182.588867188 -114.163085938 c 1
 173.802734375 -53.0234375 l 1
 173.802734375 -53.0234375 418.75390625 -52.3028482994 418.75390625 94.279296875 c 0
 418.75390625 151.523068359 387.777981885 200.517644153 243.58984375 243.373046875 c 0
 129.74091535 276.376704754 47.5 327.497235985 47.5 387.936523438 c 0
 47.5 416.14342733 69.890625 438.674804688 69.890625 438.674804688 c 1
543.21484375 230.825195312 m 1
 523.284503471 317.612032247 408.896090991 350.524825277 283.223632812 392.106445312 c 0
 169.061884808 430.075827258 122.752929688 489.664602634 122.752929688 568.5 c 0
 122.752929688 779.239257812 426.766601562 785.163085938 426.766601562 785.163085938 c 1
 435.552734375 724.0234375 l 1
 435.552734375 724.0234375 190.6015625 723.29184154 190.6015625 574.470703125 c 0
 190.6015625 505.196519666 223.840625264 469.740059189 410.765625 412.626953125 c 0
 501.441704581 384.850927465 561.85546875 337.231544386 561.85546875 283.063476562 c 0
 561.85546875 254.022678522 543.21484375 230.825195312 543.21484375 230.825195312 c 1
EndSplineSet
EndChar

StartChar: currency
Encoding: 98 164 105
Width: 465
Flags: W
HStem: 153.532 61.4658<155.69 315.773> 499.188 61.4668<153.592 305.285>
VStem: 42.7803 58.4893<272.592 439.25> 363.991 58.4883<272.592 439.25>
LayerCount: 2
Fore
SplineSet
313.739257812 213.436523438 m 1
 359.889648438 238.825195312 l 1
 454.259765625 99.765625 l 1
 393.080078125 66.1455078125 l 1
 313.739257812 213.436523438 l 1
161.520507812 213.436523438 m 1
 74.6796875 66.1455078125 l 1
 11 99.765625 l 1
 105.370117188 238.825195312 l 1
 161.520507812 213.436523438 l 1
313.739257812 497.74609375 m 1
 393.080078125 645.036132812 l 1
 454.259765625 605.416015625 l 1
 359.889648438 472.356445312 l 1
 313.739257812 497.74609375 l 1
161.520507812 497.74609375 m 1
 105.370117188 472.356445312 l 1
 11 605.416015625 l 1
 74.6796875 645.036132812 l 1
 161.520507812 497.74609375 l 1
101.26953125 355.671875 m 0
 101.26953125 265.050442949 157.858616541 214.998046875 232.629882812 214.998046875 c 0
 307.406786786 214.998046875 363.991210938 265.050442949 363.991210938 355.671875 c 0
 363.991210938 446.412937766 307.406786786 499.188476562 232.629882812 499.188476562 c 0
 157.858616541 499.188476562 101.26953125 446.412937766 101.26953125 355.671875 c 0
42.7802734375 355.590820312 m 0
 42.7802734375 485.24609375 124.689051997 560.655273438 232.629882812 560.655273438 c 0
 340.570713627 560.655273438 422.479492188 485.24609375 422.479492188 355.590820312 c 0
 422.479492188 225.424804688 340.570713627 153.532226562 232.629882812 153.532226562 c 0
 124.689051997 153.532226562 42.7802734375 225.424804688 42.7802734375 355.590820312 c 0
EndSplineSet
EndChar

StartChar: dieresis
Encoding: 102 168 106
Width: 450
Flags: W
HStem: 649.008 90<90.3875 169.613 280.387 359.613>
VStem: 85 90<654.395 733.62> 275 90<654.395 733.62>
LayerCount: 2
Fore
SplineSet
275 694.0078125 m 0
 275 721.507990057 292.499822443 739.0078125 320 739.0078125 c 0
 347.500177557 739.0078125 365 721.507990057 365 694.0078125 c 0
 365 666.507634943 347.500177557 649.0078125 320 649.0078125 c 0
 292.499822443 649.0078125 275 666.507634943 275 694.0078125 c 0
85 694.0078125 m 0
 85 721.507990057 102.499822443 739.0078125 130 739.0078125 c 0
 157.500177557 739.0078125 175 721.507990057 175 694.0078125 c 0
 175 666.507634943 157.500177557 649.0078125 130 649.0078125 c 0
 102.499822443 649.0078125 85 666.507634943 85 694.0078125 c 0
EndSplineSet
EndChar

StartChar: guillemotleft
Encoding: 105 171 107
Width: 632
Flags: W
HStem: 491 20G<297.943 336.351>
LayerCount: 2
Fore
SplineSet
403.970703125 261.25 m 1
 596.69921875 99.75 l 1
 562.69921875 57 l 1
 326 260 l 1
 565.44921875 469 l 1
 596.69921875 430 l 1
 403.970703125 261.25 l 1
113.220703125 254.75 m 1
 356.69921875 51 l 1
 322.19921875 2 l 1
 26 252 l 1
 320.69921875 511 l 1
 356.69921875 465 l 1
 113.220703125 254.75 l 1
EndSplineSet
EndChar

StartChar: guillemotright
Encoding: 121 187 108
Width: 632
Flags: W
HStem: 491 20G<295.418 333.196>
LayerCount: 2
Fore
SplineSet
227.728515625 251.75 m 1
 35 413.25 l 1
 69 456 l 1
 305.69921875 253 l 1
 66.25 44 l 1
 35 83 l 1
 227.728515625 251.75 l 1
518.478515625 258.25 m 1
 275 462 l 1
 309.5 511 l 1
 605.69921875 261 l 1
 311 2 l 1
 275 48 l 1
 518.478515625 258.25 l 1
EndSplineSet
EndChar

StartChar: logicalnot
Encoding: 106 172 109
Width: 497
Flags: W
HStem: 311.5 46<63 385>
VStem: 381 57<158.824 306.466>
LayerCount: 2
Fore
SplineSet
63 357.5 m 1
 436 358.5 l 1
 438 156 l 1
 381 158.82421875 l 1
 385 306.465820312 l 1
 61 311.5 l 1
 63 357.5 l 1
EndSplineSet
EndChar

StartChar: macron
Encoding: 109 175 111
Width: 330
Flags: W
HStem: 674.258 56.75<31.6121 307.75> 681.508 47<23 297.888>
VStem: 23 286
LayerCount: 2
Fore
SplineSet
23 728.5078125 m 1x60
 309 731.0078125 l 1
 307.75 674.2578125 l 1xa0
 21.75 681.5078125 l 1
 23 728.5078125 l 1x60
EndSplineSet
EndChar

StartChar: mu
Encoding: 115 181 112
Width: 633
Flags: W
HStem: -9.93164 56.75<183.962 353.181> 0 51.1768<492.849 604.38> 489.002 8G<77.8408 138.17 435.31 490.29>
VStem: 60 57.25<-3.03668 439.776> 430.771 62.0781<168.068 497.002>
LayerCount: 2
Fore
SplineSet
117.25 227.568359375 m 0x38
 117.25 -4.7180975505 147 -178.25 147 -178.25 c 1
 87 -187 l 1
 87 -187 60 -6.66644428042 60 208.068359375 c 0
 60 356.067568079 77.8408203125 509.001953125 77.8408203125 509.001953125 c 1
 138.169921875 502.251953125 l 1
 138.169921875 502.251953125 117.25 359.267222493 117.25 227.568359375 c 0x38
258.5 -9.931640625 m 0xb8
 156.318852831 -9.931640625 86.5172735759 73.8488038799 77 155.568359375 c 1
 107.5 230.068359375 l 1
 111.243801653 105.722929397 180.509955027 46.818359375 258.5 46.818359375 c 0
 342.527839551 46.818359375 429.730769231 82.2965703008 444 230.068359375 c 1
 467.5 168.068359375 l 1
 435.952830188 69.8344222954 393.992483393 -9.931640625 258.5 -9.931640625 c 0xb8
430.770507812 0 m 1x78
 435.5 497.001953125 l 1
 490.169921875 497.001953125 l 1
 492.848632812 51.1767578125 l 1
 608 53.1806640625 l 1
 604.379882812 0 l 1
 430.770507812 0 l 1x78
EndSplineSet
EndChar

StartChar: acute
Encoding: 114 180 113
Width: 230
Flags: W
HStem: 526.72 213.784
VStem: 11 208.518
LayerCount: 2
Fore
SplineSet
176.340820312 740.50390625 m 1
 219.517578125 696.68359375 l 1
 39.4375 526.719726562 l 1
 11 557.465820312 l 1
 176.340820312 740.50390625 l 1
EndSplineSet
EndChar

StartChar: plusminus
Encoding: 111 177 114
Width: 450
Flags: W
HStem: 114 59.25<155.333 430> 124.5 51<21 292.667> 148 22.75<190 223> 384 52<21 282.429>
VStem: 204.75 44.5<289.602 609.5>
LayerCount: 2
Fore
SplineSet
21 436 m 1x18
 223 433 l 1
 432 437.5 l 1
 431 373.5 l 1
 223 388 l 1
 19 384 l 1
 21 436 l 1x18
255 609.5 m 1
 249.25 416.5 l 1
 254 146 l 1
 190 148 l 1x38
 204.75 417.5 l 1
 199 612.5 l 1
 255 609.5 l 1
21 175.5 m 1x58
 223 170.75 l 1x38
 432 173.25 l 1
 430 114 l 1x98
 18 124.5 l 1
 21 175.5 l 1x58
EndSplineSet
EndChar

StartChar: copyright
Encoding: 103 169 116
Width: 795
Flags: W
HStem: -10.0664 48.377<271.922 522.98> 139.745 51.84<329.023 524.938> 502.262 21G<539.858 550.357> 540.1 49.0803<332.879 511.658> 693.14 45.7939<271.922 522.98>
VStem: 30 48<234.788 491.42> 198.909 55.7999<265.785 458.028> 716.617 48.3828<234.788 491.42>
LayerCount: 2
Fore
SplineSet
198.909375001 362.9453125 m 0
 198.909375001 501.200345084 281.835890872 589.180664062 412.14921875 589.180664062 c 0
 516.954318015 589.180664062 561.499414062 543.489257812 561.499414062 543.489257812 c 1
 539.8578125 502.262011719 l 1
 539.8578125 502.262011719 491.751863993 540.100390625 416.949609376 540.100390625 c 0
 317.80213276 540.100390625 254.709277343 471.207739986 254.709277343 362.9453125 c 0
 254.709277343 258.224845137 309.396997427 191.58515625 416.349414063 191.58515625 c 0
 505.780884608 191.58515625 551.078515625 227.723925781 551.078515625 227.723925781 c 1
 570.637109375 182.574804688 l 1
 570.637109375 182.574804688 530.542239264 139.745117188 406.14921875 139.745117188 c 0
 279.502560071 139.745117188 198.909375001 226.544541099 198.909375001 362.9453125 c 0
30 361.93359375 m 0
 30 592.322641811 172.722067272 738.93359375 397 738.93359375 c 0
 621.889353198 738.93359375 765 592.322641811 765 361.93359375 c 0
 765 134.599173678 621.889353198 -10.06640625 397 -10.06640625 c 0
 172.722067272 -10.06640625 30 134.599173678 30 361.93359375 c 0
78 361.93359375 m 0
 78 164.16352858 202.443333333 38.310546875 398 38.310546875 c 0
 592.711017198 38.310546875 716.6171875 164.16352858 716.6171875 361.93359375 c 0
 716.6171875 564.338895736 592.711017198 693.139648438 398 693.139648438 c 0
 202.443333333 693.139648438 78 564.338895736 78 361.93359375 c 0
EndSplineSet
EndChar

StartChar: registered
Encoding: 108 174 117
Width: 795
Flags: W
HStem: -10.0664 48.377<271.922 522.98> 297.767 38.702<390.134 477.378> 536.634 48.3604<260.73 481.721> 693.14 45.7939<271.922 522.98>
VStem: 30 48<234.788 491.42> 271.918 49.0381<141.598 310.998 348.885 549.748> 523.964 51.5403<375.579 497.478> 716.617 48.3828<234.788 491.42>
LayerCount: 2
Fore
SplineSet
322.95546875 141.5984375 m 1
 268.216210938 141.5984375 l 1
 271.918359375 549.748242188 l 1
 320.956445312 549.748242188 l 1
 322.95546875 141.5984375 l 1
312.271679688 348.884570313 m 1
 312.271679688 348.884570313 334.184663016 336.46875 402.88470459 336.46875 c 0
 479.887698198 336.46875 523.964355469 379.173086285 523.964355469 435.198925781 c 0
 523.964355469 497.883183672 480.3940763 536.63359375 386.074023438 536.63359375 c 0
 293.436516548 536.63359375 206.355859375 493.754882812 206.355859375 493.754882812 c 1
 190.95390625 542.302734375 l 1
 190.95390625 542.302734375 251.962987706 584.993945312 395.504492188 584.993945312 c 0
 505.504799346 584.993945312 575.5046875 527.34672819 575.5046875 436.758398438 c 0
 575.5046875 356.481635111 519.841826167 301.914911246 437.380981445 297.766784668 c 0
 411.492260479 295.193839308 390.11796875 298.222460937 390.11796875 298.222460937 c 1
 584.616601562 169.958789063 l 1
 552.576367187 123.998242188 l 1
 291.908398438 310.998242187 l 1
 312.271679688 348.884570313 l 1
30 361.93359375 m 0
 30 592.322641811 172.722067272 738.93359375 397 738.93359375 c 0
 621.889353198 738.93359375 765 592.322641811 765 361.93359375 c 0
 765 134.599173678 621.889353198 -10.06640625 397 -10.06640625 c 0
 172.722067272 -10.06640625 30 134.599173678 30 361.93359375 c 0
78 361.93359375 m 0
 78 164.16352858 202.443333333 38.310546875 398 38.310546875 c 0
 592.711017198 38.310546875 716.6171875 164.16352858 716.6171875 361.93359375 c 0
 716.6171875 564.338895736 592.711017198 693.139648438 398 693.139648438 c 0
 202.443333333 693.139648438 78 564.338895736 78 361.93359375 c 0
EndSplineSet
EndChar

StartChar: degree
Encoding: 110 176 118
Width: 429
Flags: W
HStem: 381.113 50.8027<141.812 287.463> 688.093 50.8994<141.812 287.463>
VStem: 41 51.8838<482.684 638.275> 336.684 51.916<482.684 638.275>
LayerCount: 2
Fore
SplineSet
92.8837890624 560.916015625 m 0
 92.8837890624 482.083932059 140.16908665 431.916015625 214.479492188 431.916015625 c 0
 289.159912601 431.916015625 336.68359375 482.083932059 336.68359375 560.916015625 c 0
 336.68359375 638.636036895 289.159912601 688.092773438 214.479492188 688.092773438 c 0
 140.16908665 688.092773438 92.8837890624 638.636036895 92.8837890624 560.916015625 c 0
41 561.012695312 m 0
 41 669.777889577 108.464198567 738.9921875 214.479492188 738.9921875 c 0
 320.886375711 738.9921875 388.599609375 669.777889577 388.599609375 561.012695312 c 0
 388.599609375 451.073705554 320.886375711 381.11328125 214.479492188 381.11328125 c 0
 108.464198567 381.11328125 41 451.073705554 41 561.012695312 c 0
EndSplineSet
EndChar

StartChar: AE
Encoding: 132 198 119
Width: 960
Flags: W
HStem: 0 66.4805<574.018 926.539> 220.5 67<252 551.5> 337 60.25<522 875.5> 658.08 72.9277<234 502.996 571.104 918.729>
VStem: 498.43 75.5879<66.4805 220.5 287.5 337>
LayerCount: 2
Fore
SplineSet
252 286.5 m 1
 555.5 287.5 l 1
 551.5 220.5 l 1
 218 226.25 l 1
 252 286.5 l 1
918.729492188 731.010742188 m 1
 924.61328125 659 l 1
 571.103515625 663 l 1
 574.017578125 66.48046875 l 1
 659.064453125 66.29296875 l 1
 930.159179688 67.9306640624 l 1
 926.5390625 0 l 1
 498.4296875 0 l 1
 503.151367188 665.083984375 l 1
 225 658.080078125 l 1
 234 731.0078125 l 1
 918.729492188 731.010742188 l 1
522 397.25 m 1
 878 397.5 l 1
 875.5 330.5 l 1
 518 337 l 1
 522 397.25 l 1
540 679.5 m 1
 90.8193359376 -15 l 1
 25.2734375 27.5 l 1
 489.5 710.5 l 1
 540 679.5 l 1
EndSplineSet
EndChar

StartChar: ae
Encoding: 164 230 120
Width: 887
Flags: W
HStem: -23.9004 57.3008<615.187 781.819> -10.0664 54.75<154.019 328.844> 213 51.5<437.25 807.75> 284.684 52.25<149.321 325.486> 450.934 56<538.205 728.975> 501 20G<154.951 158>
VStem: 37.5 59<98.0884 234.97> 381.5 57<96.2355 185.9 262.517 363.8> 808.5 61.1191<242.261 370.046>
LayerCount: 2
Fore
SplineSet
381.5 170.93359375 m 0x7380
 381.5 236.751902454 325.110876284 284.68359375 236.5 284.68359375 c 0
 143.444221048 284.68359375 96.5 235.171736808 96.5 167.18359375 c 0
 96.5 93.3787462943 152.110882928 44.68359375 239.5 44.68359375 c 0
 333.77754781 44.68359375 381.5 94.8694142293 381.5 170.93359375 c 0x7380
438.5 151.68359375 m 0
 438.5 98.6499616838 391.360613878 -10.06640625 238 -10.06640625 c 0
 115.472013033 -10.06640625 37.5 58.7666015625 37.5 166.93359375 c 0
 37.5 270.823242188 112.24920005 336.93359375 229.5 336.93359375 c 0
 376.213479568 336.93359375 438.5 242.72290311 438.5 151.68359375 c 0
446.098632812 173.426757812 m 1
 379.520507812 203.5 l 1
 379.520507812 203.5 382 259.190190529 382 291.25 c 0
 382 460.340783479 149.5 465.25 149.5 465.25 c 1
 158 521 l 1x3780
 158 521 443.419921875 513.6371062 443.419921875 289.501953125 c 0
 443.419921875 245.680050361 446.098632812 173.426757812 446.098632812 173.426757812 c 1
EndSplineSet
Refer: 9 101 N 1 0 0 1 357.5 0 2
EndChar

StartChar: cedilla
Encoding: 118 184 121
Width: 227
Flags: W
HStem: -248 42.5<17.25 117.719> -99 37<69.5 123.289>
VStem: 139.25 50.25<-185.696 -113.977>
LayerCount: 2
Fore
SplineSet
44.5 20 m 1
 87.5 17 l 1
 69.5 -62 l 1
 105.5 -62 189.5 -78.9825902882 189.5 -147.25 c 0
 189.5 -218.92225342 114.11751269 -245.374107143 17.25 -248 c 1
 13.5 -205.5 l 1
 87.6681818182 -204.753409092 139.25 -189.3745026 139.25 -150.75 c 0
 139.25 -115.230171955 111.286850346 -101.060058755 28.25 -99 c 1
 20.5 -74.5 l 1
 44.5 20 l 1
EndSplineSet
EndChar

StartChar: paragraph
Encoding: 116 182 124
Width: 823
Flags: W
HStem: 670.992 68<407.6 548.852>
VStem: 55 352.6<381.214 596.107> 332 75.5996<-173.994 148.773> 341 66.5996<-81.775 242.369> 550 74<-173.994 430.144> 550 64.2607<62.4187 666.557>
LayerCount: 2
Fore
SplineSet
768 712.734375 m 1xc0
 759.25 650.484375 l 1
 759.25 650.484375 668.150973672 665.498339243 614.260742188 666.556640625 c 1xc4
 624 -173.994140625 l 1
 550 -173.994140625 l 1x88
 550 668.7421875 l 1
 550 668.7421875 467.756143192 670.9921875 407.599609375 670.9921875 c 1x94
 407.599609375 -173.994140625 l 1
 332 -173.994140625 l 1xa0
 341 240.9921875 l 1x90
 173.465078839 253.871308694 55 324.077035731 55 485.9921875 c 0
 55 667.805875713 174.999936311 738.9921875 403 738.9921875 c 0
 633.737104367 738.9921875 768 712.734375 768 712.734375 c 1xc0
EndSplineSet
EndChar

StartChar: Eth
Encoding: 142 208 125
Width: 783
Flags: W
HStem: -10.0664 69.75<239.654 507.893> 319.75 64.75<49.1897 460.5> 327 55<36.5 445.81> 672.742 66.25<187.619 501.445>
VStem: 169.94 64.7295<78.3467 673> 668.917 70<227.583 499.082>
LayerCount: 2
Fore
SplineSet
36.5 382 m 1xbc
 462.5 384.5 l 1
 460.5 319.75 l 1xdc
 34.5 327 l 1
 36.5 382 l 1xbc
EndSplineSet
Refer: 57 68 N 1 0 0 1 0 0 2
EndChar

StartChar: eth
Encoding: 174 240 126
Width: 585
Flags: W
HStem: -10.0664 59.1748<194.685 380.947> 446.759 60.1748<193.196 384.992>
VStem: 33.75 62.875<149.361 350.369> 481.375 70.625<160.826 407.614>
LayerCount: 2
Fore
SplineSet
143.401367188 611.920898438 m 1
 355.940429688 707.275390625 l 1
 466.33984375 768.794921875 l 1
 495.955078125 708.39453125 l 1
 375.6171875 659.129882812 l 1
 172.368164062 552.965820312 l 1
 143.401367188 611.920898438 l 1
96.625 252.858398438 m 0
 96.625 128.344276829 170.669096421 49.1083984375 287.025390625 49.1083984375 c 0
 405.79510086 49.1083984375 481.375 128.344276829 481.375 252.858398438 c 0
 481.375 371.353766549 405.79510086 446.758789062 287.025390625 446.758789062 c 0
 170.669096421 446.758789062 96.625 371.353766549 96.625 252.858398438 c 0
33.75 249.93359375 m 0
 33.75 406.989257812 129.319340688 506.93359375 279.5 506.93359375 c 0
 433.914300381 506.93359375 478.90234375 407.057617188 478.90234375 407.057617188 c 1
 441.123308044 633.890884891 262.021484375 738.267578125 262.021484375 738.267578125 c 1
 311.770507812 782.510742188 l 1
 311.770507812 782.510742188 552 639.959487241 552 312 c 0
 552 76.5609773511 441.444778798 -10.06640625 287 -10.06640625 c 0
 132.236004188 -10.06640625 33.75 91.0439453125 33.75 249.93359375 c 0
EndSplineSet
EndChar

StartChar: multiply
Encoding: 149 215 127
Width: 450
Flags: W
LayerCount: 2
Fore
SplineSet
383.034179688 568.0859375 m 1
 429 526.36328125 l 1
 239.92578125 335.126953125 l 1
 68.7861328124 158.670898438 l 1
 23.12109375 206.7578125 l 1
 222.318359375 382.094726562 l 1
 383.034179688 568.0859375 l 1
69.0869140625 568.0859375 m 1
 239.802734375 382.094726562 l 1
 429 206.7578125 l 1
 383.334960938 158.670898438 l 1
 217.1953125 335.126953125 l 1
 23.12109375 526.36328125 l 1
 69.0869140625 568.0859375 l 1
EndSplineSet
EndChar

StartChar: divide
Encoding: 181 247 128
Width: 450
Flags: W
HStem: 177 92<184.507 265.493> 346.5 49<40 411> 470 92<184.507 265.493>
VStem: 179 92<182.507 263.493 475.507 556.493>
LayerCount: 2
Fore
SplineSet
179 516 m 0
 179 544.111467634 196.888888889 562 225 562 c 0
 253.111111111 562 271 544.111467634 271 516 c 0
 271 487.888532366 253.111111111 470 225 470 c 0
 196.888888889 470 179 487.888532366 179 516 c 0
39 395.5 m 1
 415 399.5 l 1
 411 342.5 l 1
 40 346.5 l 1
 39 395.5 l 1
179 223 m 0
 179 251.111467634 196.888888889 269 225 269 c 0
 253.111111111 269 271 251.111467634 271 223 c 0
 271 194.888532366 253.111111111 177 225 177 c 0
 196.888888889 177 179 194.888532366 179 223 c 0
EndSplineSet
EndChar

StartChar: Oslash
Encoding: 150 216 129
Width: 785
Flags: W
HStem: -10.0664 66.8506<276.366 501.535> 672.083 66.8506<276.366 501.535>
VStem: 44.5 66.4873<234.563 491.06> 674.013 66.4873<234.563 491.06>
LayerCount: 2
Fore
SplineSet
694.94921875 740.43359375 m 1
 438.830078125 355.799804688 l 1
 169.37890625 -69.75 l 1
 115.05078125 -32 l 1
 405.029296875 383.450195312 l 1
 644.220703125 773.68359375 l 1
 694.94921875 740.43359375 l 1
EndSplineSet
Refer: 43 79 N 1 0 0 1 0 0 2
EndChar

StartChar: oslash
Encoding: 182 248 130
Width: 565
Flags: W
HStem: -10.0664 58.4248<189.618 374.716> 448.509 58.4248<189.618 374.716>
VStem: 33.75 62.125<148.426 350.063> 468.125 63.875<148.426 350.063>
LayerCount: 2
Fore
SplineSet
497.5390625 501.638671875 m 1
 307.044921875 234.815429688 l 1
 127.935546875 -44.7802734375 l 1
 77.9609375 -11.400390625 l 1
 270.84765625 253.624023438 l 1
 451.65625 533.87890625 l 1
 497.5390625 501.638671875 l 1
EndSplineSet
Refer: 3 111 N 1 0 0 1 0 0 2
EndChar

StartChar: Thorn
Encoding: 156 222 131
Width: 714
Flags: W
HStem: 0 21G<158.958 235.287> 124.934 60.25<285.291 515.57> 548.742 61.25<288.116 505.387> 665.084 65.9268<48.748 163.279>
VStem: 158.958 76.3291<0 194.434 244.877 488.428 540.841 665.084> 603.917 63<271.219 456.448>
LayerCount: 2
Fore
SplineSet
219.196289062 244.876953125 m 1
 219.196289062 244.876953125 273.192992949 185.18359375 412.916992188 185.18359375 c 0
 532.586275742 185.18359375 603.916992188 252.005643805 603.916992188 359.93359375 c 0
 603.916992188 486.357488307 524.168595244 548.7421875 398.416992188 548.7421875 c 0
 292.486633907 548.7421875 214.26953125 488.427734375 214.26953125 488.427734375 c 1
 190.5 540.840820312 l 1
 190.5 540.840820312 274.798580426 609.9921875 409.416992188 609.9921875 c 0
 568.276514445 609.9921875 666.916992188 517.142383873 666.916992188 354.93359375 c 0
 666.916992188 215.441813151 572.316796873 124.93359375 419.416992188 124.93359375 c 0
 276.380071524 124.93359375 190.2578125 194.43359375 190.2578125 194.43359375 c 1
 219.196289062 244.876953125 l 1
229.857421875 731.010742188 m 1
 235.287109375 0 l 1
 158.958007812 0 l 1
 163.279296875 665.083984375 l 1
 45.1279296875 663.080078125 l 1
 48.748046875 731.010742188 l 1
 229.857421875 731.010742188 l 1
EndSplineSet
EndChar

StartChar: thorn
Encoding: 188 254 132
Width: 662
Flags: W
HStem: -10.0664 58<296.682 477.443> 450.434 56.5<297.35 477.443> 701.584 53.4268<28.6201 141.151>
VStem: 141.151 55.5781<-174 701.584> 160.75 41.4092<90.768 386.857> 571.25 60.75<148.338 350.565>
LayerCount: 2
Fore
SplineSet
206.75 249.93359375 m 0xe4
 206.75 126.488710938 276.846547794 47.93359375 387 47.93359375 c 0
 499.598358154 47.93359375 571.25 126.488710938 571.25 249.93359375 c 0
 571.25 372.462492951 499.598358154 450.43359375 387 450.43359375 c 0
 276.846547794 450.43359375 206.75 372.462492951 206.75 249.93359375 c 0xe4
160.75 247.93359375 m 0xec
 160.75 386.857406873 241.356028014 506.93359375 393.25 506.93359375 c 0
 539.153459516 506.93359375 632 406.989257812 632 249.93359375 c 0
 632 91.0439453125 539.153459516 -10.06640625 393.25 -10.06640625 c 0
 251.166222123 -10.06640625 160.75 90.7679952325 160.75 247.93359375 c 0xec
196.729492188 755.010742188 m 1xf4
 202.159179688 -174 l 1xec
 136.830078125 -174 l 1
 141.151367188 701.583984375 l 1
 25 699.580078125 l 1
 28.6201171875 755.010742188 l 1
 196.729492188 755.010742188 l 1xf4
EndSplineSet
EndChar

StartChar: kgreenlandic
Encoding: 246 312 133
Width: 578
Flags: W
HStem: 0 21G<151.83 217.159> 445.084 51.9268<28.6201 156.151> 494 20G<467.812 509.917>
VStem: 151.83 65.3291<0 445.084>
LayerCount: 2
Fore
SplineSet
492.25 514 m 1xb0
 532 469 l 1
 264.25 254.25 l 1
 548 34.75 l 1
 508.5 -17 l 1
 177 256 l 1
 492.25 514 l 1xb0
211.729492188 497.010742188 m 1xd0
 217.159179688 0 l 1
 151.830078125 0 l 1
 156.151367188 445.083984375 l 1
 25 443.080078125 l 1
 28.6201171875 497.010742188 l 1
 211.729492188 497.010742188 l 1xd0
EndSplineSet
EndChar

StartChar: Eng
Encoding: 264 330 134
Width: 830
Flags: W
HStem: 0 21G<158.83 235.159> 663.08 67.9307<48.6201 163.151> 669.492 69.5<366.847 583.115>
VStem: 158.83 76.3291<0 665.084> 689.372 72<190.412 557.812>
LayerCount: 2
Back
SplineSet
242.872070312 445.9921875 m 1xb8
 269.833984375 629.037109375 354.87109375 738.9921875 530.872070312 738.9921875 c 0
 688.88671875 738.9921875 785.872070312 652.708007812 785.872070312 430.9921875 c 0
 785.872070312 211.653320312 768.03125 -15 768.03125 -15 c 1
 546.702148438 0 l 1
 546.702148438 0 566.872070312 216.249023438 566.872070312 393.9921875 c 0
 566.872070312 495.55078125 538.45703125 553.9921875 457.872070312 553.9921875 c 0
 375.891601562 553.9921875 326.822265625 510.404296875 300.872070312 398.9921875 c 1
 242.872070312 445.9921875 l 1xb8
334.729492188 731.010742188 m 1
 340.159179688 0 l 1
 123.830078125 0 l 1
 128.151367188 560.083984375 l 1
 10 558.080078125 l 1
 13.6201171875 731.010742188 l 1
 334.729492188 731.010742188 l 1
EndSplineSet
Fore
SplineSet
182.872070312 445.9921875 m 1xb8
 211.706721608 629.037109375 302.649032965 738.9921875 490.872070312 738.9921875 c 0
 648.654880545 738.9921875 761.372070312 652.708007812 761.372070312 430.9921875 c 0
 761.372070312 274.59375 746.801757812 29.9814453125 746.801757812 29.9814453125 c 1
 568.642578125 -187.018554688 l 1
 510.142578125 -142.268554688 l 1
 677.22265625 47.2314453125 l 1
 677.22265625 47.2314453125 689.372070312 274.005419614 689.372070312 418.9921875 c 0
 689.372070312 577.994860839 633.455265927 669.4921875 474.872070312 669.4921875 c 0
 337.019595694 669.4921875 254.507817458 593.424288055 210.872070312 398.9921875 c 1
 182.872070312 445.9921875 l 1xb8
229.729492188 731.010742188 m 1xd8
 235.159179688 0 l 1
 158.830078125 0 l 1
 163.151367188 665.083984375 l 1
 45 663.080078125 l 1
 48.6201171875 731.010742188 l 1
 229.729492188 731.010742188 l 1xd8
EndSplineSet
EndChar

StartChar: eng
Encoding: 265 331 135
Width: 633
Flags: W
HStem: 0 21G<159.08 225.159> 443.821 53.1807<28.6201 163.401> 449.934 57<301.657 461.684>
VStem: 159.08 66.0791<0 445.825> 519.5 61<48.1308 384.754>
LayerCount: 2
Back
SplineSet
188 253.93359375 m 5xb8
 210.000338808 411.989257812 279.388472577 506.93359375 423 506.93359375 c 4
 558.0703125 506.93359375 628 429.158131451 628 278.93359375 c 4
 628 134.376986611 610.159179688 -15 610.159179688 -15 c 5
 415.830078125 0 l 5
 415.830078125 0 436 138.277935542 436 251.93359375 c 4
 436 312.868913517 418.012695312 347.93359375 367 347.93359375 c 4
 307.390237894 347.93359375 282.693825662 311.094726562 266 216.93359375 c 5
 188 253.93359375 l 5xb8
EndSplineSet
Fore
SplineSet
519.5 266.93359375 m 0xb8
 519.5 383.091547056 484.046761774 449.93359375 383.5 449.93359375 c 0
 281.691247888 449.93359375 229.761731948 376.956505694 211 254.43359375 c 1
 175.5 291.43359375 l 1
 195.862015705 408.062034878 260.082948024 506.93359375 393 506.93359375 c 0
 516.539919969 506.93359375 580.5 429.158131451 580.5 278.93359375 c 0
 580.5 170.142989767 564.659179688 0 564.659179688 0 c 1
 433.5 -184 l 1
 379.599853516 -147.400146484 l 1
 500.279785156 12.1501464844 l 1
 500.279785156 12.1501464844 519.5 167.566887535 519.5 266.93359375 c 0xb8
219.729492188 497.001953125 m 1xd8
 225.159179688 0 l 1
 159.080078125 0 l 1
 163.401367188 445.825195312 l 1
 25 443.821289062 l 1
 28.6201171875 497.001953125 l 1
 219.729492188 497.001953125 l 1xd8
EndSplineSet
EndChar

StartChar: OE
Encoding: 272 338 136
Width: 1141
Flags: W
HStem: -10.0664 66.8506<276.366 501.535> 0 66.4805<755.268 1107.79> 337 60.25<703.25 1056.75> 663 68.0107<752.354 1099.98> 672.083 66.8506<276.366 501.535>
VStem: 44.5 66.4873<234.563 491.06> 674.013 66.4873<234.563 491.06> 679.68 75.5879<66.4805 337 397.25 663>
LayerCount: 2
Fore
SplineSet
703.25 397.25 m 1x24
 1059.25 397.5 l 1
 1056.75 330.5 l 1
 699.25 337 l 1
 703.25 397.25 l 1x24
1099.97949219 731.010742188 m 1x75
 1105.86328125 659 l 1
 752.353515625 663 l 1
 755.267578125 66.48046875 l 1
 800.314453125 66.29296875 l 1
 1111.40917969 67.9306640624 l 1
 1107.7890625 0 l 1
 679.6796875 0 l 1
 684.401367188 731.010742188 l 1
 1099.97949219 731.010742188 l 1x75
EndSplineSet
Refer: 43 79 N 1 0 0 1 0 0 2
EndChar

StartChar: longs
Encoding: 317 383 138
Width: 401
Flags: W
HStem: 0 21G<160.335 226.137> 445 50.25<45 187> 740.624 57.2197<272.136 328.391>
VStem: 129.869 63.2832<502.605 676.851> 162.994 59.1436<0 536.263>
LayerCount: 2
Fore
SplineSet
162.984375 412.096679688 m 2xe8
 162.99091194 413.106858318 162.994140625 414.107770821 162.994140625 415.099609375 c 0xe8
 162.994140625 510.231961496 129.869140625 534.735355724 129.869140625 610 c 0
 129.869140625 723.315651031 201.317184303 771.990528928 327.01953125 797.84375 c 1
 338.2265625 740.624023438 l 1
 232.671257172 717.499001794 193.15234375 677.915812281 193.15234375 603.5 c 0xf0
 193.15234375 549.673876894 220.770474408 499.874314799 222.137695312 399.96484375 c 2
 226.13671875 0 l 1
 160.334960938 0 l 1
 162.984375 412.096679688 l 2xe8
187 445 m 1
 42 443.75 l 1
 45 497 l 1
 190 495.25 l 1
 187 445 l 1
EndSplineSet
EndChar

StartChar: uni018F
Encoding: 318 399 139
Width: 761
Flags: W
HStem: -9.99805 66.5<251.379 487.165> 345.316 62.3369<113.162 665.31> 685.13 69.5479<169.663 359.751>
VStem: 44.5 66<197.837 345.243>
LayerCount: 2
Back
SplineSet
20 361.93359375 m 0
 20 592.358449127 162.722067273 738.9921875 387 738.9921875 c 0
 692.703602516 738.9921875 740.809570312 528.036293548 740.809570312 395.250976562 c 0
 740.809570312 330.260178936 729.916992188 282.840820312 729.916992188 282.840820312 c 5
 148 284 l 5
 137 441 l 1
 505.647460938 445.427734375 l 1
 505.647460938 445.427734375 494.816386769 543.9921875 381 543.9921875 c 0
 300.33283944 543.9921875 249 476.30370791 249 369.93359375 c 0
 249 231.45533579 353.417075805 194.391339376 594.1484375 183.364257812 c 1
 571.146484375 -25.68359375 l 1
 248.292348682 -22.428262906 20 98.1280331654 20 361.93359375 c 0
EndSplineSet
Fore
SplineSet
716.309570312 357.060546875 m 0
 716.309570312 132.746806831 585.448601274 -9.998046875 379.809570312 -9.998046875 c 0
 90.0906022471 -9.998046875 44.5 194.820791431 44.5 315.685791016 c 0
 44.5 372.256467181 55.392578125 407.653320312 55.392578125 407.653320312 c 1
 665.309570312 406.494140625 l 1
 676.309570312 344.494140625 l 1
 113.162109375 345.31640625 l 1
 113.162109375 345.31640625 110.5 330.714694183 110.5 312.75 c 0
 110.5 194.32766878 167.051958582 56.501953125 373.202392578 56.501953125 c 0
 541.949465697 56.501953125 646.559570312 165.586137188 646.559570312 349.060546875 c 0
 646.559570312 598.502910813 478.792836519 673.562662446 164.161132812 685.129882812 c 1
 169.663085938 754.677734375 l 1
 509.71788669 751.338420391 716.309570312 627.671934681 716.309570312 357.060546875 c 0
EndSplineSet
EndChar

StartChar: ordfeminine
Encoding: 104 170 140
Width: 468
Flags: W
HStem: 297 44<67.5 413.5> 402 50<127.815 272.273> 410 43<376.75 441.5> 698.75 49.25<128.943 271.427>
VStem: 30.5 51.75<498.306 650.828> 318 58.75<498.923 650.236> 323 53.75<579 741> 326 31<483.761 682.215>
LayerCount: 2
Fore
SplineSet
66.5 341 m 1x98
 417.5 345 l 1
 413.5 293 l 1
 67.5 297 l 1
 66.5 341 l 1x98
318 574 m 0xdc
 318 650.23611111 273.24137931 698.75 200 698.75 c 0
 129.35 698.75 82.25 650.23611111 82.25 574 c 0
 82.25 498.923076924 129.35 452 200 452 c 0
 273.24137931 452 318 498.923076924 318 574 c 0xdc
357 579 m 0xd9
 357 483.76142132 299.478658537 402 191.5 402 c 0
 92.9484848484 402 30.5 469 30.5 574 c 0
 30.5 680 92.9484848484 748 191.5 748 c 0
 292.414634146 748 357 682.214765101 357 579 c 0xd9
323 410 m 1xba
 326 741 l 1xb9
 374.75 741 l 1
 376.75 453 l 1
 443.5 455 l 1
 441.5 410 l 1
 323 410 l 1xba
EndSplineSet
EndChar

StartChar: ordmasculine
Encoding: 120 186 141
Width: 399
Flags: W
HStem: 297 44<37.5 357.5> 403 50.25<129.064 270.005> 697.75 50.25<129.064 270.005>
VStem: 30.5 51.75<500.266 651.735> 316.75 51.75<500.266 651.735>
LayerCount: 2
Fore
SplineSet
36.5 341 m 1
 361.5 345 l 1
 357.5 293 l 1
 37.5 297 l 1
 36.5 341 l 1
82.25 576 m 0
 82.25 500.846938776 128.508928572 453.25 200 453.25 c 0
 272.172727273 453.25 316.75 500.846938776 316.75 576 c 0
 316.75 649.557291667 272.172727273 697.75 200 697.75 c 0
 128.508928572 697.75 82.25 649.557291667 82.25 576 c 0
30.5 577 m 0
 30.5 682 95.7258064517 748 199 748 c 0
 302.331550802 748 368.5 682 368.5 577 c 0
 368.5 471 302.331550802 403 199 403 c 0
 95.7258064517 403 30.5 471 30.5 577 c 0
EndSplineSet
EndChar

StartChar: germandbls
Encoding: 157 223 142
Width: 688
Flags: W
HStem: 0 21G<160.335 226.137> 445 50.25<45 189> 719.374 55.4697<252.19 474.403>
VStem: 129.869 63.2832<503.202 667.123> 160.335 65.8018<0 530.727> 163.002 26.998<445 495.25> 347.5 60.6816<319.698 408.644> 551.509 57.9912<507.372 646.666> 578.688 62.1016<93.4812 188.123>
LayerCount: 2
Fore
SplineSet
190 495.25 m 1xe6
 189 445 l 1
 42 443.75 l 1
 45 497 l 1
 190 495.25 l 1xe6
162.984375 412.096679688 m 2
 162.995907697 413.890505028 163.001953125 415.655786034 163.001953125 417.393554688 c 0xe6
 163.001953125 510.53615129 129.869140625 535.311149352 129.869140625 610 c 0
 129.869140625 709.441034633 213.959888705 774.84375 362.01953125 774.84375 c 0
 510.802001412 774.84375 609.5 709.089267253 609.5 561.93359375 c 0xf3
 609.5 502.258299308 586.732421875 456.700195312 586.732421875 456.700195312 c 1
 586.732421875 456.700195312 408.181640625 447.221715405 408.181640625 365.25 c 0
 408.181640625 334.78708092 419.490751711 313.819838272 502.298828125 281.611328125 c 0
 599.259435091 243.891805827 640.7890625 207.393065132 640.7890625 142 c 0
 640.7890625 -20.5129468308 371.5390625 -23.900390625 371.5390625 -23.900390625 c 1
 364.319335938 34.150390625 l 1
 364.319335938 34.150390625 578.6875 37.3382691688 578.6875 141.25 c 0xe280
 578.6875 176.47049942 556.641940018 200.044802174 478.036132812 230.700195312 c 0
 380.765614241 268.63119917 347.5 301.473313283 347.5 359.5 c 0
 347.5 441.535095089 425.846624319 485.017767313 541.892578125 508.052734375 c 1
 541.892578125 508.052734375 551.508789062 529.978838692 551.508789062 565.916015625 c 0
 551.508789062 652.605505923 496.802748452 719.374023438 364 719.374023438 c 0
 238.758559099 719.374023438 193.15234375 666.71056547 193.15234375 604.25 c 0xf3
 193.15234375 550.225534782 220.682843845 500.243015519 222.137695312 399.96484375 c 2
 226.13671875 0 l 1
 160.334960938 0 l 1xea
 162.984375 412.096679688 l 2
EndSplineSet
EndChar

StartChar: florin
Encoding: 319 402 144
Width: 433
Flags: W
HStem: 443.75 53.25<45 378> 740.624 57.2197<272.136 328.391>
VStem: 129.869 63.2832<500.706 677.022> 162.994 59.1436<12.5 536.739>
LayerCount: 2
Fore
SplineSet
45 497 m 1xc0
 190 495.25 l 1
 380 500 l 1
 378 439 l 1
 187 445 l 1
 42 443.75 l 1
 45 497 l 1xc0
226.13671875 0 m 1
 94.9775390624 -184 l 1
 38.9775390625 -145.75 l 1
 160.057617188 12.5 l 1
 162.984375 412.096679688 l 2
 162.994026862 413.125973227 162.994140625 414.120894614 162.994140625 415.099609375 c 0xd0
 162.994140625 508.431559191 129.869140625 534.120248037 129.869140625 610 c 0
 129.869140625 723.315651031 201.317184303 771.990528928 327.01953125 797.84375 c 1
 338.2265625 740.624023438 l 1
 232.671257172 717.625484127 193.15234375 678.258794912 193.15234375 604.25 c 0xe0
 193.15234375 550.225534782 220.684185985 500.150506219 222.137695312 399.96484375 c 2xd0
 226.13671875 0 l 1
EndSplineSet
EndChar

StartChar: circumflex
Encoding: 427 710 145
Width: 332
Flags: W
HStem: 540 208
VStem: 15 302
LayerCount: 2
Fore
SplineSet
164 748 m 1
 317 575.75 l 1
 280.75 540 l 1
 165 680 l 1
 51.75 542 l 1
 15 573.5 l 1
 164 748 l 1
EndSplineSet
EndChar

StartChar: caron
Encoding: 428 711 146
Width: 332
Flags: W
HStem: 536 208
VStem: 15 302
LayerCount: 2
Fore
SplineSet
168 536 m 1
 15 708.25 l 1
 51.25 744 l 1
 167 604 l 1
 280.25 742 l 1
 317 710.5 l 1
 168 536 l 1
EndSplineSet
EndChar

StartChar: tilde
Encoding: 434 732 147
Width: 384
Flags: W
HStem: 558.187 189.475 712.206 20G<321.171 359.54>
LayerCount: 2
Fore
SplineSet
250.571289062 630.629882812 m 1x80
 338.48046875 732.206054688 l 1x40
 373.66015625 698.795898438 l 1
 246.280273438 558.186523438 l 1
 141.58984375 678.217773438 l 1
 45.9306640625 569.890625 l 1
 11 604.301757812 l 1
 143.380859375 747.661132812 l 1
 250.571289062 630.629882812 l 1x80
EndSplineSet
EndChar

StartChar: zero.superior
Encoding: 660 8304 148
Width: 449
Flags: W
HStem: 342 55.485<150.046 299.693> 787.515 55.485<150.046 299.693>
VStem: 21.1713 55.3513<482.094 701.639> 373.804 55.3513<482.094 701.639>
LayerCount: 2
Fore
SplineSet
76.5225 591 m 0
 76.5225 473.245 134.37875 397.485 224.71125 397.485 c 0
 315.65875 397.485 373.80375 473.245 373.80375 591 c 0
 373.80375 711.46625 315.65875 787.515 224.71125 787.515 c 0
 134.37875 787.515 76.5225 711.46625 76.5225 591 c 0
21.17125 591 m 0
 21.17125 745 99.94125 843 224.71125 843 c 0
 349.5775 843 429.155 745 429.155 591 c 0
 429.155 439 349.5775 342 224.71125 342 c 0
 99.94125 342 21.17125 439 21.17125 591 c 0
EndSplineSet
EndChar

StartChar: one.superior
Encoding: 119 185 149
Width: 239
Flags: W
HStem: 786.365 50.635<33.145 134.525>
VStem: 131.525 59.025<350 787.365>
LayerCount: 2
Fore
SplineSet
187.26125 837 m 1
 190.55 350 l 1
 131.525 350 l 1
 134.525 787.365 l 1
 30.43375 786.365 l 1
 33.145 837 l 1
 187.26125 837 l 1
EndSplineSet
EndChar

StartChar: two.superior
Encoding: 112 178 150
Width: 396
Flags: W
HStem: 350 53.2337<140.629 359.968> 786.632 56.3675<90.966 253.609>
VStem: 289.75 60.2175<594.915 752.124>
LayerCount: 2
Fore
SplineSet
140.62875 403.23375 m 1
 362.9675 407.23375 l 1
 359.9675 350 l 1
 38.51375 350 l 1
 33.6475 391.53375 l 1
 33.6475 391.53375 289.75 510.26625 289.75 677.01125 c 0
 289.75 750.96375 250.08125 786.6325 182.1075 786.6325 c 0
 101.74875 786.6325 53.695 741.21 53.695 741.21 c 1
 31.35875 792.09625 l 1
 31.35875 792.09625 89.765 843 187.32625 843 c 0
 292.0425 843 349.9675 782.845 349.9675 687.305 c 0
 349.9675 507.1275 140.62875 403.23375 140.62875 403.23375 c 1
EndSplineSet
EndChar

StartChar: three.superior
Encoding: 113 179 151
Width: 387
Flags: W
HStem: 343 51.635<50.676 255.186> 584.525 38.71<180.854 260.829> 781.018 55.9825<40.3588 257.996>
VStem: 295.846 57.6988<431.828 553.888>
LayerCount: 2
Fore
SplineSet
180.85375 623.235 m 1
 184.31875 623.235 198.49 627.77 224.2125 626.71125 c 0
 299.06375 622.47625 353.545 575.77 353.545 493.05875 c 0
 353.545 394.67375 284.85 343 178 343 c 0
 70.66875 343 25.6475 372 25.6475 372 c 1
 42.4975 419.79 l 1
 42.4975 419.79 92.55625 394.635 163.23 394.635 c 0
 256.42875 394.635 295.84625 432.2825 295.84625 495.925 c 0
 295.84625 548.07 258.46625 584.525 191.99 584.525 c 0
 134.63125 584.525 104 561.74375 104 561.74375 c 1
 86.09625 595.235 l 1
 257.99625 782.30625 l 1
 35.455 781.0175 l 1
 40.35875 837 l 1
 332.64125 837 l 1
 339.545 797.6 l 1
 180.85375 623.235 l 1
EndSplineSet
EndChar

StartChar: four.superior
Encoding: 661 8308 152
Width: 453
Flags: W
HStem: 492.99 49.9612<101.501 416.989>
VStem: 273.53 58.6187<350 768.016>
LayerCount: 2
Fore
SplineSet
328.14875 768.01625 m 1
 332.14875 350 l 1
 273.53 350 l 1
 277.53 768.01625 l 1
 328.14875 768.01625 l 1
249.1825 853.385 m 1
 294.4325 824.70125 l 1
 101.50125 542.95125 l 1
 418.8925 543.24 l 1
 416.98875 490.70125 l 1
 40.1125 492.99 l 1
 29.35875 525.25125 l 1
 249.1825 853.385 l 1
EndSplineSet
EndChar

StartChar: five.superior
Encoding: 662 8309 153
Width: 401
Flags: W
HStem: 342.096 53.7688<56.079 264.119> 613.349 52.0362<111.791 271.684> 782.173 54.8275<121.972 330.449>
VStem: 310.407 57.1587<439.622 574.993>
LayerCount: 2
Fore
SplineSet
330.44875 781.1725 m 1
 121.9725 782.1725 l 1
 94.9775 631.21875 l 1
 94.9775 631.21875 125.41625 665.385 208.4275 665.385 c 0
 317.7 665.385 367.56625 599.08 367.56625 508.5775 c 0
 367.56625 397.4975 295.25625 342.09625 181.79125 342.09625 c 0
 66.615 342.09625 17.6525 379 17.6525 379 c 1
 34.6575 426.6725 l 1
 34.6575 426.6725 92.98375 395.865 174.54 395.865 c 0
 265.89375 395.865 310.4075 438.7425 310.4075 506.67375 c 0
 310.4075 571.89375 271.2575 613.34875 195.5725 613.34875 c 0
 119.9675 613.34875 81.60375 569.73875 81.60375 569.73875 c 1
 35.74375 597.77 l 1
 77.55125 837 l 1
 330.44875 837 l 1
 330.44875 781.1725 l 1
EndSplineSet
EndChar

StartChar: six.superior
Encoding: 663 8310 154
Width: 411
Flags: W
HStem: 342 52.8275<139.203 280.587> 623.734 49.3625<139.646 281.676> 793.173 55.8275<224.331 326.617>
VStem: 33.6475 63.0625<439.145 628.181> 323.579 54.9663<435.764 582.07>
LayerCount: 2
Fore
SplineSet
325.86625 849 m 1
 331.85 793.1725 l 1
 98.61875 781.49875 94.50125 614.37875 94.50125 614.37875 c 1
 94.50125 614.37875 125.25 673.09625 223.21875 673.09625 c 0
 313.5075 673.09625 378.545 608.77 378.545 511.21375 c 0
 378.545 421.385 331.71625 342 210.90375 342 c 0
 105.05375 342 33.6475 409.32625 33.6475 553 c 0
 33.6475 695 103.5725 835 325.86625 849 c 1
96.71 509.31 m 0
 96.71 439.2825 141.49125 394.8275 210.90375 394.8275 c 0
 280.12375 394.8275 323.57875 439.2825 323.57875 509.31 c 0
 323.57875 579.24125 280.12375 623.73375 210.90375 623.73375 c 0
 141.49125 623.73375 96.71 579.24125 96.71 509.31 c 0
EndSplineSet
EndChar

StartChar: seven.superior
Encoding: 664 8311 155
Width: 379
Flags: W
HStem: 779.21 57.79<93.3038 301.862>
LayerCount: 2
Fore
SplineSet
24.7438964844 662.969970703 m 1
 43.47625 837 l 1
 342.75375 837 l 1
 365.83375 795.85625 l 1
 185.14875 338.71125 l 1
 127.89375 358.02625 l 1
 301.8625 780.21 l 1
 93.30375 779.21 l 1
 80.785 659.00625 l 1
 24.7438964844 662.969970703 l 1
EndSplineSet
EndChar

StartChar: eight.superior
Encoding: 665 8312 156
Width: 412
Flags: W
HStem: 342 53.8275<124.426 288.012> 791.75 51.25<136.588 280.262>
VStem: 33.6475 55.1962<430.246 541.483> 55.8563 55.1<667.304 766.437> 309.119 51.9825<656.151 764.589> 321.788 58.025<427.083 532.41>
LayerCount: 2
Fore
SplineSet
204.46 395.8275 m 0xe4
 277.62125 395.8275 321.7875 427.245 321.7875 477.775 c 0xe4
 321.7875 523.13375 292.9425 556.1075 200.4125 583.375 c 0
 103.375 610.81875 55.85625 652.58875 55.85625 715.995 c 0
 55.85625 794.075 115.93625 843 210.13375 843 c 0
 302.79125 843 361.10125 797.32625 361.10125 715.17125 c 0
 361.10125 614.46 245.09625 583.09125 245.09625 583.09125 c 1
 214.01125 607.79125 l 1
 214.01125 607.79125 309.11875 639.7375 309.11875 708.89875 c 0
 309.11875 760.3325 271.50875 791.75 209.23 791.75 c 0
 148.2775 791.75 110.95625 761.9475 110.95625 714.74375 c 0xd8
 110.95625 677.4975 131.79351048 654.115360405 220.1175 627.545 c 0
 336.94625 592.6025 379.8125 555.9675 379.8125 478.67875 c 0
 379.8125 393.21375 314.695 342 207.32625 342 c 0
 103.05375 342 33.6475 397 33.6475 481 c 0
 33.6475 589.01625 163.1025 624.765 163.1025 624.765 c 1
 196.4975 598.23625 l 1
 196.4975 598.23625 88.84375 562.43375 88.84375 486.31 c 0
 88.84375 431.705 134.4325 395.8275 204.46 395.8275 c 0xe4
EndSplineSet
EndChar

StartChar: nine.superior
Encoding: 666 8313 157
Width: 412
Flags: W
HStem: 336 55.8275<93.6602 193.179> 512.808 48.4588<130.619 272.769> 790.173 52.8275<131.882 271.535>
VStem: 33.6475 54.9662<603.14 749.236> 315.771 63.0625<556.819 745.855>
LayerCount: 2
Fore
SplineSet
94.32125 336 m 1
 89.04875 391.8275 l 1
 313.95875 403.50125 317.7875 570.91 317.7875 570.91 c 1
 317.7875 570.91 287.03875 512.8075 189.07 512.8075 c 0
 98.78125 512.8075 33.6475 576.845 33.6475 673.78625 c 0
 33.6475 763.615 80.47625 843 202.1925 843 c 0
 308.0425 843 378.83375 775.67375 378.83375 632 c 0
 378.83375 490 310.75375 350 94.32125 336 c 1
315.77125 675.69 m 0
 315.77125 745.7175 271.08625 790.1725 201.67375 790.1725 c 0
 132.165 790.1725 88.61375 745.7175 88.61375 675.69 c 0
 88.61375 605.75875 132.165 561.26625 201.67375 561.26625 c 0
 271.08625 561.26625 315.77125 605.75875 315.77125 675.69 c 0
EndSplineSet
EndChar

StartChar: zero.inferior
Encoding: 667 8320 158
Width: 449
Flags: W
HStem: -358 55.485<150.046 299.693> 87.515 55.485<150.046 299.693>
VStem: 21.1713 55.3513<-217.906 1.63902> 373.804 55.3513<-217.906 1.63902>
LayerCount: 2
Fore
SplineSet
76.5225 -109 m 0
 76.5225 -226.755 134.37875 -302.515 224.71125 -302.515 c 0
 315.65875 -302.515 373.80375 -226.755 373.80375 -109 c 0
 373.80375 11.46625 315.65875 87.515 224.71125 87.515 c 0
 134.37875 87.515 76.5225 11.46625 76.5225 -109 c 0
21.17125 -109 m 0
 21.17125 45 99.94125 143 224.71125 143 c 0
 349.5775 143 429.155 45 429.155 -109 c 0
 429.155 -261 349.5775 -358 224.71125 -358 c 0
 99.94125 -358 21.17125 -261 21.17125 -109 c 0
EndSplineSet
EndChar

StartChar: one.inferior
Encoding: 668 8321 159
Width: 239
Flags: W
HStem: 86.365 50.635<33.145 134.525>
VStem: 131.525 59.025<-350 87.365>
LayerCount: 2
Fore
SplineSet
187.26125 137 m 1
 190.55 -350 l 1
 131.525 -350 l 1
 134.525 87.365 l 1
 30.43375 86.365 l 1
 33.145 137 l 1
 187.26125 137 l 1
EndSplineSet
EndChar

StartChar: two.inferior
Encoding: 669 8322 160
Width: 395
Flags: W
HStem: -350 53.2337<140.917 359.641> 86.6325 56.3675<90.861 253.338>
VStem: 289.424 60.2175<-105.085 52.124>
LayerCount: 2
Fore
SplineSet
140.9175 -296.76625 m 1
 140.9175 -296.76625 362.64125 -292.76625 362.64125 -292.76625 c 1
 359.64125 -350 l 1
 38.51375 -350 l 1
 33.6475 -308.46625 l 1
 33.6475 -308.46625 289.42375 -189.73375 289.42375 -22.98875 c 0
 289.42375 50.96375 249.46625 86.6325 181.4925 86.6325 c 0
 101.74875 86.6325 53.695 41.30625 53.695 41.30625 c 1
 31.35875 92 l 1
 31.35875 92 89.47625 143 187.32625 143 c 0
 292.0425 143 349.64125 82.845 349.64125 -12.695 c 0
 349.64125 -192.8725 140.9175 -296.76625 140.9175 -296.76625 c 1
EndSplineSet
EndChar

StartChar: three.inferior
Encoding: 670 8323 161
Width: 386
Flags: W
HStem: -357.904 52.5387<48.8929 254.863> -115.475 39.6137<180.565 259.925> 80.1137 56.8863<40.3588 257.381>
VStem: 294.942 57.6988<-269.235 -145.828>
LayerCount: 2
Fore
SplineSet
180.565 -75.86125 m 1
 184.03 -75.86125 197.58625 -71.32625 223.30875 -72.385 c 0
 298.16 -76.62 352.64125 -123.32625 352.64125 -206.94125 c 0
 352.64125 -305.615 284.85 -357.90375 178 -357.90375 c 0
 71.28375 -357.90375 25.6475 -328 25.6475 -328 c 1
 42.4975 -280.825 l 1
 42.4975 -280.825 93.17125 -305.365 163.23 -305.365 c 0
 256.14 -305.365 294.9425 -267.7175 294.9425 -204.075 c 0
 294.9425 -151.93 256.9475 -115.475 191.08625 -115.475 c 0
 133.7275 -115.475 103.09625 -138.25625 103.09625 -138.25625 c 1
 86.09625 -104.47625 l 1
 257.38125 81.4025 l 1
 35.455 80.11375 l 1
 40.35875 137 l 1
 331.7375 137 l 1
 338.64125 96.69625 l 1
 180.565 -75.86125 l 1
EndSplineSet
EndChar

StartChar: four.inferior
Encoding: 671 8324 162
Width: 453
Flags: W
HStem: -207.01 49.9613<101.501 416.989>
VStem: 273.53 58.6187<-350 71.15>
LayerCount: 2
Fore
SplineSet
328.14875 71.15 m 1
 332.14875 -350 l 1
 273.53 -350 l 1
 277.53 71.15 l 1
 328.14875 71.15 l 1
249.1825 155.90375 m 1
 294.4325 127.22 l 1
 101.50125 -157.04875 l 1
 418.8925 -156.76 l 1
 416.98875 -209.29875 l 1
 40.1125 -207.01 l 1
 29.35875 -174.74875 l 1
 249.1825 155.90375 l 1
EndSplineSet
EndChar

StartChar: five.inferior
Encoding: 672 8325 163
Width: 401
Flags: W
HStem: -357.904 53.7688<56.079 264.119> -86.6513 52.0363<111.791 271.684> 82.1725 54.8275<121.972 330.449>
VStem: 310.407 57.1587<-260.378 -125.007>
LayerCount: 2
Fore
SplineSet
330.44875 81.1725 m 1
 121.9725 82.1725 l 1
 94.9775 -68.78125 l 1
 94.9775 -68.78125 125.41625 -34.615 208.4275 -34.615 c 0
 317.7 -34.615 367.56625 -100.92 367.56625 -191.4225 c 0
 367.56625 -302.5025 295.25625 -357.90375 181.79125 -357.90375 c 0
 66.615 -357.90375 17.6525 -321 17.6525 -321 c 1
 34.6575 -273.3275 l 1
 34.6575 -273.3275 92.98375 -304.135 174.54 -304.135 c 0
 265.89375 -304.135 310.4075 -261.2575 310.4075 -193.32625 c 0
 310.4075 -128.10625 271.2575 -86.65125 195.5725 -86.65125 c 0
 119.9675 -86.65125 81.60375 -130.26125 81.60375 -130.26125 c 1
 35.74375 -102.23 l 1
 77.55125 137 l 1
 330.44875 137 l 1
 330.44875 81.1725 l 1
EndSplineSet
EndChar

StartChar: six.inferior
Encoding: 673 8326 164
Width: 412
Flags: W
HStem: -358 52.8275<139.142 280.657> -76.2662 49.3625<139.646 281.748> 93.1725 55.8275<225.062 327.443>
VStem: 33.6475 63.0625<-260.855 -71.8192> 323.868 54.9663<-264.236 -117.93>
LayerCount: 2
Fore
SplineSet
326.77 149 m 1
 332.13875 93.1725 l 1
 98.61875 81.49875 94.50125 -86.23625 94.50125 -86.23625 c 1
 94.50125 -86.23625 125.25 -26.90375 223.21875 -26.90375 c 0
 313.5075 -26.90375 378.83375 -91.23 378.83375 -188.78625 c 0
 378.83375 -278.615 331.71625 -358 210.90375 -358 c 0
 104.765 -358 33.6475 -290.67375 33.6475 -147 c 0
 33.6475 -5 104.1875 135 326.77 149 c 1
96.71 -190.69 m 0
 96.71 -260.7175 141.49125 -305.1725 210.90375 -305.1725 c 0
 280.12375 -305.1725 323.8675 -260.7175 323.8675 -190.69 c 0
 323.8675 -120.75875 280.12375 -76.26625 210.90375 -76.26625 c 0
 141.49125 -76.26625 96.71 -120.75875 96.71 -190.69 c 0
EndSplineSet
EndChar

StartChar: seven.inferior
Encoding: 674 8327 165
Width: 379
Flags: W
HStem: 78.595 58.405<93.3038 301.862>
LayerCount: 2
Fore
SplineSet
24.7438964844 -37.0300292969 m 1
 43.47625 137 l 1
 342.13875 137 l 1
 365.21875 95.24125 l 1
 185.14875 -361.28875 l 1
 127.89375 -342.58875 l 1
 301.8625 79.595 l 1
 93.30375 78.595 l 1
 80.785 -41.60875 l 1
 24.7438964844 -37.0300292969 l 1
EndSplineSet
EndChar

StartChar: eight.inferior
Encoding: 675 8328 166
Width: 411
Flags: W
HStem: -358 53.8275<124.145 288.219> 91.75 51.25<137.861 279.24>
VStem: 33.6475 55.1962<-269.75 -158.835> 55.8563 55.1<-32.9718 66.1727> 308.215 51.9825<-43.9063 63.8124> 320.884 58.025<-273.113 -167.765>
LayerCount: 2
Fore
SplineSet
203.845 -304.1725 m 0xe4
 276.1025 -304.1725 320.88375 -273.37 320.88375 -222.84 c 0xe4
 320.88375 -177.48125 292.9425 -143.8925 200.4125 -116.625 c 0
 103.375 -89.18125 55.85625 -48.02625 55.85625 15.38 c 0
 55.85625 93.46 115.0325 143 209.23 143 c 0
 301.8875 143 360.1975 97.23 360.1975 15.075 c 0
 360.1975 -85.3475 243.90375 -116.62 243.90375 -116.62 c 1
 213.145 -92.305 l 1
 213.145 -92.305 308.215 -60.6475 308.215 8.89875 c 0
 308.215 60.3325 269.99 91.75 208.32625 91.75 c 0
 148.2775 91.75 110.95625 61.9475 110.95625 14.74375 c 0xd8
 110.95625 -22.5025 131.75215213 -46.0334948 219.5025 -72.455 c 0
 336.0425 -107.3975 378.90875 -144.0325 378.90875 -221.32125 c 0
 378.90875 -306.78625 314.40625 -358 207.0375 -358 c 0
 102.765 -358 33.6475 -302 33.6475 -219 c 0
 33.6475 -110.98375 161.91 -75.85 161.91 -75.85 c 1
 195.01625 -102.09 l 1
 195.01625 -102.09 88.84375 -138.18125 88.84375 -214.305 c 0
 88.84375 -268.91 133.8175 -304.1725 203.845 -304.1725 c 0xe4
EndSplineSet
EndChar

StartChar: nine.inferior
Encoding: 676 8329 167
Width: 412
Flags: W
HStem: -364 55.8275<93.6602 193.179> -187.192 48.4587<130.619 272.769> 90.1725 52.8275<131.882 271.535>
VStem: 33.6475 54.9662<-96.8595 49.2357> 315.771 63.0625<-143.181 45.8553>
LayerCount: 2
Fore
SplineSet
94.32125 -364 m 1
 89.04875 -308.1725 l 1
 313.95875 -296.49875 317.7875 -128.475 317.7875 -128.475 c 1
 317.7875 -128.475 287.03875 -187.1925 189.07 -187.1925 c 0
 98.78125 -187.1925 33.6475 -123.155 33.6475 -26.21375 c 0
 33.6475 63.615 80.47625 143 202.1925 143 c 0
 308.0425 143 378.83375 75.67375 378.83375 -68 c 0
 378.83375 -210 310.75375 -350 94.32125 -364 c 1
315.77125 -24.31 m 0
 315.77125 45.7175 271.08625 90.1725 201.67375 90.1725 c 0
 132.165 90.1725 88.61375 45.7175 88.61375 -24.31 c 0
 88.61375 -94.24125 132.165 -138.73375 201.67375 -138.73375 c 0
 271.08625 -138.73375 315.77125 -94.24125 315.77125 -24.31 c 0
EndSplineSet
EndChar

StartChar: fraction
Encoding: 655 8260 168
Width: 238
Flags: W
LayerCount: 2
Fore
SplineSet
411.329101562 705.43359375 m 1
 154.708984375 343.799804688 l 1
 -71.7412109375 -15 l 1
 -135.5703125 24.5 l 1
 124.908203125 376.700195312 l 1
 354.099609375 743.93359375 l 1
 411.329101562 705.43359375 l 1
EndSplineSet
EndChar

StartChar: perthousand
Encoding: 646 8240 169
Width: 1159
Flags: W
HStem: -10 58.0576<600.442 732.207 886.115 1017.87> 302.725 58.1543<600.442 732.207 886.115 1017.87> 368.113 58.0576<143.693 284.623> 680.838 58.1543<143.693 284.623>
VStem: 37.0205 58.8037<475.879 632.067> 332.784 58.8359<475.879 632.067> 497.021 59.8037<94.4475 257.234> 776.284 66.04<97.9141 253.543> 787.021 44.5996<64.4329 291.081> 1061.78 59.8359<94.4477 257.234>
LayerCount: 2
Fore
SplineSet
95.82421875 554.370117188 m 0xfe40
 95.82421875 476.026333204 141.786670587 426.170898438 214.015625 426.170898438 c 0
 286.596504767 426.170898438 332.784179688 476.026333204 332.784179688 554.370117188 c 0
 332.784179688 631.656351018 286.596504767 680.837890625 214.015625 680.837890625 c 0
 141.786670587 680.837890625 95.82421875 631.656351018 95.82421875 554.370117188 c 0xfe40
37.0205078125 554.512695312 m 0
 37.0205078125 667.250454842 105.845585678 738.9921875 214 738.9921875 c 0
 322.545813922 738.9921875 391.620117188 667.250454842 391.620117188 554.512695312 c 0
 391.620117188 440.601747797 322.545813922 368.11328125 214 368.11328125 c 0
 105.845585678 368.11328125 37.0205078125 440.601747797 37.0205078125 554.512695312 c 0
842.32421875 176.256835938 m 0xff40
 842.32421875 97.9141109339 885.174692101 48.0576171875 952.515625 48.0576171875 c 0
 1019.29097458 48.0576171875 1061.78417969 97.9141109339 1061.78417969 176.256835938 c 0
 1061.78417969 253.543584009 1019.29097458 302.724609375 952.515625 302.724609375 c 0
 885.174692101 302.724609375 842.32421875 253.543584009 842.32421875 176.256835938 c 0xff40
787.020507812 181.399414062 m 0xfec0
 787.020507812 291.081274564 852.92915194 360.87890625 956.5 360.87890625 c 0
 1057.40687601 360.87890625 1121.62011719 289.136828688 1121.62011719 176.399414062 c 0
 1121.62011719 62.4881854989 1057.40687601 -10 956.5 -10 c 0
 852.92915194 -10 787.020507812 64.4326171878 787.020507812 181.399414062 c 0xfec0
556.82421875 176.256835938 m 0
 556.82421875 97.913051954 599.092296298 48.0576171875 665.515625 48.0576171875 c 0
 733.207609389 48.0576171875 776.284179688 97.913051954 776.284179688 176.256835938 c 0xff40
 776.284179688 253.543069768 733.207609389 302.724609375 665.515625 302.724609375 c 0
 599.092296298 302.724609375 556.82421875 253.543069768 556.82421875 176.256835938 c 0
497.020507812 176.399414062 m 0
 497.020507812 289.137173592 560.984494358 360.87890625 661.5 360.87890625 c 0
 765.462472704 360.87890625 831.620117188 291.08161012 831.620117188 181.399414062 c 0xfec0
 831.620117188 64.4329057754 765.462472704 -10 661.5 -10 c 0
 560.984494358 -10 497.020507812 62.4884665475 497.020507812 176.399414062 c 0
EndSplineSet
Refer: 168 8260 N 1 0 0 1 304 0 2
EndChar

StartChar: uni2031
Encoding: 647 8241 170
Width: 1439
Flags: W
HStem: -10 58.0576<600.442 732.207 883.681 1012.74 1166.12 1297.87> 302.725 58.1543<600.442 732.207 883.681 1012.74 1166.12 1297.87> 368.113 58.0576<143.693 284.623> 680.838 58.1543<143.693 284.623>
VStem: 37.0205 58.8037<475.879 632.067> 332.784 58.8359<475.879 632.067> 497.021 59.8037<94.4475 257.234> 776.284 65.04<97.9141 253.543> 784.521 47.0996<64.4329 291.081> 1056.78 65.54<97.9141 253.544> 1067.02 44.5996<64.4326 291.081> 1341.78 59.8359<93.7153 256.599>
LayerCount: 2
Fore
SplineSet
95.82421875 554.370117188 m 0xfe10
 95.82421875 476.026333204 141.786670587 426.170898438 214.015625 426.170898438 c 0
 286.596504767 426.170898438 332.784179688 476.026333204 332.784179688 554.370117188 c 0
 332.784179688 631.656351018 286.596504767 680.837890625 214.015625 680.837890625 c 0
 141.786670587 680.837890625 95.82421875 631.656351018 95.82421875 554.370117188 c 0xfe10
37.0205078125 554.512695312 m 0
 37.0205078125 667.250454842 105.845585678 738.9921875 214 738.9921875 c 0
 322.545813922 738.9921875 391.620117188 667.250454842 391.620117188 554.512695312 c 0
 391.620117188 440.601747797 322.545813922 368.11328125 214 368.11328125 c 0
 105.845585678 368.11328125 37.0205078125 440.601747797 37.0205078125 554.512695312 c 0
1122.32421875 176.256835938 m 0xfe50
 1122.32421875 97.9141109339 1165.17469211 48.0576171875 1232.515625 48.0576171875 c 0
 1299.29097459 48.0576171875 1341.78417969 97.9141109339 1341.78417969 176.256835938 c 0
 1341.78417969 253.543584009 1299.29097459 302.724609375 1232.515625 302.724609375 c 0
 1165.17469211 302.724609375 1122.32421875 253.543584009 1122.32421875 176.256835938 c 0xfe50
1067.02050781 181.399414062 m 0xfe30
 1067.02050781 291.081274564 1132.92915194 360.87890625 1236.5 360.87890625 c 0
 1337.40687601 360.87890625 1401.62011719 291.081274564 1401.62011719 181.399414062 c 0
 1401.62011719 64.4326171878 1337.40687601 -10 1236.5 -10 c 0
 1132.92915194 -10 1067.02050781 64.4326171877 1067.02050781 181.399414062 c 0xfe30
841.32421875 176.256835938 m 0xff50
 841.32421875 97.9141109339 882.716417989 48.0576171875 947.765625 48.0576171875 c 0
 1014.38819653 48.0576171875 1056.78417969 97.9141109339 1056.78417969 176.256835938 c 0
 1056.78417969 253.543584009 1014.38819653 302.724609375 947.765625 302.724609375 c 0
 882.716417989 302.724609375 841.32421875 253.543584009 841.32421875 176.256835938 c 0xff50
784.520507812 181.399414062 m 0xfeb0
 784.520507812 291.081274564 847.998598127 360.87890625 947.75 360.87890625 c 0
 1047.89298609 360.87890625 1111.62011719 291.081274564 1111.62011719 181.399414062 c 0
 1111.62011719 64.4326171877 1047.89298609 -10 947.75 -10 c 0
 847.998598127 -10 784.520507812 64.4326171877 784.520507812 181.399414062 c 0xfeb0
556.82421875 176.256835938 m 0
 556.82421875 97.913051954 599.092296298 48.0576171875 665.515625 48.0576171875 c 0
 733.207609389 48.0576171875 776.284179688 97.913051954 776.284179688 176.256835938 c 0xff10
 776.284179688 253.543069768 733.207609389 302.724609375 665.515625 302.724609375 c 0
 599.092296298 302.724609375 556.82421875 253.543069768 556.82421875 176.256835938 c 0
497.020507812 176.399414062 m 0
 497.020507812 289.137173592 560.984494358 360.87890625 661.5 360.87890625 c 0
 765.462472704 360.87890625 831.620117188 291.08161012 831.620117188 181.399414062 c 0xfe90
 831.620117188 64.4329057752 765.462472704 -10 661.5 -10 c 0
 560.984494358 -10 497.020507812 62.4884665475 497.020507812 176.399414062 c 0
EndSplineSet
Refer: 168 8260 N 1 0 0 1 304 0 2
EndChar

StartChar: Lslash
Encoding: 255 321 171
Width: 620
Flags: W
HStem: 0 66.293<234.064 581.539> 665.084 65.9258<46.1201 163.151>
VStem: 158.43 75.6348<66.293 665.084>
LayerCount: 2
Fore
SplineSet
443 492.5 m 1
 469.5 426 l 1
 221.5 327.793945312 l 1
 34 237 l 1
 11 306.5 l 1
 203 373.75 l 1
 443 492.5 l 1
EndSplineSet
Refer: 44 76 N 1 0 0 1 0 0 2
EndChar

StartChar: lslash
Encoding: 256 322 172
Width: 387
Flags: W
HStem: 0 54.6475<234.139 358.839> 502 20G<341.275 383.984> 700.825 54.1768<48.3201 173.141>
VStem: 168.82 65.3188<54.6475 700.825>
LayerCount: 2
Fore
SplineSet
378 522 m 9
 397 458.5 l 17
 219 382.793945312 l 1
 34 290 l 9
 11 356.5 l 17
 193 421.25 l 1
 378 522 l 9
EndSplineSet
Refer: 8 108 N 1 0 0 1 0 0 2
EndChar

StartChar: quoteright
Encoding: 635 8217 173
Width: 229
Flags: W
HStem: 445 320
VStem: 37.75 137.75
LayerCount: 2
Fore
SplineSet
43.5 738 m 9
 106.5 765 l 1
 175.5 626 l 1
 85 445 l 1
 37.75 469 l 17
 107.75 618 l 1
 43.5 738 l 9
EndSplineSet
EndChar

StartChar: uni2120
Encoding: 702 8480 179
Width: 540
Flags: W
HStem: 725.085 41.3193<196 257.327>
VStem: 20.501 41.1572<650.804 707.987> 130.799 43.6357<523.711 594.544>
LayerCount: 2
Fore
SplineSet
150.276367188 765.357421875 m 1
 150.276367188 765.357421875 20.5009765625 763.00094847 20.5009765625 679.166015625 c 0
 20.5009765625 642.47070737 42.9749317299 624.933987595 88.3933105469 605.451904297 c 0
 125.557616616 589.575951501 130.798828125 577.357150738 130.798828125 560.900390625 c 0
 130.798828125 502.785254616 26.388671875 501.173828125 26.388671875 501.173828125 c 1
 32.02734375 462.049804688 l 1
 32.02734375 462.049804688 174.434570312 464.234075615 174.434570312 562.918945312 c 0
 174.434570312 596.677825323 155.192331136 615.663034325 111.792236328 635.092773438 c 0
 68.1880010538 654.825678504 61.658203125 665.465533478 61.658203125 680.274414062 c 0
 61.658203125 721.479981135 155.1171875 730.337890625 155.1171875 730.337890625 c 1
 150.276367188 765.357421875 l 1
257.327148438 725.084960938 m 1
 196 722.631835938 l 1
 194.248046875 762.404296875 l 1
 301.591796875 766.404296875 l 1
 376.5 617.299804688 l 1
 449.349609375 766 l 1
 492.200195312 762.400390625 l 1
 530.799804688 472 l 1
 487 466.400390625 l 1
 458.899658203 703.650390625 l 1
 375.950195312 538.75 l 1
 292.549804688 700.799804688 l 1
 260.950195312 467.599609375 l 1
 223.299804688 471.349609375 l 1
 257.327148438 725.084960938 l 1
EndSplineSet
EndChar

StartChar: trademark
Encoding: 703 8482 180
Width: 608
Flags: W
HStem: 725.7 12.833<95.9609 136.142> 725.732 36.6719<10.4482 95.9609 136.142 222.492 263.2 324.527>
VStem: 94.2324 43.5312<470 737.7>
LayerCount: 2
Fore
SplineSet
136.141601562 737.700195312 m 1xa0
 137.763671875 470 l 1
 94.232421875 470 l 1
 95.9609375 738.533203125 l 1
 136.141601562 737.700195312 l 1xa0
116.841796875 725.700195312 m 1
 9 725.732421875 l 1
 10.4482421875 762.404296875 l 1
 222.4921875 762.404296875 l 1x60
 224.845703125 724.099609375 l 1
 116.841796875 725.700195312 l 1
324.52734375 725.084960938 m 1
 263.200195312 722.631835938 l 1
 261.448242188 762.404296875 l 1
 368.791992188 766.404296875 l 1
 443.700195312 617.299804688 l 1
 516.549804688 766 l 1
 559.400390625 762.400390625 l 1
 598 472 l 1
 554.200195312 466.400390625 l 1
 526.099609375 703.650390625 l 1
 443.150390625 538.75 l 1
 359.75 700.799804688 l 1
 328.150390625 467.599609375 l 1
 290.5 471.349609375 l 1
 324.52734375 725.084960938 l 1
EndSplineSet
EndChar

StartChar: uni2117
Encoding: 701 8471 181
Width: 795
Flags: W
HStem: -10.0664 48.377<271.922 522.98> 274.399 48.1201<335.016 505.906> 539.574 48.6594<278.455 501.339> 693.14 45.7939<271.922 522.98>
VStem: 30 48<234.788 491.42> 280.474 54.7393<144.839 304.338 349.364 547.588> 545.522 51.24<361.585 497.345> 716.617 48.3828<234.788 491.42>
LayerCount: 2
Fore
SplineSet
335.213281251 144.838671875 m 1
 280.474023438 144.838671875 l 1
 284.176171875 547.588476563 l 1
 333.214257813 547.588476563 l 1
 335.213281251 144.838671875 l 1
322.729492188 349.3640625 m 1
 322.729492188 349.3640625 350.946601211 322.51875 423.962304688 322.51875 c 0
 503.636356693 322.51875 545.522265625 361.84324863 545.522265625 425.358398438 c 0
 545.522265625 501.835634737 502.215267615 539.573828125 406.562109374 539.573828125 c 0
 307.229996797 539.573828125 218.793554688 495.195117187 218.793554688 495.195117187 c 1
 201.591601563 543.74296875 l 1
 201.591601563 543.74296875 265.768230017 588.233203125 416.762304687 588.233203125 c 0
 527.809737722 588.233203125 596.762304688 528.373342131 596.762304688 423.798046875 c 0
 596.762304688 333.189393448 534.383509232 274.398632813 433.562304688 274.398632813 c 0
 355.791727917 274.398632813 308.966210938 304.338476562 308.966210938 304.338476562 c 1
 322.729492188 349.3640625 l 1
30 361.93359375 m 0
 30 592.322641811 172.722067272 738.93359375 397 738.93359375 c 0
 621.889353198 738.93359375 765 592.322641811 765 361.93359375 c 0
 765 134.599173678 621.889353198 -10.06640625 397 -10.06640625 c 0
 172.722067272 -10.06640625 30 134.599173678 30 361.93359375 c 0
78 361.93359375 m 0
 78 164.16352858 202.443333333 38.310546875 398 38.310546875 c 0
 592.711017198 38.310546875 716.6171875 164.16352858 716.6171875 361.93359375 c 0
 716.6171875 564.338895736 592.711017198 693.139648438 398 693.139648438 c 0
 202.443333333 693.139648438 78 564.338895736 78 361.93359375 c 0
EndSplineSet
EndChar

StartChar: lira
Encoding: 679 8356 182
Width: 576
Flags: W
HStem: 0 66.293<144.064 521.539> 245.5 61.5<158.866 418> 253.5 52.5<24 382.938> 385.5 61.5<180.198 428> 393.5 52.5<34 395.75>
VStem: 68.4297 75.6348<66.293 227.921>
LayerCount: 2
Back
SplineSet
14 326 m 1
 430 327 l 1
 428 218 l 1
 12 226 l 1
 14 326 l 1
24 466 m 1
 440 467 l 1
 438 358 l 1
 22 366 l 1
 24 466 l 1
EndSplineSet
Fore
SplineSet
24 306 m 1xa4
 155.5 302.466796875 l 1
 420 307 l 1
 418 245.5 l 1xc4
 137.5 253.077148438 l 1
 22 253.5 l 1
 24 306 l 1xa4
34 446 m 1x8c
 180 443 l 1
 430 447 l 1
 428 385.5 l 1x94
 170 392.788085938 l 1
 32 393.5 l 1
 34 446 l 1x8c
144.064453125 66.29296875 m 1
 525.159179688 67.9306640624 l 1
 521.5390625 0 l 1
 68.4296875 0 l 1
 89.4187518606 452.125433501 180.496678415 643.005046291 466.930664062 747.6640625 c 1
 488.798828125 684.354492188 l 1
 248.082965677 596.814732983 158.135397539 423.610789746 144.064453125 66.29296875 c 1
EndSplineSet
EndChar

StartChar: Euro
Encoding: 684 8364 183
Width: 541
Flags: W
HStem: -33.0664 67.25<370.184 480.333> 253 67.75<311.764 419.572> 261 62.5<32 223.252> 404.25 67.75<342.762 445.978> 686.492 62.5<387.979 487.396>
VStem: 83 69<278.583 405.862>
LayerCount: 2
Fore
SplineSet
32 323.5 m 1xbc
 208 317.0078125 l 1
 430.83984375 320.75 l 1
 418.2734375 253 l 1xdc
 202 267.213867188 l 1
 30 261 l 1
 32 323.5 l 1xbc
35 471 m 1
 218 457.45703125 l 1
 458.543945312 472 l 1
 445.977539062 404.25 l 1
 210 410.463867188 l 1
 33 408.5 l 1
 35 471 l 1
479.5 -33.06640625 m 1
 229.880381258 -13.3298471102 83 120.543550932 83 361.93359375 c 0
 83 598.46956446 239.916496307 728.46176596 486.5 748.9921875 c 1
 494.5 686.4921875 l 1
 277.898642392 663.765668101 152 560.276771899 152 361.93359375 c 0
 152 161.64121582 265.509741211 50.1457096906 487.5 34.18359375 c 1
 479.5 -33.06640625 l 1
EndSplineSet
EndChar

StartChar: uni20B5
Encoding: 691 8373 184
Width: 461
Flags: W
HStem: 0 21G<260.82 327.82> 91.9014 33.0986<267.82 318.82> 521.858 21G<430.112 440.31> 586.5 32.957<265.82 316.82> 719 20G<256.82 323.82>
VStem: 44.5 66.2197<253.266 464.398> 265.82 51<586.5 705.111>
LayerCount: 2
Fore
SplineSet
327.8203125 0 m 1
 260.8203125 0 l 1
 267.8203125 125 l 1
 318.8203125 125 l 1
 327.8203125 0 l 1
256.8203125 739 m 1
 323.8203125 739 l 1
 316.8203125 586.5 l 1
 265.8203125 586.5 l 1
 256.8203125 739 l 1
44.5 357.576171875 m 0
 44.5 517.614257812 141.424414363 619.45703125 293.735351562 619.45703125 c 0
 406.329101562 619.45703125 454.184570312 569.0703125 454.184570312 569.0703125 c 1
 430.112304688 521.858398438 l 1
 430.112304688 521.858398438 377.30314938 560.7890625 295.186523438 560.7890625 c 0
 182.45516712 560.7890625 110.719726562 484.145863379 110.719726562 363.708007812 c 0
 110.719726562 234.354097044 174.794750107 152.037109375 300.10546875 152.037109375 c 0
 401.294796188 152.037109375 452.547851562 183.400390625 452.547851562 183.400390625 c 1
 471.774414062 132.869140625 l 1
 471.774414062 132.869140625 428.375976562 91.9013671875 293.735351562 91.9013671875 c 0
 141.424414363 91.9013671875 44.5 195.21875 44.5 357.576171875 c 0
EndSplineSet
EndChar

StartChar: uni20B2
Encoding: 688 8370 185
Width: 542
Flags: W
HStem: 0 21G<260.82 327.82> 91.9014 33.0986<267.82 318.82> 298.989 52.4453<462.416 530.564> 586.5 32.957<265.82 316.82> 719 20G<256.82 323.82>
VStem: 44.5 66.2197<253.266 464.398> 265.82 51<586.5 705.111> 403.807 60.4678<174.349 298.989>
LayerCount: 2
Fore
SplineSet
256.8203125 739 m 1
 323.8203125 739 l 1
 316.8203125 586.5 l 1
 265.8203125 586.5 l 1
 256.8203125 739 l 1
327.8203125 0 m 1
 260.8203125 0 l 1
 267.8203125 125 l 1
 318.8203125 125 l 1
 327.8203125 0 l 1
44.5 357.576171875 m 0
 44.5 517.614257812 141.424414362 619.45703125 293.735351562 619.45703125 c 0
 401.066046175 619.45703125 446.684570312 572.0703125 446.684570312 572.0703125 c 1
 422.612304688 524.108398438 l 1
 422.612304688 524.108398438 372.738605163 560.7890625 295.186523438 560.7890625 c 0
 182.45516712 560.7890625 110.719726562 484.145863376 110.719726562 363.708007812 c 0
 110.719726562 234.354097045 174.794781905 152.037109375 300.10546875 152.037109375 c 0
 370.031084266 152.037109375 403.806640625 174.348632812 403.806640625 174.348632812 c 1
 404.9375 351.434570312 l 1
 530.564453125 351.434570312 l 1
 532.12109375 298.02734375 l 1
 462.416015625 298.989257812 l 1
 464.274414062 131.869140625 l 1
 464.274414062 131.869140625 403.546672951 91.9013671875 293.735351562 91.9013671875 c 0
 141.424414362 91.9013671875 44.5 195.21875 44.5 357.576171875 c 0
EndSplineSet
EndChar

StartChar: uni20AD
Encoding: 685 8365 186
Width: 697
Flags: W
HStem: 0 21G<161.33 237.659> 329.5 68<43.25 85.7997 553.95 623> 335.936 53.5322<71.4581 471.717> 665.084 65.9268<48.6201 165.651>
VStem: 161.33 76.3291<0 665.084>
LayerCount: 2
Fore
SplineSet
43.25 397.5 m 1xd8
 262.75 389.467773438 l 1
 624.25 397 l 1
 623 323.75 l 1
 267.5 335.935546875 l 1xb8
 42 329.5 l 1
 43.25 397.5 l 1xd8
232.229492188 731.010742188 m 1
 237.659179688 0 l 1
 161.330078125 0 l 1
 165.651367188 665.083984375 l 1
 45 663.080078125 l 1
 48.6201171875 731.010742188 l 1
 232.229492188 731.010742188 l 1
568 745.0078125 m 1
 627 691.0078125 l 1
 276 364 l 1
 652 30.5 l 1
 600.5 -27 l 1
 186.5 364 l 1
 568 745.0078125 l 1
EndSplineSet
EndChar

StartChar: uni20AE
Encoding: 686 8366 187
Width: 550
Flags: W
HStem: 0 21G<231.83 308.159> 663 30<236.151 304.104> 663.08 67.9307<41.1201 236.151 304.104 501.229>
VStem: 231.83 76.3291<0 693>
LayerCount: 2
Fore
SplineSet
57.6298828125 167.71484375 m 1x90
 272.971679688 230.834960938 l 1
 484.26953125 306.35546875 l 1
 502.99609375 241.365234375 l 1
 282.78515625 184.768554688 l 1
 74.1806640625 109.556640625 l 1
 57.6298828125 167.71484375 l 1x90
43.33203125 328.859375 m 1
 258.673828125 391.98046875 l 1
 469.971679688 467.5 l 1
 488.698242188 402.509765625 l 1
 268.487304688 345.912109375 l 1
 59.8828125 270.700195312 l 1
 43.33203125 328.859375 l 1
304.103515625 693 m 1xd0
 308.159179688 0 l 1
 231.830078125 0 l 1
 236.151367188 695.083984375 l 1
 304.103515625 693 l 1xd0
272.103515625 663 m 1
 37.5 663.080078125 l 1
 41.1201171875 731.010742188 l 1
 501.229492188 731.010742188 l 1xb0
 507.11328125 659 l 1
 272.103515625 663 l 1
EndSplineSet
EndChar

StartChar: uni20B1
Encoding: 687 8369 188
Width: 722
Flags: W
HStem: 0 21G<167.771 239.003> 212.434 58.75<238.317 467.559> 308.25 55.5<22 199.655> 438.25 55.5<24 185> 483.75 20G<583.279 607.5 607.5 701.38> 675.992 63<238.874 451.437>
VStem: 167.771 71.2324<0 251.934 298.127 300.25 358.217 439.538 488.75 699.25> 560.417 139.583<440.25 504.75> 582 42.917<448.25 503.75>
LayerCount: 2
Fore
SplineSet
566.5 373.75 m 1xe6
 583 368.216796875 l 1
 695 374.75 l 1
 693 310.25 l 1
 557.5 319.827148438 l 1
 542 318.25 l 1
 566.5 373.75 l 1xe6
584 503.75 m 1xee80
 607.5 498.75 l 1
 702 504.75 l 1
 700 440.25 l 1xef
 597.5 449.538085938 l 1
 582 448.25 l 1
 584 503.75 l 1xee80
22 363.75 m 1
 178 358.216796875 l 1
 220.5 364.75 l 1
 218.5 300.25 l 1
 160 309.827148438 l 1
 20 308.25 l 1
 22 363.75 l 1
24 493.75 m 1xf6
 195 488.75 l 1
 213.5 494.75 l 1
 211.5 430.25 l 1
 185 439.538085938 l 1
 22 438.25 l 1
 24 493.75 l 1xf6
239.002929688 0 m 1
 167.770507812 0 l 1
 173.940429688 699.25 l 1
 235.669921875 699.25 l 1
 239.002929688 0 l 1
224.196289062 298.126953125 m 1
 224.196289062 298.126953125 267.071289619 271.18359375 364.416992188 271.18359375 c 0
 494.104752602 271.18359375 560.416992188 346.530594676 560.416992188 464.93359375 c 0xe7
 560.416992188 593.914289919 497.363595522 675.9921875 328.979248047 675.9921875 c 0
 143.208863819 675.9921875 28.76953125 627.927734375 28.76953125 627.927734375 c 1
 14.25 689.090820312 l 1
 14.25 689.090820312 107.031339564 738.9921875 335.229248047 738.9921875 c 0
 517.591995925 738.9921875 624.916992188 633.192103958 624.916992188 466.93359375 c 0xe680
 624.916992188 311.404656562 524.583457451 212.43359375 366.916992188 212.43359375 c 0
 259.770507812 212.43359375 195.2578125 251.93359375 195.2578125 251.93359375 c 1
 224.196289062 298.126953125 l 1
EndSplineSet
EndChar

StartChar: uni20B3
Encoding: 689 8371 189
Width: 768
Flags: W
HStem: 141.712 54<11.25 756> 281.712 54<51.25 716> 655.319 65.6807<133.819 308.449> 662.612 68.3877<214.822 315.758>
LayerCount: 2
Fore
SplineSet
315.7578125 662.612304688 m 1xd0
 133.819335938 655.319335938 l 1
 132.439453125 721 l 1xe0
 407.048828125 731 l 1
 684.450195312 3.6611328125 l 1
 617.926757812 -15 l 1
 374.818359375 644.3671875 l 1
 131.069335938 -15 l 1
 66.2734375 6.25 l 1
 315.7578125 662.612304688 l 1xd0
51.25 335.711914062 m 1
 717.25 335.211914062 l 1
 716 277.461914062 l 1
 50 281.711914062 l 1
 51.25 335.711914062 l 1
11.25 195.711914062 m 1
 757.25 195.211914062 l 1
 756 137.461914062 l 1
 10 141.711914062 l 1
 11.25 195.711914062 l 1
EndSplineSet
EndChar

StartChar: uni20B4
Encoding: 690 8372 190
Width: 598
Flags: W
HStem: 250.25 64.5<270.681 536> 258.25 55.5<173 419.062> 390.25 64.5<413.008 566> 398.25 55.5<42 507.94> 718.393 20G<167.501 169.646>
VStem: 94.75 71.2148<143.992 258.416> 417.067 70.0186<476.238 587.684>
LayerCount: 2
Fore
SplineSet
169.645507812 738.392578125 m 1x0e
 169.645507812 738.392578125 487.0859375 732.523596969 487.0859375 523.740722656 c 0
 487.0859375 453.441187395 446.427414559 398.637969109 313.184570312 343.905273438 c 0
 186.331967534 291.792389239 165.96484375 255.359074364 165.96484375 203.5 c 0
 165.96484375 60.13181308 454.865234375 44.1826171875 454.865234375 44.1826171875 c 1
 448.893554688 -19.8779296875 l 1
 448.893554688 -19.8779296875 94.75 -14.9303117186 94.75 208.544921875 c 0
 94.75 291.501451567 136.634831077 334.598065129 248.301757812 385.900390625 c 0
 385.549806601 448.945111133 417.067382812 480.755145298 417.067382812 532.18359375 c 0
 417.067382812 663.996780933 163.044921875 676.842773438 163.044921875 676.842773438 c 1
 169.645507812 738.392578125 l 1x0e
32 313.75 m 1x4e
 191 308.216796875 l 1
 538 314.75 l 1
 536 250.25 l 1x8e
 173 259.827148438 l 1
 30 258.25 l 1
 32 313.75 l 1x4e
42 453.75 m 1x1e
 373 448.75 l 1
 568 454.75 l 1
 566 390.25 l 1x2e
 363 399.538085938 l 1
 40 398.25 l 1
 42 453.75 l 1x1e
EndSplineSet
EndChar

StartChar: uni20B8
Encoding: 692 8376 191
Width: 590
Flags: W
HStem: 0 21G<251.83 328.159> 475.5 24.584<256.151 324.104> 475.58 65.4307<41.1201 256.151 324.104 541.229> 655.58 75.4307<51.1201 531.229>
VStem: 251.83 76.3291<0 498>
LayerCount: 2
Fore
SplineSet
272.103515625 475.5 m 1xd8
 37.5 475.580078125 l 1
 41.1201171875 541.010742188 l 1
 541.229492188 541.010742188 l 1xb8
 547.11328125 471.5 l 1
 272.103515625 475.5 l 1xd8
324.103515625 498 m 1
 328.159179688 0 l 1
 251.830078125 0 l 1
 256.151367188 500.083984375 l 1xd8
 324.103515625 498 l 1
47.5 655.580078125 m 1
 51.1201171875 731.010742188 l 1
 531.229492188 731.010742188 l 1
 537.11328125 651.5 l 1
 47.5 655.580078125 l 1
EndSplineSet
EndChar

StartChar: uni20B9
Encoding: 693 8377 192
Width: 646
Flags: W
HStem: 258.855 56.5782<197.794 380.482> 441.472 53.2119<129.25 614> 678.492 60.5<50.4769 336.751>
VStem: 456.167 65.25<389.628 574.369>
LayerCount: 2
Fore
SplineSet
129.25 499.68359375 m 1
 472.75 494.68359375 l 1
 615.25 496.93359375 l 1
 614 436.68359375 l 1
 463.5 441.471679688 l 1
 128 440.18359375 l 1
 129.25 499.68359375 l 1
128.196289062 340.376953125 m 1
 128.196289062 340.376953125 175.42857384 315.43359375 282.666992188 315.43359375 c 0
 397.133636366 315.43359375 456.166992188 378.627036355 456.166992188 477.93359375 c 0
 456.166992188 600.498266283 373.357612159 678.4921875 203.916992188 678.4921875 c 0
 93.4736330808 678.4921875 31.76953125 649.927734375 31.76953125 649.927734375 c 1
 18 710.840820312 l 1
 18 710.840820312 71.4488906837 738.9921875 211.916992188 738.9921875 c 0
 408.556402549 738.9921875 521.416992188 650.858398438 521.416992188 480.93359375 c 0
 521.416992188 321.471571039 401.790267549 258.855417756 294.28705269 258.855417756 c 0
 231.47922316 258.855417756 196.240234375 273.290039062 196.240234375 273.290039062 c 1
 506.770507812 17.75 l 1
 460.270507812 -37 l 1
 101.7578125 284.93359375 l 1
 128.196289062 340.376953125 l 1
EndSplineSet
EndChar

StartChar: uni20BA
Encoding: 694 8378 193
Width: 643
Flags: W
HStem: -9.99805 68.877<232.425 425.951> 711.01 20G<160.621 226.777>
VStem: 155.348 75.6348<63.293 731.01> 542.418 69.5<181.926 257.158>
LayerCount: 2
Fore
SplineSet
31.2978515625 287.71484375 m 1
 209.139648438 332.834960938 l 1
 425.6875 408.35546875 l 1
 446.1640625 343.365234375 l 1
 219.953125 285.268554688 l 1
 48.8486328125 229.556640625 l 1
 31.2978515625 287.71484375 l 1
17 448.859375 m 1
 194.841796875 493.98046875 l 1
 411.389648438 569.5 l 1
 431.866210938 504.509765625 l 1
 205.655273438 446.412109375 l 1
 34.55078125 390.700195312 l 1
 17 448.859375 l 1
230.982421875 63.29296875 m 1
 230.982421875 63.29296875 258.740132224 58.87890625 311.380859375 58.87890625 c 0
 425.799191892 58.87890625 527.663737723 107.669412096 542.41796875 267.5 c 1
 611.91796875 256 l 1
 588.935170369 105.546875 524.338667169 -9.998046875 299.91796875 -9.998046875 c 0
 212.289087203 -9.998046875 155.34765625 0 155.34765625 0 c 1
 160.76953125 731.009765625 l 1
 226.647460938 731.009765625 l 1
 230.982421875 63.29296875 l 1
EndSplineSet
EndChar

StartChar: breve
Encoding: 430 728 194
Width: 332
Flags: W
HStem: 631 52.25<93.7878 240.574>
VStem: 15 302
LayerCount: 2
Fore
SplineSet
168 631 m 0
 66.7337707597 631 15 717.5 15 717.5 c 1
 48 748 l 1
 48 748 90.0255342674 683.25 167 683.25 c 0
 240.654069768 683.25 285.75 742 285.75 742 c 1
 317 715.25 l 1
 317 715.25 274.285502959 631 168 631 c 0
EndSplineSet
EndChar

StartChar: dotaccent
Encoding: 431 729 195
Width: 240
Flags: W
HStem: 649.008 90<80.3875 159.613>
VStem: 75 90<654.395 733.62>
LayerCount: 2
Fore
SplineSet
75 694.0078125 m 0
 75 721.507990057 92.4998224432 739.0078125 120 739.0078125 c 0
 147.500177557 739.0078125 165 721.507990057 165 694.0078125 c 0
 165 666.507634943 147.500177557 649.0078125 120 649.0078125 c 0
 92.4998224432 649.0078125 75 666.507634943 75 694.0078125 c 0
EndSplineSet
EndChar

StartChar: ogonek
Encoding: 433 731 196
Width: 207
Flags: W
HStem: -248 44<108.848 188.455>
VStem: 37.5 49.5<-181.811 -68.3226>
LayerCount: 2
Fore
SplineSet
182.5 18 m 1
 182.5 18 87 -63.6888393876 87 -130.75 c 0
 87 -177.691787396 117.981818182 -203.001136365 193.5 -204 c 1
 187.5 -248 l 1
 88.5152284262 -242 37.5 -216.730463477 37.5 -136 c 0
 37.5 -47.52 137.25 22 137.25 22 c 1
 182.5 18 l 1
EndSplineSet
EndChar

StartChar: ring
Encoding: 432 730 197
Width: 307
Flags: W
HStem: 498.113 46.8027<103.925 205.233> 692.093 46.8994<103.925 204.699>
VStem: 33.75 52.1338<563.252 674.543> 222.934 50.916<562.225 673.637>
LayerCount: 2
Fore
SplineSet
85.8837890624 619.416015625 m 0
 85.8837890624 573.888959613 112.55881254 544.916015625 154.479492188 544.916015625 c 0
 196.312630505 544.916015625 222.93359375 573.013937815 222.93359375 617.166015625 c 0
 222.93359375 662.955115073 196.312630505 692.092773438 154.479492188 692.092773438 c 0
 112.55881254 692.092773438 85.8837890624 663.830099301 85.8837890624 619.416015625 c 0
33.75 619.512695312 m 0
 33.75 692.527906327 80.7003243932 738.9921875 154.479492188 738.9921875 c 0
 227.427996709 738.9921875 273.849609375 689.606300444 273.849609375 612 c 0
 273.849609375 542.402270226 227.427996709 498.11328125 154.479492188 498.11328125 c 0
 80.700324393 498.11328125 33.75 545.323854793 33.75 619.512695312 c 0
EndSplineSet
EndChar

StartChar: hungarumlaut
Encoding: 435 733 198
Width: 412
Flags: W
HStem: 524.248 220.246
LayerCount: 2
Fore
SplineSet
356.7578125 744.494140625 m 1
 405.131835938 701.294921875 l 1
 234.743164062 524.248046875 l 1
 201.208984375 554.284179688 l 1
 356.7578125 744.494140625 l 1
166.7578125 744.494140625 m 1
 215.131835938 701.294921875 l 1
 44.7431640625 524.248046875 l 1
 11.208984375 554.284179688 l 1
 166.7578125 744.494140625 l 1
EndSplineSet
EndChar

StartChar: partialdiff
Encoding: 714 8706 199
Width: 615
Flags: W
HStem: -10.0664 62.6748<205.108 383.241> 439.009 57.9248<208.357 392.448> 694.268 59.2432<208.382 294.147>
VStem: 55 62.125<146.826 345.46> 485.375 74.625<179.821 422.255>
LayerCount: 2
Fore
SplineSet
117.125 247.858398438 m 0
 117.125 128.538730979 187.589830312 52.6083984375 291.275390625 52.6083984375 c 0
 405.818926694 52.6083984375 485.375 132.427608448 485.375 257.858398438 c 0
 485.375 368.562054843 408.01730491 439.008789062 298.025390625 439.008789062 c 0
 187.474676921 439.008789062 117.125 364.673201279 117.125 247.858398438 c 0
55 239.93359375 m 0
 55 403.100373145 151.222430269 496.93359375 287 496.93359375 c 0
 441.94689684 496.93359375 500.15234375 383.557617188 500.15234375 383.557617188 c 1
 473.937668414 541.795516194 431.524213209 663.86832577 198.021484375 694.267578125 c 1
 209.770507812 753.510742188 l 1
 451.626595962 732.027172961 560 570.795761438 560 332 c 0
 560 103.182430662 446.104335465 -10.06640625 285.75 -10.06640625 c 0
 155.479736495 -10.06640625 55 87.155085637 55 239.93359375 c 0
EndSplineSet
EndChar

StartChar: emptyset
Encoding: 715 8709 200
Width: 795
Flags: W
HStem: -10.0664 60.377<274.863 526.061> 681.14 57.7939<278.421 522.432>
VStem: 27.5 63<233.528 492.768> 711.617 55.8828<237.134 489.074>
LayerCount: 2
Fore
SplineSet
699.69921875 741.18359375 m 1
 431.080078125 351.049804688 l 1
 174.12890625 -69.75 l 1
 110.30078125 -28.25 l 1
 392.779296875 366.950195312 l 1
 642.470703125 782.68359375 l 1
 699.69921875 741.18359375 l 1
27.5 361.93359375 m 0
 27.5 592.322641811 171.194288439 738.93359375 397 738.93359375 c 0
 623.41713413 738.93359375 767.5 592.322641811 767.5 361.93359375 c 0
 767.5 134.599173678 623.41713413 -10.06640625 397 -10.06640625 c 0
 171.194288439 -10.06640625 27.5 134.599173678 27.5 361.93359375 c 0
90.5 361.93359375 m 0
 90.5 171.496877687 210.082265625 50.310546875 398 50.310546875 c 0
 589.655453581 50.310546875 711.6171875 171.496877687 711.6171875 361.93359375 c 0
 711.6171875 557.005504363 589.655453581 681.139648438 398 681.139648438 c 0
 210.082265625 681.139648438 90.5 557.005504363 90.5 361.93359375 c 0
EndSplineSet
EndChar

StartChar: Delta
Encoding: 716 8710 201
Width: 670
Flags: W
HStem: 0 65.8174<120.086 548.106> 655.319 65.6807<92.8193 267.449> 662.612 68.3877<173.822 274.758>
LayerCount: 2
Fore
SplineSet
274.7578125 662.612304688 m 1xa0
 92.8193359379 655.319335938 l 1
 91.439453125 721 l 1xc0
 366.048828125 731 l 1
 629.75 48.5 l 1
 612.75 0 l 1
 55 0 l 1
 38 44.5 l 1
 274.7578125 662.612304688 l 1xa0
548.106445312 67.1318359376 m 1
 333.818359375 642.1171875 l 1
 120.0859375 65.8173828124 l 1
 548.106445312 67.1318359376 l 1
EndSplineSet
EndChar

StartChar: notequal
Encoding: 726 8800 202
Width: 450
Flags: W
HStem: 215.75 59.5<149.2 404> 225.75 52.5<41 294.8> 391.75 52.5<43 408>
LayerCount: 2
Fore
SplineSet
280.026367188 594.734375 m 1x20
 337.124023438 575.822265625 l 1
 241.0859375 317.234375 l 1
 168.977539062 80.1787109375 l 1
 112.788085938 100.173828125 l 1
 205.328125 341.390625 l 1
 280.026367188 594.734375 l 1x20
EndSplineSet
Refer: 19 61 N 1 0 0 1 0 0 2
EndChar

StartChar: approxequal
Encoding: 725 8776 203
Width: 450
Flags: W
HStem: 478.03 20G<391.728 435.272>
LayerCount: 2
Fore
SplineSet
292.991210938 216.168945312 m 1
 423.649658203 298.030273438 l 1
 446.330078125 259 l 1
 284.950195312 156.959960938 l 1
 157.009765625 292.791015625 l 1
 28.8505859375 209.6796875 l 1
 3.669921875 249.959960938 l 1
 165.05078125 352 l 1
 292.991210938 216.168945312 l 1
292.991210938 416.168945312 m 1
 423.649658203 498.030273438 l 1
 446.330078125 459 l 1
 284.950195312 356.959960938 l 1
 157.009765625 492.791015625 l 1
 28.8505859375 409.6796875 l 1
 3.669921875 449.959960938 l 1
 165.05078125 552 l 1
 292.991210938 416.168945312 l 1
EndSplineSet
EndChar

StartChar: product
Encoding: 717 8719 204
Width: 853
Flags: W
HStem: 662.584 68.4268<48.6201 168.151 235.838 617.979 686.073 805.369>
VStem: 163.83 76.3291<-173.994 662.584> 613.83 76.3291<-173.994 661.128>
LayerCount: 2
Fore
SplineSet
163.830078125 -173.994140625 m 1
 168.151367188 662.583984375 l 1
 45 660.580078125 l 1
 48.6201171875 731.010742188 l 1
 805.369140625 731.010742188 l 1
 808.989257812 660.580078125 l 1
 686.073242188 662.580078125 l 1
 690.159179688 -173.994140625 l 1
 613.830078125 -173.994140625 l 1
 617.979492188 661.127929688 l 1
 235.837890625 662.583984375 l 1
 240.159179688 -173.994140625 l 1
 163.830078125 -173.994140625 l 1
EndSplineSet
EndChar

StartChar: summation
Encoding: 718 8721 205
Width: 670
Flags: W
HStem: -173.994 66.4805<144.768 626.539> 663.08 67.9307<33.6201 138.151 220.354 618.729>
LayerCount: 2
Fore
SplineSet
618.729492188 731.010742188 m 1
 624.61328125 659 l 1
 220.353515625 663 l 1
 416.25 301 l 1
 144.767578125 -107.513671875 l 1
 204.814453125 -107.701171875 l 1
 630.159179688 -106.063476562 l 1
 626.5390625 -173.994140625 l 1
 64.9296875 -173.994140625 l 1
 54.87109375 -115.494140625 l 1
 335.25 300.5 l 1
 138.151367188 665.083984375 l 1
 30 663.080078125 l 1
 33.6201171875 731.010742188 l 1
 618.729492188 731.010742188 l 1
EndSplineSet
EndChar

StartChar: integral
Encoding: 724 8747 206
Width: 523
Flags: W
LayerCount: 2
Fore
SplineSet
443.01953125 797.84375 m 1
 487.7265625 752.374023438 l 1
 309.387695312 569.46484375 l 1
 256.63671875 10 l 1
 55.2275390624 -204 l 1
 9.4775390625 -157.75 l 1
 196.557617188 26.25 l 1
 250.234375 592.096679688 l 1
 443.01953125 797.84375 l 1
EndSplineSet
EndChar

StartChar: angleleft
Encoding: 729 9001 268
Width: 382
Flags: W
LayerCount: 2
Fore
SplineSet
89.63671875 300.836914062 m 1
 361 -170.994140625 l 1
 310.5 -198.994140625 l 1
 21 301.005859375 l 1
 310.5 791.001953125 l 1
 361 763.001953125 l 1
 89.63671875 300.836914062 l 1
EndSplineSet
EndChar

StartChar: angleright
Encoding: 730 9002 269
Width: 382
Flags: W
LayerCount: 2
Fore
SplineSet
292.36328125 291.170898438 m 1
 21 763.001953125 l 1
 71.5 791.001953125 l 1
 361 291.001953125 l 1
 71.5 -198.994140625 l 1
 21 -170.994140625 l 1
 292.36328125 291.170898438 l 1
EndSplineSet
EndChar

StartChar: dcroat
Encoding: 207 273 271
Width: 672
Flags: W
HStem: -10.0664 58<185.056 370.982> 0 53.4268<541.849 658.38> 450.434 56.5<187.076 369.64> 560.75 63.25<506.26 646> 566.5 58.75<292 645.069> 735.002 20G<480.625 539.246>
VStem: 30 60.75<146.679 348.906> 468 73.8486<125.321 371.295> 476.021 37.9795<110.056 406.601> 476.021 65.8281<248.934 755.002>
LayerCount: 2
Fore
SplineSet
292 625.25 m 1x2e
 508 620.25 l 1
 648 624 l 1
 646 560.75 l 1x36
 505.5 567.788085938 l 1
 290 566.5 l 1
 292 625.25 l 1x2e
EndSplineSet
Refer: 5 100 S 1 0 0 1 0 0 2
EndChar

StartChar: Hbar
Encoding: 228 294 272
Width: 830
Flags: W
HStem: 0 21G<158.83 235.159 603.83 680.159> 287.5 67<220.017 626.5> 294.75 58<209.5 611.983> 453.684 57.5<144.342 803> 461.75 48.5<46 702.658> 665.084 65.9268<48.6201 163.151 493.62 608.151>
VStem: 158.83 76.3291<0 294.75 352.75 665.084> 603.83 76.3291<0 287.5 354.5 665.084>
LayerCount: 2
Fore
SplineSet
229.729492188 731.010742188 m 1x87
 235.159179688 0 l 1
 158.830078125 0 l 1
 163.151367188 665.083984375 l 1
 45 663.080078125 l 1
 48.6201171875 731.010742188 l 1
 229.729492188 731.010742188 l 1x87
674.729492188 731.010742188 m 1
 680.159179688 0 l 1
 603.830078125 0 l 1
 608.151367188 665.083984375 l 1
 490 663.080078125 l 1
 493.620117188 731.010742188 l 1
 674.729492188 731.010742188 l 1
209.5 352.75 m 1xa7
 630.5 354.5 l 1
 626.5 287.5 l 1xc7
 205.5 294.75 l 1
 209.5 352.75 l 1xa7
46 510.25 m 1x8f
 805 511.18359375 l 1
 803 453.68359375 l 1x97
 44 461.75 l 1
 46 510.25 l 1x8f
EndSplineSet
EndChar

StartChar: hbar
Encoding: 229 295 273
Width: 635
Flags: W
HStem: 0 21G<154.08 217.159> 449.934 57<292.432 456.684> 589 59<237.356 396> 597 50<22 335.795> 735.002 20G<158.287 211.873>
VStem: 154.08 63.0791<0 755.002> 514.5 61<47.9023 384.754>
LayerCount: 2
Fore
SplineSet
170.5 291.43359375 m 1xce
 190.862304687 408.062034878 255.083333333 506.93359375 388 506.93359375 c 0
 511.539851262 506.93359375 575.5 429.158203125 575.5 278.93359375 c 0
 575.5 134.376953125 557.659179688 -15 557.659179688 -15 c 1
 494.330078125 -7.5 l 1
 494.330078125 -7.5 514.5 143.127853221 514.5 266.93359375 c 0
 514.5 383.091120794 479.046373281 449.93359375 378.5 449.93359375 c 0
 276.691021858 449.93359375 222.278206033 394.956215745 206 254.43359375 c 1
 170.5 291.43359375 l 1xce
22 647 m 1xde
 188 642 l 1
 398 648 l 1
 396 589 l 1xee
 185.5 598.288085938 l 1
 20 597 l 1
 22 647 l 1xde
211.729492188 755.001953125 m 1
 217.159179688 0 l 1
 154.080078125 0 l 1
 158.401367188 755.001953125 l 1
 211.729492188 755.001953125 l 1
EndSplineSet
EndChar

StartChar: Tbar
Encoding: 292 358 275
Width: 590
Flags: W
HStem: 0 21G<251.83 328.159> 279.25 68.5<337.762 511.25> 287 58.75<77.75 452.343> 663 30<256.151 324.104> 663.08 67.9307<38.6201 256.151 324.104 543.729>
VStem: 251.83 76.3291<0 693>
LayerCount: 2
Fore
SplineSet
77.75 345.75 m 1xa4
 292.75 341.75 l 1
 513.75 347.75 l 1
 511.25 279.25 l 1xc4
 287.25 288.288085938 l 1
 75.25 287 l 1
 77.75 345.75 l 1xa4
EndSplineSet
Refer: 61 84 N 1 0 0 1 0 0 2
EndChar

StartChar: tbar
Encoding: 293 359 276
Width: 426
Flags: W
HStem: -16 63.6807<265.569 321.396> 220.962 58.5<185.099 387> 226.712 51.75<3 385.655> 443.75 53.25<28 369.75>
VStem: 142.83 64.2988<109.251 436.559>
LayerCount: 2
Fore
SplineSet
3 278.461914062 m 1xb8
 194 274.961914062 l 1
 389 279.461914062 l 1
 387 220.961914062 l 1xd8
 184 228 l 1
 1 226.711914062 l 1
 3 278.461914062 l 1xb8
EndSplineSet
Refer: 7 116 N 1 0 0 1 0 0 2
EndChar

StartChar: .notdef
Encoding: 738 -1 362
Width: 795
Flags: W
HStem: -10.0664 48.377<271.922 522.98> 141.077 67.1997<343.097 406.663> 548.177 46.1298<325.109 407.922> 693.14 45.7939<271.922 522.98>
VStem: 30 48<234.788 491.42> 341.28 67.2<142.894 206.46> 351.603 45.493<258.638 335.117> 469.26 50.2201<394.112 502.837> 716.617 48.3828<234.788 491.42>
LayerCount: 2
Fore
SplineSet
316.919921875 548.176855469 m 1xfb80
 326.57421875 594.306640625 l 1
 458.864505775 574.76391454 519.480078125 531.131743449 519.480078125 447.083203125 c 0
 519.480078125 379.230137658 471.83861603 340.820174958 417.086425781 336.350195312 c 0
 405.317523294 335.04695324 397.096386719 335.116796875 397.096386719 335.116796875 c 1
 394.499707031 256.096679688 l 1
 394.499707031 256.096679688 388.948585991 258.637597657 376.080078125 258.637597657 c 0
 362.074744592 258.637597657 354.66015625 255.616601563 354.66015625 255.616601563 c 1
 351.603417969 375.256738281 l 1
 351.603417969 375.256738281 363.235394898 373.981152343 386.399609375 373.981152343 c 0
 431.778928843 373.981152343 469.259960937 395.25005917 469.259960937 448.996679688 c 0
 469.259960937 506.991561907 417.284386533 536.850115728 316.919921875 548.176855469 c 1xfb80
341.279882812 174.676855469 m 0xfd80
 341.279882812 195.210321378 354.346416903 208.276855469 374.879882812 208.276855469 c 0
 395.413348722 208.276855469 408.479882813 195.210321378 408.479882813 174.676855469 c 0
 408.479882813 154.143568598 395.413348722 141.077148438 374.879882812 141.077148438 c 0
 354.346416903 141.077148438 341.279882812 154.143568598 341.279882812 174.676855469 c 0xfd80
30 361.93359375 m 0
 30 592.322641811 172.722067272 738.93359375 397 738.93359375 c 0
 621.889353198 738.93359375 765 592.322641811 765 361.93359375 c 0
 765 134.599173678 621.889353198 -10.06640625 397 -10.06640625 c 0
 172.722067272 -10.06640625 30 134.599173678 30 361.93359375 c 0
78 361.93359375 m 0
 78 164.16352858 202.443333333 38.310546875 398 38.310546875 c 0
 592.711017198 38.310546875 716.6171875 164.16352858 716.6171875 361.93359375 c 0
 716.6171875 564.338895736 592.711017198 693.139648438 398 693.139648438 c 0
 202.443333333 693.139648438 78 564.338895736 78 361.93359375 c 0
EndSplineSet
EndChar

StartChar: uni0326
Encoding: 452 806 363
Width: 0
Flags: W
HStem: -206.337 211.029
VStem: 0 150.296
LayerCount: 2
Fore
SplineSet
87.78125 4.6923828125 m 25
 150.295898438 -28.787109375 l 25
 38.03125 -206.336914062 l 25
 0 -183.5 l 25
 87.78125 4.6923828125 l 25
EndSplineSet
EndChar

StartChar: dcaron
Encoding: 205 271 403
Width: 672
Flags: W
HStem: -10.0664 58<185.056 370.982> 0 53.4268<541.849 658.38> 450.434 56.5<187.076 369.64> 735.002 20G<480.625 539.246>
VStem: 30 60.75<146.679 348.906> 468 73.8486<125.321 371.295> 476.021 37.9795<110.056 406.601> 476.021 65.8281<248.934 755.002> 635 39<483.103 519.73>
LayerCount: 2
Fore
SplineSet
719.5 743.7421875 m 1x3880
 674 479 l 25
 635 484 l 1
 655 751 l 25
 719.5 743.7421875 l 1x3880
EndSplineSet
Refer: 5 100 N 1 0 0 1 0 0 2
EndChar

StartChar: Lcaron
Encoding: 251 317 404
Width: 620
Flags: W
HStem: 0 66.293<234.064 581.539> 665.084 65.9258<46.1201 163.151>
VStem: 158.43 75.6348<66.293 665.084> 465 47<484 523.025>
LayerCount: 2
Fore
SplineSet
554.5 742.4921875 m 1
 512 479.75 l 1
 465 484 l 1
 477.5 751 l 1
 554.5 742.4921875 l 1
EndSplineSet
Refer: 44 76 N 1 0 0 1 0 0 2
EndChar

StartChar: lcaron
Encoding: 252 318 405
Width: 387
Flags: W
HStem: 0 54.6475<234.139 358.839> 700.825 54.1768<48.3201 173.141>
VStem: 168.82 65.3188<54.6475 700.825> 359 47<484 523.025>
LayerCount: 2
Fore
SplineSet
448.5 742.4921875 m 1
 406 479.75 l 1
 359 484 l 1
 371.5 751 l 1
 448.5 742.4921875 l 1
EndSplineSet
Refer: 8 108 N 1 0 0 1 0 0 2
EndChar

StartChar: tcaron
Encoding: 291 357 409
Width: 426
Flags: W
HStem: -16 63.6807<265.569 321.396> 443.75 53.25<28 369.75>
VStem: 142.83 64.2988<109.251 436.559> 323 39.25<550.25 591.656>
LayerCount: 2
Fore
SplineSet
394.75 742.4921875 m 1
 362.25 550.25 l 1
 323 549 l 1
 326 751 l 1
 394.75 742.4921875 l 1
EndSplineSet
Refer: 7 116 N 1 0 0 1 0 0 2
EndChar

StartChar: uni030F
Encoding: 448 783 435
Width: 0
Flags: W
HStem: 524.248 220.246
LayerCount: 2
Fore
SplineSet
65.8740234375 744.494140625 m 1
 213.922851562 554.284179688 l 1
 180.388671875 524.248046875 l 1
 10 701.294921875 l 1
 65.8740234375 744.494140625 l 1
255.874023438 744.494140625 m 1
 403.922851562 554.284179688 l 1
 370.388671875 524.248046875 l 1
 200 701.294921875 l 1
 255.874023438 744.494140625 l 1
EndSplineSet
EndChar

StartChar: uni031B
Encoding: 450 795 463
Width: 0
Flags: W
HStem: 424 326
VStem: 107 54.5<521.254 674.669>
LayerCount: 2
Fore
SplineSet
48 724.5 m 1
 101.5 750 l 1
 101.5 750 161.5 696.444114829 161.5 611 c 0
 161.5 477.463768116 53 424 53 424 c 1
 29 460.5 l 1
 29 460.5 107 507.422572591 107 602.489257812 c 0
 107 667.088362724 48 724.5 48 724.5 c 1
EndSplineSet
EndChar

StartChar: Uhorn
Encoding: 322 431 464
Width: 847
Flags: W
HStem: -10 69.5<325.854 528.903> 665.084 65.9268<48.6201 170.151 491.12 614.901> 670.75 60.2578<676 750.059>
VStem: 158.517 70.8926<164.609 525.461> 623.58 69.0615<161.735 514.607> 753.25 63.75<738.88 806.706>
LayerCount: 2
Fore
SplineSet
709.75 823.25 m 1xbc
 754 860.93359375 l 1
 754 860.93359375 817 823.456365297 817 762.5 c 0
 817 693.341517856 756 673.207589286 676 670.75 c 1
 649 731.0078125 l 1
 720.154761905 731.0078125 753.25 737.087566607 753.25 764.5 c 0
 753.25 801.02027027 709.75 823.25 709.75 823.25 c 1xbc
EndSplineSet
Refer: 53 85 N 1 0 0 1 0 0 2
EndChar

StartChar: uhorn
Encoding: 323 432 465
Width: 687
Flags: W
HStem: -9.93164 57<179.411 347.76> 0 51.1768<492.849 604.38> 450.503 46.5078<473.5 565.347> 477.002 20G<80.8408 141.17 435.31 490.29>
VStem: 60 61<111.81 453.008> 430.771 62.0781<183.068 497.002> 582 60<515.168 606.133>
LayerCount: 2
Fore
SplineSet
538.5 621.002929688 m 1x2e
 584 654.936523438 l 1
 584 654.936523438 642 613.680456867 642 547.5 c 0
 642 476.909140906 577.475507686 452.707408557 473.5 450.502929688 c 1
 449 497.010742188 l 1
 539.777777778 497.010742188 582 512.420691009 582 552.502929688 c 0
 582 603.874070386 538.5 621.002929688 538.5 621.002929688 c 1x2e
EndSplineSet
Refer: 27 117 N 1 0 0 1 0 0 2
EndChar

StartChar: uni01B7
Encoding: 324 439 466
Width: 644
Flags: W
HStem: -183.994 64.25<122.39 403.908> 289.242 58.0913<264.315 439.573> 660.508 70.5<63 484.598>
VStem: 531.417 67<-7.43322 201.082>
LayerCount: 2
Fore
SplineSet
262.5 338.5 m 1
 262.5 338.5 291.314451605 347.333496094 341.592041016 347.333496094 c 0
 480.928858922 347.333496094 598.416992188 283.240381309 598.416992188 93.056640625 c 0
 598.416992188 -88.4548276127 469.500448285 -183.994140625 266.916992188 -183.994140625 c 0
 88.733308848 -183.994140625 13 -117.842773438 13 -117.842773438 c 1
 40.75 -60.427734375 l 1
 40.75 -60.427734375 119.072916445 -119.744140625 263.916992188 -119.744140625 c 0
 452.39751557 -119.744140625 531.416992188 -36.0165307379 531.416992188 95.556640625 c 0
 531.416992188 233.832464237 459.182077056 289.2421875 316.666992188 289.2421875 c 0
 216.590070317 289.2421875 171.5078125 249.43359375 171.5078125 249.43359375 c 1
 141.5 304.5 l 1
 484.59765625 666.5078125 l 1
 56.25 660.5078125 l 1
 63 731.0078125 l 1
 566.516601562 731.0078125 l 1
 579.016601562 679.0078125 l 1
 262.5 338.5 l 1
EndSplineSet
EndChar

StartChar: uni0292
Encoding: 426 658 467
Width: 498
Flags: W
HStem: -183.994 57.25<74.5093 316.24> 156.492 54.0078<190.292 339.138> 477.011 20G<43.9314 425.267>
VStem: 40 6<439 439.21> 397.167 62.25<-51.9325 102.071>
LayerCount: 2
Back
SplineSet
20 338 m 5
 30 497 l 5
 399.016601562 497 l 5
 431.016601562 369 l 5
 257.168945312 164 l 5
 441.016601562 170 l 5
 431.016601562 0 l 5
 41 0 l 5
 12 128 l 5
 193.84765625 344 l 5
 20 338 l 5
EndSplineSet
Fore
SplineSet
218 201 m 1
 218 201 243.634016418 210.5 269 210.5 c 0
 370.300223251 210.5 459.416992188 144.873708774 459.416992188 28 c 0
 459.416992188 -115.80131334 362.778195325 -183.994140625 210.916992188 -183.994140625 c 0
 76.5920522617 -183.994140625 19.5 -140.592773438 19.5 -140.592773438 c 1
 40 -87.427734375 l 1
 40 -87.427734375 89.7268329327 -126.744140625 210.75 -126.744140625 c 0
 330.523638799 -126.744140625 397.166992188 -66.9633006604 397.166992188 27.056640625 c 0
 397.166992188 105.758106097 346.332897948 156.4921875 246.916992188 156.4921875 c 0
 175.192745904 156.4921875 132.0078125 113.93359375 132.0078125 113.93359375 c 1
 102.5 157 l 1
 347.09765625 440.5 l 1
 347.09765625 440.5 40 439.75 40 439 c 1
 46 497.010742188 l 1
 425.266601562 497 l 1
 434.516601562 457.25 l 1
 218 201 l 1
EndSplineSet
EndChar

StartChar: infinity
Encoding: 723 8734 470
Width: 579
Flags: W
HStem: 236 48.5898<108.042 237.143 351.946 470.447> 453.315 46.3691<115.055 230.61 343.505 467.255>
VStem: 37.5 49.5693<305.201 424.959> 493.915 48.3691<308.874 427.574>
LayerCount: 2
Fore
SplineSet
493.915039062 368.904296875 m 0
 493.915039062 416.953926845 460.831237126 453.315429688 410.041992188 453.315429688 c 0
 331.951930199 453.315429688 295.729492188 376.619140625 295.729492188 376.619140625 c 1
 277.538085938 418.2109375 l 1
 277.538085938 418.2109375 318.548795425 499.684570312 413.581054688 499.684570312 c 0
 490.876032896 499.684570312 542.284179688 446.78627806 542.284179688 367.248046875 c 0
 542.284179688 285.434269502 491.729427458 236 408.061523438 236 c 0
 337.073305045 236 293.557638046 276.95464116 270.903320312 354.533203125 c 0
 248.828734748 428.051804998 221.418182335 451.633789062 174.670898438 451.633789062 c 0
 120.648291006 451.633789062 87.0693359376 417.772015482 87.0693359376 363.291015625 c 0
 87.0693359376 312.951689959 119.005608184 282.337890625 171.521484375 282.337890625 c 0
 248.862426749 282.337890625 285.057617188 367.428710938 285.057617188 367.428710938 c 1
 303.377929688 324.771484375 l 1
 303.377929688 324.771484375 264.70416967 236 162.53515625 236 c 0
 85.9117593658 236 37.5 289.599951422 37.5 367.000976562 c 0
 37.5 448.108986591 91.0411607181 499.684570312 175.237304688 499.684570312 c 0
 244.553942956 499.684570312 290.244114414 455.542022626 309.004882812 388.341796875 c 0
 331.301943336 304.95777481 367.143012779 284.58984375 411.366210938 284.58984375 c 0
 462.557116812 284.58984375 493.915039062 316.61771104 493.915039062 368.904296875 c 0
EndSplineSet
EndChar

StartChar: radical
Encoding: 722 8730 471
Width: 659
Flags: W
HStem: 0 21G<277.959 373.579> 491 20G<23.8296 182.418>
LayerCount: 2
Fore
SplineSet
366.948242188 0 m 1
 284.833984375 0 l 1
 129.832519531 450.930908203 l 1
 28.1098632812 440.798095703 l 1
 23.8295898438 497 l 1
 175.727539062 511 l 1
 326.522460938 60.1965332031 l 1
 558.5 783 l 1
 619.5 761.75 l 1
 366.948242188 0 l 1
EndSplineSet
EndChar

StartChar: lessequal
Encoding: 727 8804 472
Width: 450
Flags: W
HStem: 115.5 53<84.5 410> 123.5 46<41 363.5>
LayerCount: 2
Fore
SplineSet
136.87109375 436.25 m 1x00
 415.349609375 293.5 l 1
 387.849609375 242 l 1
 34.650390625 432 l 1
 387.849609375 651 l 1
 415.349609375 604 l 1
 136.87109375 436.25 l 1x00
41 169.5 m 1x40
 412 168.5 l 1
 410 115.5 l 1x80
 38 123.5 l 1
 41 169.5 l 1x40
EndSplineSet
EndChar

StartChar: greaterequal
Encoding: 728 8805 473
Width: 450
Flags: W
HStem: 115.5 53<84.5 410> 123.5 46<41 363.5>
LayerCount: 2
Fore
SplineSet
313.12890625 456.75 m 1x00
 34.650390625 599.5 l 1
 62.150390625 651 l 1
 415.349609375 461 l 1
 62.150390625 242 l 1
 34.650390625 289 l 1
 313.12890625 456.75 l 1x00
41 169.5 m 1x40
 412 168.5 l 1
 410 115.5 l 1x80
 38 123.5 l 1
 41 169.5 l 1x40
EndSplineSet
EndChar

StartChar: three.ss01.superior
Encoding: 739 -1 507
Width: 390
Flags: W
HStem: 342 52.0575<52.6214 262.385> 576.567 47.555<113.904 257.583> 788.595 54.405<65.8129 257.491>
VStem: 287.558 57.0838<652.332 760.363> 300.483 56.5437<428.945 543.151>
LayerCount: 2
Fore
SplineSet
42.4975 420.07875 m 1xe8
 42.4975 420.07875 94.9575 394.0575 168.0325 394.0575 c 0
 257.23625 394.0575 300.4825 429.6675 300.4825 486.005 c 0xe8
 300.4825 541.43875 259.23625 576.5675 180.19875 576.5675 c 0
 127.22 576.5675 113.89375 571.9525 113.89375 571.9525 c 1
 113.27875 626.83375 l 1
 113.27875 626.83375 127.12375 624.1225 171.1025 624.1225 c 0
 249.7925 624.1225 287.5575 656.1175 287.5575 703.89875 c 0
 287.5575 756.5625 251.1775 788.595 168.89875 788.595 c 0
 96.92 788.595 49.97875 759.07625 49.97875 759.07625 c 1
 34.35875 809.40625 l 1
 34.35875 809.40625 76.995 843 175.71125 843 c 0
 280.6575 843 344.64125 793 344.64125 712 c 0xf0
 344.64125 625.385 259.2775 602.09625 259.2775 602.09625 c 1
 259.2775 602.09625 357.02625 581.67375 357.02625 480.28875 c 0
 357.02625 395.28875 288.235 342 180 342 c 0
 71.5725 342 25.6475 372 25.6475 372 c 1
 42.4975 420.07875 l 1xe8
EndSplineSet
EndChar

StartChar: five.ss02.superior
Encoding: 740 -1 508
Width: 408
Flags: W
HStem: 343 52.25<59.0506 268.681> 609.947 50.5175<112.152 279.312> 781.173 100.731<301.145 346.026> 782.173 54.8275<122.839 295.241>
VStem: 301.145 44.8813<837 881.904> 316.483 57.1587<439.412 572.565>
LayerCount: 2
Fore
SplineSet
346.02625 781.1725 m 1xe8
 122.83875 782.1725 l 1
 95.555 627.8175 l 1
 95.555 627.8175 126.8975 660.465 211.13875 660.465 c 0
 322.25625 660.465 373.64125 595.10125 373.64125 507.9625 c 0
 373.64125 396.8825 299.8125 343 184.82875 343 c 0
 67.51875 343 17.6525 379 17.6525 379 c 1
 35.235 427.2875 l 1
 35.235 427.2875 94.17625 395.25 177.25125 395.25 c 0
 270.73875 395.25 316.4825 439.03125 316.4825 506.9625 c 0
 316.4825 570.01125 276.7175 609.9475 199.1875 609.9475 c 0
 121.7375 609.9475 82.47 566.04875 82.47 566.04875 c 1
 36.32125 594.36875 l 1
 78.70625 837 l 1
 295.24125 837 l 1xd4
 301.145 881.90375 l 1
 346.02625 883 l 1
 346.02625 781.1725 l 1xe8
EndSplineSet
EndChar

StartChar: three.ss01.inferior
Encoding: 741 -1 509
Width: 390
Flags: W
HStem: -358 52.0575<51.0863 262.381> -123.433 47.555<114.097 257.89> 88.595 54.405<65.9052 257.435>
VStem: 287.558 57.0838<-47.659 60.2856> 300.483 56.5437<-271.013 -156.801>
LayerCount: 2
Fore
SplineSet
42.4975 -280.53625 m 1xe8
 42.4975 -280.53625 95.15 -305.9425 168.225 -305.9425 c 0
 257.14 -305.9425 300.4825 -270.3325 300.4825 -213.995 c 0xe8
 300.4825 -158.56125 259.7175 -123.4325 180.68 -123.4325 c 0
 127.99 -123.4325 114.08625 -127.4325 114.08625 -127.4325 c 1
 113.47125 -72.8775 l 1
 113.47125 -72.8775 127.605 -75.8775 171.39125 -75.8775 c 0
 249.88875 -75.8775 287.5575 -43.8825 287.5575 3.89875 c 0
 287.5575 56.5625 250.88875 88.595 168.89875 88.595 c 0
 97.1125 88.595 50.17125 58.365 50.17125 58.365 c 1
 34.35875 109.31 l 1
 34.35875 109.31 76.995 143 175.71125 143 c 0
 280.6575 143 344.64125 92.615 344.64125 12 c 0xf0
 344.64125 -74.615 259.56625 -97.8075 259.56625 -97.8075 c 1
 259.56625 -97.8075 357.02625 -118.23 357.02625 -219.615 c 0
 357.02625 -304.615 288.235 -358 180 -358 c 0
 71.5725 -358 25.6475 -328 25.6475 -328 c 1
 42.4975 -280.53625 l 1xe8
EndSplineSet
EndChar

StartChar: five.ss02.inferior
Encoding: 742 -1 510
Width: 407
Flags: W
HStem: -357 52.25<59.0049 268.592> -90.0525 50.5175<112.098 279.372> 81.1725 100.828<301.145 346.026> 82.1725 54.8275<122.839 295.241>
VStem: 301.145 44.8813<137 182> 316.483 57.1587<-260.588 -127.435>
LayerCount: 2
Fore
SplineSet
346.02625 81.1725 m 1xe8
 122.83875 82.1725 l 1
 95.555 -72.1825 l 1
 95.555 -72.1825 126.8975 -39.535 211.13875 -39.535 c 0
 322.25625 -39.535 373.64125 -104.89875 373.64125 -192.0375 c 0
 373.64125 -303.1175 299.8125 -357 184.82875 -357 c 0
 67.51875 -357 17.6525 -321.28875 17.6525 -321.28875 c 1
 35.235 -272.80875 l 1
 35.235 -272.80875 93.8875 -304.75 176.9625 -304.75 c 0
 270.45 -304.75 316.4825 -260.96875 316.4825 -193.0375 c 0
 316.4825 -129.98875 277.00625 -90.0525 199.1875 -90.0525 c 0
 121.44875 -90.0525 82.47 -133.95125 82.47 -133.95125 c 1
 36.32125 -105.63125 l 1
 78.70625 137 l 1
 295.24125 137 l 1xd4
 301.145 182 l 1
 346.02625 183 l 1
 346.02625 81.1725 l 1xe8
EndSplineSet
EndChar

StartChar: guilsinglleft
Encoding: 651 8249 511
Width: 392
Flags: W
HStem: 491 20G<297.943 336.351>
VStem: 26 330.699
LayerCount: 2
Fore
SplineSet
113.220703125 253.25 m 1
 356.69921875 51 l 1
 322.19921875 2 l 1
 26 252 l 1
 320.69921875 511 l 1
 356.69921875 465 l 1
 113.220703125 253.25 l 1
EndSplineSet
EndChar

StartChar: guilsinglright
Encoding: 652 8250 512
Width: 392
Flags: W
HStem: 491 20G<55.4184 93.1959>
VStem: 35 330.699
LayerCount: 2
Fore
SplineSet
278.478515625 259.75 m 1
 35 462 l 1
 69.5 511 l 1
 365.69921875 261 l 1
 71 2 l 1
 35 48 l 1
 278.478515625 259.75 l 1
EndSplineSet
EndChar

StartChar: dagger
Encoding: 640 8224 513
Width: 520
Flags: W
HStem: 449.934 63.5<33 69.6448 447.325 487> 452.845 52.5244<62.0385 427.818>
VStem: 224 68.3291<nan 788.992>
LayerCount: 2
Fore
SplineSet
33 513.43359375 m 1xa0
 253 505.369140625 l 1
 489 514.43359375 l 1
 487 443.43359375 l 1
 256 452.844726562 l 1x60
 31 449.93359375 l 1
 33 513.43359375 l 1xa0
289.899414062 788.9921875 m 1
 285.169921875 478 l 1
 292.329101562 -170 l 1
 224 -170 l 1
 231.616210938 482 l 1
 227.169921875 788.9921875 l 1
 289.899414062 788.9921875 l 1
EndSplineSet
EndChar

StartChar: daggerdbl
Encoding: 641 8225 514
Width: 520
Flags: W
HStem: 159.684 63.5<28 65.5035 451.466 492> 162.595 52.5244<57.6985 431.537> 459.934 63.5<28 65.5035 451.466 492> 462.845 52.5244<57.6985 431.537>
VStem: 232 52.8984<-50.9624 788.992>
LayerCount: 2
Fore
SplineSet
28 223.18359375 m 1x88
 253 215.119140625 l 1
 494 224.18359375 l 1
 492 153.18359375 l 1
 256 162.594726562 l 1x48
 26 159.68359375 l 1
 28 223.18359375 l 1x88
28 523.43359375 m 1x28
 253 515.369140625 l 1
 494 524.43359375 l 1
 492 453.43359375 l 1
 256 462.844726562 l 1x18
 26 459.93359375 l 1
 28 523.43359375 l 1x28
289.899414062 788.9921875 m 1
 283.169921875 488 l 1
 284.8984375 194 l 1
 292.329101562 -170 l 1
 224 -170 l 1
 232 194 l 1
 233.616210938 492 l 1
 227.169921875 788.9921875 l 1
 289.899414062 788.9921875 l 1
EndSplineSet
EndChar

